<?xml version="1.0" standalone="no"?>
<!DOCTYPE svg PUBLIC "-//W3C//DTD SVG 1.1//EN" "http://www.w3.org/Graphics/SVG/1.1/DTD/svg11.dtd" >
<svg xmlns="http://www.w3.org/2000/svg" xmlns:xlink="http://www.w3.org/1999/xlink" version="1.1">
<metadata>
Created by FontForge 20160405 at Sun Feb 24 14:06:08 2019
 By www-data
Copyright (c) 2012 by The Foundry. All rights reserved.
</metadata>
<defs>
<font id="LandRoverOT4-Light" horiz-adv-x="365" >
  <font-face 
    font-family="Land Rover OT4"
    font-weight="300"
    font-stretch="normal"
    units-per-em="1000"
    panose-1="2 0 0 0 0 0 0 0 0 0"
    ascent="700"
    descent="-300"
    x-height="478"
    cap-height="667"
    bbox="-195 -199 1480 1021"
    underline-thickness="50"
    underline-position="-100"
    stemh="20"
    stemv="43"
    unicode-range="U+0020-FFF3"
  />
<missing-glyph horiz-adv-x="500" 
d="M0 0v667h500v-667h-500zM250 372l181 252h-362zM276 333l181 -251v503zM69 43h362l-181 251zM43 585v-503l181 251z" />
    <glyph glyph-name="IJ" unicode="IJ" horiz-adv-x="766" 
d="M142 0h-44v667h44v-667zM674 206c0 -139 -38 -214 -195 -214c-130 0 -197 43 -197 178h41c0 -110 51 -136 156 -136c129 0 151 57 151 170v463h44v-461z" />
    <glyph glyph-name="ij" unicode="ij" horiz-adv-x="422" 
d="M138 643c0 -21 -11 -33 -32 -33c-22 0 -32 12 -32 33s10 31 32 31s32 -10 32 -31zM127 0h-43v478h43v-478zM349 643c0 -21 -11 -33 -32 -33c-22 0 -32 12 -32 33s10 31 32 31s32 -10 32 -31zM172 -190v40h15c75 0 108 18 108 99v529h43v-525c0 -103 -40 -143 -147 -143
h-19z" />
    <glyph glyph-name="f_f" unicode="ff" horiz-adv-x="584" 
d="M560 704v-40h-17c-71 0 -106 -6 -106 -97v-89h123v-39h-123v-439h-43v439h-247v-439h-43v439h-80v39h80v99c0 121 69 127 147 127h19v-40h-17c-71 0 -106 -6 -106 -97v-89h247v99c0 121 69 127 147 127h19z" />
    <glyph glyph-name="fi" unicode="fi" horiz-adv-x="521" 
d="M270 704v-40h-17c-71 0 -106 -6 -106 -97v-89h123v-39h-123v-439h-43v439h-80v39h80v99c0 121 69 127 147 127h19zM448 643c0 -21 -11 -33 -32 -33c-22 0 -32 12 -32 33s10 31 32 31s32 -10 32 -31zM437 0h-43v478h43v-478z" />
    <glyph glyph-name="f_f_i" unicode="ffi" horiz-adv-x="811" 
d="M560 704v-40h-17c-71 0 -106 -6 -106 -97v-89h123v-39h-123v-439h-43v439h-247v-439h-43v439h-80v39h80v99c0 121 69 127 147 127h19v-40h-17c-71 0 -106 -6 -106 -97v-89h247v99c0 121 69 127 147 127h19zM727 0h-43v478h43v-478zM738 643c0 -21 -11 -33 -32 -33
c-22 0 -32 12 -32 33s10 31 32 31s32 -10 32 -31z" />
    <glyph glyph-name="f_j" unicode="fj" horiz-adv-x="521" 
d="M270 704v-40h-17c-71 0 -106 -6 -106 -97v-89h123v-39h-123v-439h-43v439h-80v39h80v99c0 121 69 127 147 127h19zM448 643c0 -21 -11 -33 -32 -33c-22 0 -32 12 -32 33s10 31 32 31s32 -10 32 -31zM271 -190v40h15c75 0 108 18 108 99v529h43v-525
c0 -103 -40 -143 -147 -143h-19z" />
    <glyph glyph-name="fl" unicode="fl" horiz-adv-x="533" 
d="M270 704v-40h-17c-71 0 -106 -6 -106 -97v-89h123v-39h-123v-439h-43v439h-80v39h80v99c0 121 69 127 147 127h19zM497 34v-38h-16c-82 0 -87 45 -87 130v571h43v-564c0 -81 3 -99 53 -99h7z" />
    <glyph glyph-name="f_f_l" unicode="ffl" horiz-adv-x="823" 
d="M560 704v-40h-17c-71 0 -106 -6 -106 -97v-89h123v-39h-123v-439h-43v439h-247v-439h-43v439h-80v39h80v99c0 121 69 127 147 127h19v-40h-17c-71 0 -106 -6 -106 -97v-89h247v99c0 121 69 127 147 127h19zM787 34v-38h-16c-82 0 -87 45 -87 130v571h43v-564
c0 -81 3 -99 53 -99h7z" />
    <glyph glyph-name="f_t" unicode="ft" horiz-adv-x="570" 
d="M560 36v-40h-9c-107 0 -157 38 -157 137v306h-247v-439h-43v439h-80v39h80v99c0 121 69 127 147 127h19v-40h-17c-71 0 -106 -6 -106 -97v-89h247v189h43v-189h123v-39h-123v-306c0 -81 41 -97 116 -97h7z" />
    <glyph glyph-name=".notdef" horiz-adv-x="500" 
d="M0 0v667h500v-667h-500zM250 372l181 252h-362zM276 333l181 -251v503zM69 43h362l-181 251zM43 585v-503l181 251z" />
    <glyph glyph-name=".notdef" horiz-adv-x="500" 
d="M0 0v667h500v-667h-500zM250 372l181 252h-362zM276 333l181 -251v503zM69 43h362l-181 251zM43 585v-503l181 251z" />
    <glyph glyph-name=".null" horiz-adv-x="330" 
 />
    <glyph glyph-name="CR" horiz-adv-x="500" 
 />
    <glyph glyph-name="space" unicode=" " horiz-adv-x="270" 
 />
    <glyph glyph-name="nbspace" horiz-adv-x="281" 
 />
    <glyph glyph-name="A" unicode="A" horiz-adv-x="607" 
d="M581 0h-47l-78 204h-308l-77 -204h-45l254 667h46zM441 242l-138 373l-140 -373h278z" />
    <glyph glyph-name="B" unicode="B" horiz-adv-x="646" 
d="M562 183c0 -182 -98 -183 -241 -183h-223v667h217c131 0 241 7 241 -170c0 -64 -17 -134 -84 -154c76 -21 90 -89 90 -160zM513 500c0 140 -88 128 -205 128h-167v-267h174c118 0 198 -3 198 139zM518 180c0 148 -73 143 -204 143h-173v-283h173c126 0 204 -8 204 140z
" />
    <glyph glyph-name="C" unicode="C" horiz-adv-x="635" 
d="M562 170c0 -130 -65 -178 -225 -178c-255 0 -255 127 -255 341s0 341 255 341c160 0 225 -47 225 -177h-41c-1 102 -44 136 -193 136c-206 0 -202 -102 -202 -300c0 -196 -5 -299 202 -299c149 0 192 34 193 136h41z" />
    <glyph glyph-name="D" unicode="D" horiz-adv-x="660" 
d="M578 334c0 -148 -9 -204 -38 -252c-38 -61 -94 -82 -216 -82h-226v667h226c122 0 178 -21 216 -82c29 -48 38 -103 38 -251zM534 334c0 145 -10 198 -35 236c-28 42 -71 58 -181 58h-177v-588h177c110 0 153 16 181 58c25 38 35 91 35 236z" />
    <glyph glyph-name="E" unicode="E" horiz-adv-x="583" 
d="M499 0h-401v667h401v-40h-356v-264h346v-40h-346v-283h356v-40z" />
    <glyph glyph-name="F" unicode="F" horiz-adv-x="558" 
d="M494 627h-352v-264h343v-40h-343v-323h-44v667h396v-40z" />
    <glyph glyph-name="G" unicode="G" horiz-adv-x="659" 
d="M573 363v-147c0 -204 -133 -224 -248 -224c-248 0 -243 136 -243 341c0 217 -1 341 257 341c159 0 234 -47 234 -177h-42c-1 102 -54 136 -201 136c-211 0 -204 -103 -204 -300c0 -196 -11 -299 201 -299c85 0 144 20 174 64c28 41 29 97 29 188v37h-202v40h245z" />
    <glyph glyph-name="H" unicode="H" horiz-adv-x="653" 
d="M555 0h-44v323h-369v-323h-44v667h44v-304h369v304h44v-667z" />
    <glyph glyph-name="I" unicode="I" horiz-adv-x="240" 
d="M142 0h-44v667h44v-667z" />
    <glyph glyph-name="J" unicode="J" horiz-adv-x="526" 
d="M434 206c0 -139 -38 -214 -195 -214c-130 0 -197 43 -197 178h41c0 -110 51 -136 156 -136c129 0 151 57 151 170v463h44v-461z" />
    <glyph glyph-name="K" unicode="K" horiz-adv-x="572" 
d="M548 0h-65l-341 314v-314h-44v667h43v-315l345 315h61l-368 -332z" />
    <glyph glyph-name="L" unicode="L" horiz-adv-x="509" 
d="M494 0h-396v667h44v-627h352v-40z" />
    <glyph glyph-name="M" unicode="M" horiz-adv-x="819" 
d="M721 0h-43v605l-246 -605h-47l-245 605v-605h-42v667h59l253 -620l251 620h60v-667z" />
    <glyph glyph-name="N" unicode="N" horiz-adv-x="651" 
d="M553 0h-56l-356 606v-606h-43v667h54l358 -605v605h43v-667z" />
    <glyph glyph-name="O" unicode="O" horiz-adv-x="665" 
d="M582 334c0 -203 8 -342 -250 -342s-250 139 -250 342s-8 340 250 340s250 -137 250 -340zM538 333c0 194 8 300 -206 300s-206 -106 -206 -300s-8 -299 206 -299s206 105 206 299z" />
    <glyph glyph-name="P" unicode="P" horiz-adv-x="602" 
d="M556 488c0 -177 -98 -179 -243 -179h-171v-309h-44v667h215c146 0 243 0 243 -179zM512 489c0 145 -82 139 -203 139h-167v-279h167c123 0 203 -7 203 140z" />
    <glyph glyph-name="Q" unicode="Q" horiz-adv-x="684" 
d="M582 334c0 -117 2 -207 -40 -267l65 -41l-21 -33l-71 45c-37 -29 -94 -46 -183 -46c-258 0 -250 139 -250 342s-8 340 250 340s250 -137 250 -340zM394 115l21 33l88 -56c34 43 35 111 35 241c0 194 8 300 -206 300s-206 -106 -206 -300s-8 -299 206 -299
c67 0 113 11 142 30z" />
    <glyph glyph-name="R" unicode="R" horiz-adv-x="644" 
d="M513 490c0 145 -84 138 -204 138h-167v-270h189c117 0 182 3 182 132zM530 0l-152 232c-54 82 -55 85 -125 85h-111v-317h-44v667h215c140 0 243 6 243 -180c0 -115 -45 -168 -181 -170l209 -317h-54z" />
    <glyph glyph-name="S" unicode="S" horiz-adv-x="640" 
d="M566 192c0 -162 -101 -200 -247 -200c-134 0 -245 21 -245 178h42c1 -130 96 -136 205 -136c119 0 201 21 201 155c0 139 -85 130 -203 132c-133 2 -245 -2 -245 167c0 163 100 186 243 186c134 0 243 -21 243 -177h-41c-1 130 -97 136 -204 136
c-116 0 -198 -10 -198 -144c0 -136 95 -125 203 -127c134 -2 246 -1 246 -170z" />
    <glyph glyph-name="T" unicode="T" horiz-adv-x="536" 
d="M506 627h-216v-627h-44v627h-216v40h476v-40z" />
    <glyph glyph-name="U" unicode="U" horiz-adv-x="649" 
d="M557 336c0 -98 5 -201 -31 -257c-36 -57 -97 -87 -202 -87c-113 0 -188 37 -217 112c-20 53 -15 176 -15 232v331h44v-331c0 -130 -4 -191 19 -232c24 -43 77 -70 169 -70s143 27 167 70c23 42 22 102 22 232v331h44v-331z" />
    <glyph glyph-name="V" unicode="V" horiz-adv-x="561" 
d="M549 667l-247 -667h-46l-244 667h46l223 -612l223 612h45z" />
    <glyph glyph-name="W" unicode="W" horiz-adv-x="872" 
d="M822 667l-166 -667h-53l-167 609l-168 -609h-54l-164 667h45l148 -605l167 605h53l167 -605l149 605h43z" />
    <glyph glyph-name="X" unicode="X" horiz-adv-x="550" 
d="M513 0h-51l-189 302l-186 -302h-50l211 337l-208 330h50l186 -297l183 297h51l-209 -330z" />
    <glyph glyph-name="Y" unicode="Y" horiz-adv-x="521" 
d="M510 667l-229 -373v-294h-43v294l-227 373h49l202 -331l200 331h48z" />
    <glyph glyph-name="Z" unicode="Z" horiz-adv-x="598" 
d="M527 0h-456v41l406 586h-406v40h456v-41l-407 -586h407v-40z" />
    <glyph glyph-name="Aacute" unicode="&#xc1;" horiz-adv-x="607" 
d="M581 0h-47l-78 204h-308l-77 -204h-45l254 667h46zM441 242l-138 373l-140 -373h278zM401 860l-133 -129h-51l130 129h54z" />
    <glyph glyph-name="Agrave" unicode="&#xc0;" horiz-adv-x="607" 
d="M581 0h-47l-78 204h-308l-77 -204h-45l254 667h46zM441 242l-138 373l-140 -373h278zM393 731h-51l-133 129h54z" />
    <glyph glyph-name="Acircumflex" unicode="&#xc2;" horiz-adv-x="607" 
d="M581 0h-47l-78 204h-308l-77 -204h-45l254 667h46zM441 242l-138 373l-140 -373h278zM457 731h-51l-101 100l-102 -100h-52l133 129h41z" />
    <glyph glyph-name="Atilde" unicode="&#xc3;" horiz-adv-x="607" 
d="M581 0h-47l-78 204h-308l-77 -204h-45l254 667h46zM441 242l-138 373l-140 -373h278zM490 826l-53 -29c-40 -22 -85 -24 -122 -4c-36 19 -65 45 -111 20l-65 -36l-20 31c55 31 110 76 181 38c35 -19 66 -43 111 -20l61 32z" />
    <glyph glyph-name="Adieresis" unicode="&#xc4;" horiz-adv-x="607" 
d="M581 0h-47l-78 204h-308l-77 -204h-45l254 667h46zM441 242l-138 373l-140 -373h278zM444 828c0 -22 -10 -33 -33 -33s-32 11 -32 33c0 23 10 31 32 31s33 -8 33 -31zM230 828c0 -22 -10 -33 -33 -33s-32 11 -32 33c0 23 10 31 32 31s33 -8 33 -31z" />
    <glyph glyph-name="Amacron" unicode="&#x100;" horiz-adv-x="607" 
d="M581 0h-47l-78 204h-308l-77 -204h-45l254 667h46zM441 242l-138 373l-140 -373h278zM463 807h-320v38h320v-38z" />
    <glyph glyph-name="Abreve" unicode="&#x102;" horiz-adv-x="607" 
d="M581 0h-47l-78 204h-308l-77 -204h-45l254 667h46zM441 242l-138 373l-140 -373h278zM440 867c0 -50 -9 -82 -31 -103s-59 -28 -106 -28s-85 10 -106 28c-24 21 -31 52 -31 103h41c0 -40 5 -64 19 -76c13 -11 41 -17 77 -17s64 6 77 17c14 12 20 36 20 76h40z" />
    <glyph glyph-name="Aring" unicode="&#xc5;" horiz-adv-x="607" 
d="M582 0h-47l-78 204h-308l-77 -204h-45l237 622c-52 10 -72 42 -72 108c0 85 28 110 111 110c82 0 113 -30 113 -111c0 -70 -19 -99 -72 -108zM442 242l-138 373l-140 -373h278zM305 653c63 0 73 18 73 77c0 58 -14 76 -75 76c-63 0 -73 -18 -73 -77c0 -58 14 -76 75 -76z
" />
    <glyph glyph-name="Aringacute" unicode="&#x1fa;" horiz-adv-x="607" 
d="M582 0h-47l-78 204h-308l-77 -204h-45l237 622c-52 10 -72 42 -72 108c0 85 28 110 111 110c82 0 113 -30 113 -111c0 -70 -19 -99 -72 -108zM442 242l-138 373l-140 -373h278zM305 653c63 0 73 18 73 77c0 58 -14 76 -75 76c-63 0 -73 -18 -73 -77c0 -58 14 -76 75 -76z
M395 1021l-133 -129h-51l130 129h54z" />
    <glyph glyph-name="Aogonek" unicode="&#x104;" horiz-adv-x="607" 
d="M326 667l255 -667c-67 -26 -91 -57 -91 -103c0 -48 33 -60 73 -60c10 0 20 1 30 2v-31c-13 -2 -26 -3 -38 -3c-59 0 -103 25 -103 90c0 62 37 95 78 115l-74 194h-308l-77 -204h-45l254 667h46zM441 242l-138 373l-140 -373h278z" />
    <glyph glyph-name="AE" unicode="&#xc6;" horiz-adv-x="901" 
d="M817 0h-365v206h-266l-135 -206h-49l440 667h375v-40h-322v-264h312v-40h-312v-283h322v-40zM452 245v368l-241 -368h241z" />
    <glyph glyph-name="AEacute" unicode="&#x1fc;" horiz-adv-x="901" 
d="M817 0h-365v206h-266l-135 -206h-49l440 667h375v-40h-322v-264h312v-40h-312v-283h322v-40zM452 245v368l-241 -368h241zM621 860l-133 -129h-51l130 129h54z" />
    <glyph glyph-name="Cacute" unicode="&#x106;" horiz-adv-x="635" 
d="M418 860l-133 -129h-51l130 129h54zM562 170c0 -130 -65 -178 -225 -178c-255 0 -255 127 -255 341s0 341 255 341c160 0 225 -47 225 -177h-41c-1 102 -44 136 -193 136c-206 0 -202 -102 -202 -300c0 -196 -5 -299 202 -299c149 0 192 34 193 136h41z" />
    <glyph glyph-name="Ccircumflex" unicode="&#x108;" horiz-adv-x="635" 
d="M562 170c0 -130 -65 -178 -225 -178c-255 0 -255 127 -255 341s0 341 255 341c160 0 225 -47 225 -177h-41c-1 102 -44 136 -193 136c-206 0 -202 -102 -202 -300c0 -196 -5 -299 202 -299c149 0 192 34 193 136h41zM485 731h-51l-101 100l-102 -100h-52l133 129h41z" />
    <glyph glyph-name="Ccaron" unicode="&#x10c;" horiz-adv-x="635" 
d="M562 170c0 -130 -65 -178 -225 -178c-255 0 -255 127 -255 341s0 341 255 341c160 0 225 -47 225 -177h-41c-1 102 -44 136 -193 136c-206 0 -202 -102 -202 -300c0 -196 -5 -299 202 -299c149 0 192 34 193 136h41zM486 862l-133 -129h-41l-132 129h51l101 -100l102 100
h52z" />
    <glyph glyph-name="Cdotaccent" unicode="&#x10a;" horiz-adv-x="635" 
d="M562 170c0 -130 -65 -178 -225 -178c-255 0 -255 127 -255 341s0 341 255 341c160 0 225 -47 225 -177h-41c-1 102 -44 136 -193 136c-206 0 -202 -102 -202 -300c0 -196 -5 -299 202 -299c149 0 192 34 193 136h41zM364 828c0 -22 -10 -33 -33 -33s-32 11 -32 33
c0 23 10 31 32 31s33 -8 33 -31z" />
    <glyph glyph-name="Ccedilla" unicode="&#xc7;" horiz-adv-x="635" 
d="M562 170c0 -132 -65 -177 -225 -177v-40c45 0 65 -25 65 -67c0 -49 -20 -73 -76 -73c-55 0 -76 17 -76 61h33c0 -27 12 -32 43 -32c34 0 41 12 41 42c0 45 -27 41 -65 42v67c-219 11 -220 136 -220 340c0 214 0 341 255 341c161 0 225 -47 225 -177h-41
c-1 102 -44 136 -193 136c-206 0 -202 -102 -202 -300c0 -196 -5 -299 202 -299c149 0 192 34 193 136h41z" />
    <glyph glyph-name="Dcaron" unicode="&#x10e;" horiz-adv-x="660" 
d="M578 334c0 -148 -9 -204 -38 -252c-38 -61 -94 -82 -216 -82h-226v667h226c122 0 178 -21 216 -82c29 -48 38 -103 38 -251zM534 334c0 145 -10 198 -35 236c-28 42 -71 58 -181 58h-177v-588h177c110 0 153 16 181 58c25 38 35 91 35 236zM477 862l-133 -129h-41
l-132 129h51l101 -100l102 100h52z" />
    <glyph glyph-name="Dcroat" unicode="&#x110;" horiz-adv-x="678" 
d="M596 334c0 -148 -9 -204 -38 -252c-38 -61 -94 -82 -216 -82h-226v316h-87v40h87v311h226c122 0 178 -21 216 -82c29 -48 38 -103 38 -251zM552 334c0 145 -10 198 -35 236c-28 42 -71 58 -181 58h-177v-272h189v-40h-189v-276h177c110 0 153 16 181 58
c25 38 35 91 35 236z" />
    <glyph glyph-name="Eth" unicode="&#xd0;" horiz-adv-x="678" 
d="M596 334c0 -148 -9 -204 -38 -252c-38 -61 -94 -82 -216 -82h-226v316h-87v40h87v311h226c122 0 178 -21 216 -82c29 -48 38 -103 38 -251zM552 334c0 145 -10 198 -35 236c-28 42 -71 58 -181 58h-177v-272h189v-40h-189v-276h177c110 0 153 16 181 58
c25 38 35 91 35 236z" />
    <glyph glyph-name="Eacute" unicode="&#xc9;" horiz-adv-x="583" 
d="M499 0h-401v667h401v-40h-356v-264h346v-40h-346v-283h356v-40zM386 860l-133 -129h-51l130 129h54z" />
    <glyph glyph-name="Egrave" unicode="&#xc8;" horiz-adv-x="583" 
d="M499 0h-401v667h401v-40h-356v-264h346v-40h-346v-283h356v-40zM374 731h-51l-133 129h54z" />
    <glyph glyph-name="Ecircumflex" unicode="&#xca;" horiz-adv-x="583" 
d="M499 0h-401v667h401v-40h-356v-264h346v-40h-346v-283h356v-40zM447 731h-51l-101 100l-102 -100h-52l133 129h41z" />
    <glyph glyph-name="Ecaron" unicode="&#x11a;" horiz-adv-x="583" 
d="M499 0h-401v667h401v-40h-356v-264h346v-40h-346v-283h356v-40zM453 862l-133 -129h-41l-132 129h51l101 -100l102 100h52z" />
    <glyph glyph-name="Edieresis" unicode="&#xcb;" horiz-adv-x="583" 
d="M499 0h-401v667h401v-40h-356v-264h346v-40h-346v-283h356v-40zM439 829c0 -22 -10 -33 -33 -33s-32 11 -32 33c0 23 10 31 32 31s33 -8 33 -31zM225 829c0 -22 -10 -33 -33 -33s-32 11 -32 33c0 23 10 31 32 31s33 -8 33 -31z" />
    <glyph glyph-name="Emacron" unicode="&#x112;" horiz-adv-x="583" 
d="M499 0h-401v667h401v-40h-356v-264h346v-40h-346v-283h356v-40zM459 807h-320v38h320v-38z" />
    <glyph glyph-name="Ebreve" unicode="&#x114;" horiz-adv-x="583" 
d="M499 0h-401v667h401v-40h-356v-264h346v-40h-346v-283h356v-40zM437 867c0 -50 -9 -82 -31 -103s-59 -28 -106 -28s-85 10 -106 28c-24 21 -31 52 -31 103h41c0 -40 5 -64 19 -76c13 -11 41 -17 77 -17s64 6 77 17c14 12 20 36 20 76h40z" />
    <glyph glyph-name="Edotaccent" unicode="&#x116;" horiz-adv-x="583" 
d="M499 0h-401v667h401v-40h-356v-264h346v-40h-346v-283h356v-40zM332 828c0 -22 -10 -33 -33 -33s-32 11 -32 33c0 23 10 31 32 31s33 -8 33 -31z" />
    <glyph glyph-name="Eogonek" unicode="&#x118;" horiz-adv-x="583" 
d="M499 0c-67 -26 -91 -57 -91 -103c0 -48 33 -60 73 -60c10 0 20 1 30 2v-31c-13 -2 -26 -3 -38 -3c-59 0 -103 25 -103 90c0 86 65 105 65 105h-337v667h401v-40h-356v-264h346v-40h-346v-283h356v-40z" />
    <glyph glyph-name="Gcircumflex" unicode="&#x11c;" horiz-adv-x="659" 
d="M485 731h-51l-101 100l-102 -100h-52l133 129h41zM573 363v-147c0 -204 -133 -224 -248 -224c-248 0 -243 136 -243 341c0 217 -1 341 257 341c159 0 234 -47 234 -177h-42c-1 102 -54 136 -201 136c-211 0 -204 -103 -204 -300c0 -196 -11 -299 201 -299
c85 0 144 20 174 64c28 41 29 97 29 188v37h-202v40h245z" />
    <glyph glyph-name="Gbreve" unicode="&#x11e;" horiz-adv-x="659" 
d="M468 867c0 -50 -9 -82 -31 -103s-59 -28 -106 -28s-85 10 -106 28c-24 21 -31 52 -31 103h41c0 -40 5 -64 19 -76c13 -11 41 -17 77 -17s64 6 77 17c14 12 20 36 20 76h40zM573 363v-147c0 -204 -133 -224 -248 -224c-248 0 -243 136 -243 341c0 217 -1 341 257 341
c159 0 234 -47 234 -177h-42c-1 102 -54 136 -201 136c-211 0 -204 -103 -204 -300c0 -196 -11 -299 201 -299c85 0 144 20 174 64c28 41 29 97 29 188v37h-202v40h245z" />
    <glyph glyph-name="Gdotaccent" unicode="&#x120;" horiz-adv-x="659" 
d="M364 828c0 -22 -10 -33 -33 -33s-32 11 -32 33c0 23 10 31 32 31s33 -8 33 -31zM573 363v-147c0 -204 -133 -224 -248 -224c-248 0 -243 136 -243 341c0 217 -1 341 257 341c159 0 234 -47 234 -177h-42c-1 102 -54 136 -201 136c-211 0 -204 -103 -204 -300
c0 -196 -11 -299 201 -299c85 0 144 20 174 64c28 41 29 97 29 188v37h-202v40h245z" />
    <glyph glyph-name="Gcommaaccent" unicode="&#x122;" horiz-adv-x="659" 
d="M349 -77c0 -45 -5 -63 -36 -92l-32 -30l-29 29c15 13 34 31 34 31c19 17 21 27 21 61v34h42v-33zM573 363v-147c0 -204 -133 -224 -248 -224c-248 0 -243 136 -243 341c0 217 -1 341 257 341c159 0 234 -47 234 -177h-42c-1 102 -54 136 -201 136
c-211 0 -204 -103 -204 -300c0 -196 -11 -299 201 -299c85 0 144 20 174 64c28 41 29 97 29 188v37h-202v40h245z" />
    <glyph glyph-name="Hcircumflex" unicode="&#x124;" horiz-adv-x="653" 
d="M555 0h-44v323h-369v-323h-44v667h44v-304h369v304h44v-667zM479 731h-51l-101 100l-102 -100h-52l133 129h41z" />
    <glyph glyph-name="Hbar" unicode="&#x126;" horiz-adv-x="653" 
d="M555 0h-44v323h-369v-323h-44v497h-82v40h82v130h44v-130h369v130h44v-130h82v-40h-82v-497zM142 363h369v134h-369v-134z" />
    <glyph glyph-name="Iacute" unicode="&#xcd;" horiz-adv-x="240" 
d="M142 0h-44v667h44v-667zM230 860l-133 -129h-51l130 129h54z" />
    <glyph glyph-name="Igrave" unicode="&#xcc;" horiz-adv-x="240" 
d="M142 0h-44v667h44v-667zM223 731h-51l-133 129h54z" />
    <glyph glyph-name="Icircumflex" unicode="&#xce;" horiz-adv-x="240" 
d="M142 0h-44v667h44v-667zM273 731h-51l-101 100l-102 -100h-52l133 129h41z" />
    <glyph glyph-name="Itilde" unicode="&#x128;" horiz-adv-x="240" 
d="M142 0h-44v667h44v-667zM306 826l-53 -29c-40 -22 -85 -24 -122 -4c-36 19 -65 45 -111 20l-65 -36l-20 31c55 31 110 76 181 38c35 -19 66 -43 111 -20l61 32z" />
    <glyph glyph-name="Idieresis" unicode="&#xcf;" horiz-adv-x="240" 
d="M142 0h-44v667h44v-667zM275 829c0 -22 -10 -33 -33 -33s-32 11 -32 33c0 23 10 31 32 31s33 -8 33 -31zM61 829c0 -22 -10 -33 -33 -33s-32 11 -32 33c0 23 10 31 32 31s33 -8 33 -31z" />
    <glyph glyph-name="Imacron" unicode="&#x12a;" horiz-adv-x="240" 
d="M142 0h-44v667h44v-667zM280 807h-320v38h320v-38z" />
    <glyph glyph-name="Ibreve" unicode="&#x12c;" horiz-adv-x="240" 
d="M142 0h-44v667h44v-667zM257 867c0 -50 -9 -82 -31 -103s-59 -28 -106 -28s-85 10 -106 28c-24 21 -31 52 -31 103h41c0 -40 5 -64 19 -76c13 -11 41 -17 77 -17s64 6 77 17c14 12 20 36 20 76h40z" />
    <glyph glyph-name="Idotaccent" unicode="&#x130;" horiz-adv-x="240" 
d="M142 0h-44v667h44v-667zM153 828c0 -22 -10 -33 -33 -33s-32 11 -32 33c0 23 10 31 32 31s33 -8 33 -31z" />
    <glyph glyph-name="Iogonek" unicode="&#x12e;" horiz-adv-x="240" 
d="M142 0c-67 -26 -91 -57 -91 -103c0 -48 33 -60 73 -60c10 0 20 1 30 2v-31c-13 -2 -26 -3 -38 -3c-59 0 -103 25 -103 90c0 61 35 96 85 120v652h44v-667z" />
    <glyph glyph-name="Jcircumflex" unicode="&#x134;" horiz-adv-x="526" 
d="M564 731h-51l-101 100l-102 -100h-52l133 129h41zM434 206c0 -139 -38 -214 -195 -214c-130 0 -197 43 -197 178h41c0 -110 51 -136 156 -136c129 0 151 57 151 170v463h44v-461z" />
    <glyph glyph-name="Kcommaaccent" unicode="&#x136;" horiz-adv-x="572" 
d="M548 0h-65l-341 314v-314h-44v667h43v-315l345 315h61l-368 -332zM322 -77c0 -45 -5 -63 -36 -92l-32 -30l-29 29c15 13 34 31 34 31c19 17 21 27 21 61v34h42v-33z" />
    <glyph glyph-name="Lacute" unicode="&#x139;" horiz-adv-x="509" 
d="M494 0h-396v667h44v-627h352v-40zM280 860l-133 -129h-51l130 129h54z" />
    <glyph glyph-name="Lcaron" unicode="&#x13d;" horiz-adv-x="509" 
d="M494 0h-396v667h44v-627h352v-40zM307 634c0 -45 -5 -63 -36 -92l-32 -30l-29 29c15 13 34 31 34 31c19 17 21 27 21 61v34h42v-33z" />
    <glyph glyph-name="Lcommaaccent" unicode="&#x13b;" horiz-adv-x="509" 
d="M494 0h-396v667h44v-627h352v-40zM317 -77c0 -45 -5 -63 -36 -92l-32 -30l-29 29c15 13 34 31 34 31c19 17 21 27 21 61v34h42v-33z" />
    <glyph glyph-name="Lslash" unicode="&#x141;" horiz-adv-x="526" 
d="M511 0h-396v300l-65 -66l-27 27l92 94v312h43v-276l88 88l27 -27l-115 -116v-296h353v-40z" />
    <glyph glyph-name="Ldot" unicode="&#x13f;" horiz-adv-x="509" 
d="M494 0h-396v667h44v-627h352v-40zM407 343c0 -22 -10 -33 -33 -33s-32 11 -32 33c0 23 10 31 32 31s33 -8 33 -31z" />
    <glyph glyph-name="Nacute" unicode="&#x143;" horiz-adv-x="651" 
d="M553 0h-56l-356 606v-606h-43v667h54l358 -605v605h43v-667zM417 860l-133 -129h-51l130 129h54z" />
    <glyph glyph-name="Ncaron" unicode="&#x147;" horiz-adv-x="651" 
d="M553 0h-56l-356 606v-606h-43v667h54l358 -605v605h43v-667zM478 862l-133 -129h-41l-132 129h51l101 -100l102 100h52z" />
    <glyph glyph-name="Ntilde" unicode="&#xd1;" horiz-adv-x="651" 
d="M553 0h-56l-356 606v-606h-43v667h54l358 -605v605h43v-667zM510 826l-53 -29c-40 -22 -85 -24 -122 -4c-36 19 -65 45 -111 20l-65 -36l-20 31c55 31 110 76 181 38c35 -19 66 -43 111 -20l61 32z" />
    <glyph glyph-name="Ncommaaccent" unicode="&#x145;" horiz-adv-x="651" 
d="M553 0h-56l-356 606v-606h-43v667h54l358 -605v605h43v-667zM347 -77c0 -45 -5 -63 -36 -92l-32 -30l-29 29c15 13 34 31 34 31c19 17 21 27 21 61v34h42v-33z" />
    <glyph glyph-name="Eng" unicode="&#x14a;" horiz-adv-x="651" 
d="M322 -191v39c29 -2 34 -2 46 -2c74 0 142 26 142 124v30l-369 606v-606h-43v667h54l358 -584v584h43v-698c0 -119 -83 -163 -183 -163c-16 0 -32 1 -48 3z" />
    <glyph glyph-name="Oacute" unicode="&#xd3;" horiz-adv-x="665" 
d="M582 334c0 -203 8 -342 -250 -342s-250 139 -250 342s-8 340 250 340s250 -137 250 -340zM538 333c0 194 8 300 -206 300s-206 -106 -206 -300s-8 -299 206 -299s206 105 206 299zM418 860l-133 -129h-51l130 129h54z" />
    <glyph glyph-name="Ograve" unicode="&#xd2;" horiz-adv-x="665" 
d="M582 334c0 -203 8 -342 -250 -342s-250 139 -250 342s-8 340 250 340s250 -137 250 -340zM538 333c0 194 8 300 -206 300s-206 -106 -206 -300s-8 -299 206 -299s206 105 206 299zM431 731h-51l-133 129h54z" />
    <glyph glyph-name="Ocircumflex" unicode="&#xd4;" horiz-adv-x="665" 
d="M582 334c0 -203 8 -342 -250 -342s-250 139 -250 342s-8 340 250 340s250 -137 250 -340zM538 333c0 194 8 300 -206 300s-206 -106 -206 -300s-8 -299 206 -299s206 105 206 299zM485 731h-51l-101 100l-102 -100h-52l133 129h41z" />
    <glyph glyph-name="Otilde" unicode="&#xd5;" horiz-adv-x="665" 
d="M582 334c0 -203 8 -342 -250 -342s-250 139 -250 342s-8 340 250 340s250 -137 250 -340zM538 333c0 194 8 300 -206 300s-206 -106 -206 -300s-8 -299 206 -299s206 105 206 299zM518 826l-53 -29c-40 -22 -85 -24 -122 -4c-36 19 -65 45 -111 20l-65 -36l-20 31
c55 31 110 76 181 38c35 -19 66 -43 111 -20l61 32z" />
    <glyph glyph-name="Odieresis" unicode="&#xd6;" horiz-adv-x="665" 
d="M582 334c0 -203 8 -342 -250 -342s-250 139 -250 342s-8 340 250 340s250 -137 250 -340zM538 333c0 194 8 300 -206 300s-206 -106 -206 -300s-8 -299 206 -299s206 105 206 299zM472 828c0 -22 -10 -33 -33 -33s-32 11 -32 33c0 23 10 31 32 31s33 -8 33 -31zM258 828
c0 -22 -10 -33 -33 -33s-32 11 -32 33c0 23 10 31 32 31s33 -8 33 -31z" />
    <glyph glyph-name="Omacron" unicode="&#x14c;" horiz-adv-x="665" 
d="M582 334c0 -203 8 -342 -250 -342s-250 139 -250 342s-8 340 250 340s250 -137 250 -340zM538 333c0 194 8 300 -206 300s-206 -106 -206 -300s-8 -299 206 -299s206 105 206 299zM492 807h-320v38h320v-38z" />
    <glyph glyph-name="Obreve" unicode="&#x14e;" horiz-adv-x="665" 
d="M582 334c0 -203 8 -342 -250 -342s-250 139 -250 342s-8 340 250 340s250 -137 250 -340zM538 333c0 194 8 300 -206 300s-206 -106 -206 -300s-8 -299 206 -299s206 105 206 299zM469 867c0 -50 -9 -82 -31 -103s-59 -28 -106 -28s-85 10 -106 28c-24 21 -31 52 -31 103
h41c0 -40 5 -64 19 -76c13 -11 41 -17 77 -17s64 6 77 17c14 12 20 36 20 76h40z" />
    <glyph glyph-name="Ohungarumlaut" unicode="&#x150;" horiz-adv-x="665" 
d="M582 334c0 -203 8 -342 -250 -342s-250 139 -250 342s-8 340 250 340s250 -137 250 -340zM538 333c0 194 8 300 -206 300s-206 -106 -206 -300s-8 -299 206 -299s206 105 206 299zM543 862l-126 -126h-53l127 126h52zM374 862l-126 -126h-53l127 126h52z" />
    <glyph glyph-name="Oslash" unicode="&#xd8;" horiz-adv-x="664" 
d="M582 330c-2 -136 -6 -211 -41 -262c-36 -53 -101 -78 -213 -77c-21 0 -36 2 -54 4l-30 -136l-39 8l30 134c-55 10 -97 35 -121 75c-32 51 -34 125 -32 260c2 137 5 213 40 263c36 52 102 76 214 75c21 0 35 -1 53 -3l30 133l39 -9l-29 -130c54 -10 95 -36 120 -75
c32 -51 35 -125 33 -260zM538 329c2 165 -4 204 -29 241c-19 28 -49 47 -90 54l-136 -590c15 -1 26 -1 45 -1c96 -1 146 18 174 58c26 36 34 72 36 238zM380 631c-15 1 -25 2 -44 2c-96 1 -147 -19 -175 -59c-26 -36 -34 -74 -36 -240c-2 -165 5 -202 30 -239
c19 -28 48 -47 89 -54z" />
    <glyph glyph-name="Oslashacute" unicode="&#x1fe;" horiz-adv-x="664" 
d="M418 860l-133 -129h-51l130 129h54zM582 330c-2 -136 -6 -211 -41 -262c-36 -53 -101 -78 -213 -77c-21 0 -36 2 -54 4l-30 -136l-39 8l30 134c-55 10 -97 35 -121 75c-32 51 -34 125 -32 260c2 137 5 213 40 263c36 52 102 76 214 75c21 0 35 -1 53 -3l30 133l39 -9
l-29 -130c54 -10 95 -36 120 -75c32 -51 35 -125 33 -260zM538 329c2 165 -4 204 -29 241c-19 28 -49 47 -90 54l-136 -590c15 -1 26 -1 45 -1c96 -1 146 18 174 58c26 36 34 72 36 238zM380 631c-15 1 -25 2 -44 2c-96 1 -147 -19 -175 -59c-26 -36 -34 -74 -36 -240
c-2 -165 5 -202 30 -239c19 -28 48 -47 89 -54z" />
    <glyph glyph-name="OE" unicode="&#x152;" horiz-adv-x="916" 
d="M832 0h-496c-121 0 -178 21 -216 82c-29 48 -38 103 -38 252c0 148 9 204 38 251c38 61 95 82 216 82h496v-40h-326v-264h316v-40h-316v-283h326v-40zM463 40v587h-122c-110 0 -153 -16 -181 -58c-25 -38 -34 -90 -34 -235c0 -146 10 -199 35 -236c28 -42 69 -58 181 -58
h121z" />
    <glyph glyph-name="Thorn" unicode="&#xde;" horiz-adv-x="602" 
d="M556 335c0 -177 -98 -179 -243 -179h-171v-156h-44v667h44v-153h171c146 0 243 0 243 -179zM512 336c0 145 -82 139 -203 139h-167v-279h167c123 0 203 -7 203 140z" />
    <glyph glyph-name="Racute" unicode="&#x154;" horiz-adv-x="644" 
d="M404 860l-133 -129h-51l130 129h54zM513 490c0 145 -84 138 -204 138h-167v-270h189c117 0 182 3 182 132zM530 0l-152 232c-54 82 -55 85 -125 85h-111v-317h-44v667h215c140 0 243 6 243 -180c0 -115 -45 -168 -181 -170l209 -317h-54z" />
    <glyph glyph-name="Rcaron" unicode="&#x158;" horiz-adv-x="644" 
d="M455 862l-133 -129h-41l-132 129h51l101 -100l102 100h52zM513 490c0 145 -84 138 -204 138h-167v-270h189c117 0 182 3 182 132zM530 0l-152 232c-54 82 -55 85 -125 85h-111v-317h-44v667h215c140 0 243 6 243 -180c0 -115 -45 -168 -181 -170l209 -317h-54z" />
    <glyph glyph-name="Rcommaaccent" unicode="&#x156;" horiz-adv-x="644" 
d="M338 -77c0 -45 -5 -63 -36 -92l-32 -30l-29 29c15 13 34 31 34 31c19 17 21 27 21 61v34h42v-33zM513 490c0 145 -84 138 -204 138h-167v-270h189c117 0 182 3 182 132zM530 0l-152 232c-54 82 -55 85 -125 85h-111v-317h-44v667h215c140 0 243 6 243 -180
c0 -115 -45 -168 -181 -170l209 -317h-54z" />
    <glyph glyph-name="Sacute" unicode="&#x15a;" horiz-adv-x="636" 
d="M414 860l-133 -129h-51l130 129h54zM566 192c0 -162 -101 -200 -247 -200c-134 0 -245 21 -245 178h42c1 -130 96 -136 205 -136c119 0 201 21 201 155c0 139 -85 130 -203 132c-133 2 -245 -2 -245 167c0 163 100 186 243 186c134 0 243 -21 243 -177h-41
c-1 130 -97 136 -204 136c-116 0 -198 -10 -198 -144c0 -136 95 -125 203 -127c134 -2 246 -1 246 -170z" />
    <glyph glyph-name="Scircumflex" unicode="&#x15c;" horiz-adv-x="636" 
d="M475 731h-51l-101 100l-102 -100h-52l133 129h41zM566 192c0 -162 -101 -200 -247 -200c-134 0 -245 21 -245 178h42c1 -130 96 -136 205 -136c119 0 201 21 201 155c0 139 -85 130 -203 132c-133 2 -245 -2 -245 167c0 163 100 186 243 186c134 0 243 -21 243 -177h-41
c-1 130 -97 136 -204 136c-116 0 -198 -10 -198 -144c0 -136 95 -125 203 -127c134 -2 246 -1 246 -170z" />
    <glyph glyph-name="Scaron" unicode="&#x160;" horiz-adv-x="636" 
d="M475 862l-133 -129h-41l-132 129h51l101 -100l102 100h52zM566 192c0 -162 -101 -200 -247 -200c-134 0 -245 21 -245 178h42c1 -130 96 -136 205 -136c119 0 201 21 201 155c0 139 -85 130 -203 132c-133 2 -245 -2 -245 167c0 163 100 186 243 186
c134 0 243 -21 243 -177h-41c-1 130 -97 136 -204 136c-116 0 -198 -10 -198 -144c0 -136 95 -125 203 -127c134 -2 246 -1 246 -170z" />
    <glyph glyph-name="Scedilla" unicode="&#x15e;" horiz-adv-x="636" 
d="M566 192c0 -156 -95 -197 -231 -200v-39c45 0 65 -25 65 -67c0 -49 -20 -73 -76 -73c-55 0 -76 17 -76 61h33c0 -27 12 -32 43 -32c34 0 41 12 41 42c0 45 -27 41 -65 42v66c-125 2 -226 27 -226 178h42c1 -130 96 -136 205 -136c119 0 201 21 201 155
c0 139 -85 130 -203 132c-133 2 -245 -2 -245 167c0 163 100 186 243 186c134 0 243 -21 243 -177h-41c-1 130 -97 136 -204 136c-116 0 -198 -10 -198 -144c0 -136 95 -125 203 -127c134 -2 246 -1 246 -170z" />
    <glyph glyph-name="Scommaaccent" unicode="&#x218;" horiz-adv-x="636" 
d="M338 -77c0 -45 -5 -63 -36 -92l-32 -30l-29 29c15 13 34 31 34 31c19 17 21 27 21 61v34h42v-33zM566 192c0 -162 -101 -200 -247 -200c-134 0 -245 21 -245 178h42c1 -130 96 -136 205 -136c119 0 201 21 201 155c0 139 -85 130 -203 132c-133 2 -245 -2 -245 167
c0 163 100 186 243 186c134 0 243 -21 243 -177h-41c-1 130 -97 136 -204 136c-116 0 -198 -10 -198 -144c0 -136 95 -125 203 -127c134 -2 246 -1 246 -170z" />
    <glyph glyph-name="Tcaron" unicode="&#x164;" horiz-adv-x="536" 
d="M506 627h-216v-627h-44v627h-216v40h476v-40zM421 862l-133 -129h-41l-132 129h51l101 -100l102 100h52z" />
    <glyph glyph-name="Tcommaaccent" unicode="&#x162;" horiz-adv-x="536" 
d="M506 627h-216v-627h-44v627h-216v40h476v-40zM289 -77c0 -45 -5 -63 -36 -92l-32 -30l-29 29c15 13 34 31 34 31c19 17 21 27 21 61v34h42v-33z" />
    <glyph glyph-name="Tbar" unicode="&#x166;" horiz-adv-x="536" 
d="M412 323h-122v-323h-44v323h-122v40h122v264h-216v40h476v-40h-216v-264h122v-40z" />
    <glyph glyph-name="Uacute" unicode="&#xda;" horiz-adv-x="649" 
d="M557 336c0 -98 5 -201 -31 -257c-36 -57 -97 -87 -202 -87c-113 0 -188 37 -217 112c-20 53 -15 176 -15 232v331h44v-331c0 -130 -4 -191 19 -232c24 -43 77 -70 169 -70s143 27 167 70c23 42 22 102 22 232v331h44v-331zM419 860l-133 -129h-51l130 129h54z" />
    <glyph glyph-name="Ugrave" unicode="&#xd9;" horiz-adv-x="649" 
d="M557 336c0 -98 5 -201 -31 -257c-36 -57 -97 -87 -202 -87c-113 0 -188 37 -217 112c-20 53 -15 176 -15 232v331h44v-331c0 -130 -4 -191 19 -232c24 -43 77 -70 169 -70s143 27 167 70c23 42 22 102 22 232v331h44v-331zM410 731h-51l-133 129h54z" />
    <glyph glyph-name="Ucircumflex" unicode="&#xdb;" horiz-adv-x="649" 
d="M557 336c0 -98 5 -201 -31 -257c-36 -57 -97 -87 -202 -87c-113 0 -188 37 -217 112c-20 53 -15 176 -15 232v331h44v-331c0 -130 -4 -191 19 -232c24 -43 77 -70 169 -70s143 27 167 70c23 42 22 102 22 232v331h44v-331zM478 731h-51l-101 100l-102 -100h-52l133 129
h41z" />
    <glyph glyph-name="Utilde" unicode="&#x168;" horiz-adv-x="649" 
d="M557 336c0 -98 5 -201 -31 -257c-36 -57 -97 -87 -202 -87c-113 0 -188 37 -217 112c-20 53 -15 176 -15 232v331h44v-331c0 -130 -4 -191 19 -232c24 -43 77 -70 169 -70s143 27 167 70c23 42 22 102 22 232v331h44v-331zM510 826l-53 -29c-40 -22 -85 -24 -122 -4
c-36 19 -65 45 -111 20l-65 -36l-20 31c55 31 110 76 181 38c35 -19 66 -43 111 -20l61 32z" />
    <glyph glyph-name="Udieresis" unicode="&#xdc;" horiz-adv-x="649" 
d="M557 336c0 -98 5 -201 -31 -257c-36 -57 -97 -87 -202 -87c-113 0 -188 37 -217 112c-20 53 -15 176 -15 232v331h44v-331c0 -130 -4 -191 19 -232c24 -43 77 -70 169 -70s143 27 167 70c23 42 22 102 22 232v331h44v-331zM467 828c0 -22 -10 -33 -33 -33s-32 11 -32 33
c0 23 10 31 32 31s33 -8 33 -31zM253 828c0 -22 -10 -33 -33 -33s-32 11 -32 33c0 23 10 31 32 31s33 -8 33 -31z" />
    <glyph glyph-name="Umacron" unicode="&#x16a;" horiz-adv-x="649" 
d="M557 336c0 -98 5 -201 -31 -257c-36 -57 -97 -87 -202 -87c-113 0 -188 37 -217 112c-20 53 -15 176 -15 232v331h44v-331c0 -130 -4 -191 19 -232c24 -43 77 -70 169 -70s143 27 167 70c23 42 22 102 22 232v331h44v-331zM484 807h-320v38h320v-38z" />
    <glyph glyph-name="Ubreve" unicode="&#x16c;" horiz-adv-x="649" 
d="M557 336c0 -98 5 -201 -31 -257c-36 -57 -97 -87 -202 -87c-113 0 -188 37 -217 112c-20 53 -15 176 -15 232v331h44v-331c0 -130 -4 -191 19 -232c24 -43 77 -70 169 -70s143 27 167 70c23 42 22 102 22 232v331h44v-331zM461 867c0 -50 -9 -82 -31 -103
s-59 -28 -106 -28s-85 10 -106 28c-24 21 -31 52 -31 103h41c0 -40 5 -64 19 -76c13 -11 41 -17 77 -17s64 6 77 17c14 12 20 36 20 76h40z" />
    <glyph glyph-name="Uring" unicode="&#x16e;" horiz-adv-x="649" 
d="M557 336c0 -98 5 -201 -31 -257c-36 -57 -97 -87 -202 -87c-113 0 -188 37 -217 112c-20 53 -15 176 -15 232v331h44v-331c0 -130 -4 -191 19 -232c24 -43 77 -70 169 -70s143 27 167 70c23 42 22 102 22 232v331h44v-331zM325 685c-82 0 -113 30 -113 111
c0 85 28 110 111 110c82 0 113 -30 113 -111c0 -85 -28 -110 -111 -110zM325 719c63 0 73 18 73 77c0 58 -14 76 -75 76c-63 0 -73 -18 -73 -77c0 -58 14 -76 75 -76z" />
    <glyph glyph-name="Uhungarumlaut" unicode="&#x170;" horiz-adv-x="649" 
d="M557 336c0 -98 5 -201 -31 -257c-36 -57 -97 -87 -202 -87c-113 0 -188 37 -217 112c-20 53 -15 176 -15 232v331h44v-331c0 -130 -4 -191 19 -232c24 -43 77 -70 169 -70s143 27 167 70c23 42 22 102 22 232v331h44v-331zM540 862l-126 -126h-53l127 126h52zM371 862
l-126 -126h-53l127 126h52z" />
    <glyph glyph-name="Uogonek" unicode="&#x172;" horiz-adv-x="649" 
d="M349 -7c-6 -1 -19 -1 -25 -1c-113 0 -188 37 -217 112c-20 53 -15 176 -15 232v331h44v-331c0 -130 -4 -191 19 -232c24 -43 77 -70 169 -70s143 27 167 70c23 42 22 102 22 232v331h44v-331c0 -98 5 -198 -31 -257c-59 -97 -193 -73 -193 -182c0 -48 33 -60 73 -60
c10 0 20 1 30 2v-31c-13 -2 -26 -3 -38 -3c-59 0 -103 25 -103 90c0 62 39 90 54 98z" />
    <glyph glyph-name="Wacute" unicode="&#x1e82;" horiz-adv-x="872" 
d="M822 667l-166 -667h-53l-167 609l-168 -609h-54l-164 667h45l148 -605l167 605h53l167 -605l149 605h43zM564 860l-133 -129h-51l130 129h54z" />
    <glyph glyph-name="Wgrave" unicode="&#x1e80;" horiz-adv-x="872" 
d="M822 667l-166 -667h-53l-167 609l-168 -609h-54l-164 667h45l148 -605l167 605h53l167 -605l149 605h43zM504 731h-51l-133 129h54z" />
    <glyph glyph-name="Wcircumflex" unicode="&#x174;" horiz-adv-x="872" 
d="M822 667l-166 -667h-53l-167 609l-168 -609h-54l-164 667h45l148 -605l167 605h53l167 -605l149 605h43zM591 731h-51l-101 100l-102 -100h-52l133 129h41z" />
    <glyph glyph-name="Wdieresis" unicode="&#x1e84;" horiz-adv-x="872" 
d="M822 667l-166 -667h-53l-167 609l-168 -609h-54l-164 667h45l148 -605l167 605h53l167 -605l149 605h43zM575 828c0 -22 -10 -33 -33 -33s-32 11 -32 33c0 23 10 31 32 31s33 -8 33 -31zM361 828c0 -22 -10 -33 -33 -33s-32 11 -32 33c0 23 10 31 32 31s33 -8 33 -31z
" />
    <glyph glyph-name="Yacute" unicode="&#xdd;" horiz-adv-x="521" 
d="M510 667l-229 -373v-294h-43v294l-227 373h49l202 -331l200 331h48zM393 867l-133 -129h-51l130 129h54z" />
    <glyph glyph-name="Ygrave" unicode="&#x1ef2;" horiz-adv-x="521" 
d="M510 667l-229 -373v-294h-43v294l-227 373h49l202 -331l200 331h48zM348 731h-51l-133 129h54z" />
    <glyph glyph-name="Ycircumflex" unicode="&#x176;" horiz-adv-x="521" 
d="M510 667l-229 -373v-294h-43v294l-227 373h49l202 -331l200 331h48zM415 731h-51l-101 100l-102 -100h-52l133 129h41z" />
    <glyph glyph-name="Ydieresis" unicode="&#x178;" horiz-adv-x="521" 
d="M510 667l-229 -373v-294h-43v294l-227 373h49l202 -331l200 331h48zM400 825c0 -22 -10 -33 -33 -33s-32 11 -32 33c0 23 10 31 32 31s33 -8 33 -31zM186 825c0 -22 -10 -33 -33 -33s-32 11 -32 33c0 23 10 31 32 31s33 -8 33 -31z" />
    <glyph glyph-name="Zacute" unicode="&#x179;" horiz-adv-x="598" 
d="M527 0h-456v41l406 586h-406v40h456v-41l-407 -586h407v-40zM391 860l-133 -129h-51l130 129h54z" />
    <glyph glyph-name="Zcaron" unicode="&#x17d;" horiz-adv-x="598" 
d="M527 0h-456v41l406 586h-406v40h456v-41l-407 -586h407v-40zM452 862l-133 -129h-41l-132 129h51l101 -100l102 100h52z" />
    <glyph glyph-name="Zdotaccent" unicode="&#x17b;" horiz-adv-x="598" 
d="M527 0h-456v41l406 586h-406v40h456v-41l-407 -586h407v-40zM332 828c0 -22 -10 -33 -33 -33s-32 11 -32 33c0 23 10 31 32 31s33 -8 33 -31z" />
    <glyph glyph-name="a" unicode="a" horiz-adv-x="531" 
d="M455 0h-40v75c-27 -55 -90 -82 -178 -82c-123 0 -179 41 -179 142c0 126 71 148 184 148h170c-1 105 11 162 -149 162c-71 0 -152 -9 -152 -98h-40c0 118 99 139 200 139c198 0 184 -98 184 -208v-278zM412 244h-174c-84 0 -137 -13 -137 -108c0 -74 35 -104 133 -104
c164 0 181 80 178 212z" />
    <glyph glyph-name="b" unicode="b" horiz-adv-x="552" 
d="M486 238c0 -148 -18 -245 -192 -245c-92 0 -142 33 -169 79v-72h-41v697h43v-288c31 52 84 77 167 77c175 0 192 -100 192 -248zM443 239c0 117 -7 205 -144 205c-129 0 -173 -48 -173 -205c0 -156 44 -205 173 -205c139 0 144 89 144 205z" />
    <glyph glyph-name="c" unicode="c" horiz-adv-x="515" 
d="M457 131c0 -113 -91 -138 -188 -138c-180 0 -203 84 -203 246c0 161 24 247 203 247c97 0 188 -27 188 -139h-40c0 84 -78 98 -147 98c-153 0 -161 -71 -161 -205c0 -133 8 -206 161 -206c70 0 147 12 147 97h40z" />
    <glyph glyph-name="d" unicode="d" horiz-adv-x="552" 
d="M468 0h-41v72c-30 -52 -86 -79 -169 -79c-177 0 -192 97 -192 246c0 144 16 247 192 247c84 0 136 -25 167 -77v288h43v-697zM426 238c0 158 -44 206 -173 206c-137 0 -144 -87 -144 -206c0 -116 5 -204 144 -204c129 0 173 47 173 204z" />
    <glyph glyph-name="e" unicode="e" horiz-adv-x="530" 
d="M464 235h-355c0 -132 11 -201 160 -201c69 0 147 13 147 97h40c0 -112 -92 -138 -188 -138c-178 0 -202 84 -202 245c0 157 22 248 199 248c180 0 199 -92 199 -251zM422 274c0 119 -32 172 -157 172c-123 0 -156 -55 -156 -172h313z" />
    <glyph glyph-name="f" unicode="f" horiz-adv-x="294" 
d="M270 704v-40h-17c-71 0 -106 -6 -106 -97v-89h123v-39h-123v-439h-43v439h-80v39h80v99c0 121 69 127 147 127h19z" />
    <glyph glyph-name="g" unicode="g" horiz-adv-x="551" 
d="M467 43c0 -72 -4 -111 -21 -148c-31 -66 -101 -89 -184 -89c-113 0 -184 40 -185 138h41c0 -67 49 -98 141 -98c66 0 124 15 148 66s15 110 17 165c-31 -52 -84 -78 -167 -78c-177 0 -191 96 -191 245c0 135 10 242 190 242c84 0 139 -26 170 -78v70h41v-435zM425 243
c0 154 -44 202 -173 202c-139 0 -143 -87 -143 -202c0 -116 5 -202 143 -202c128 0 173 46 173 202z" />
    <glyph glyph-name="h" unicode="h" horiz-adv-x="536" 
d="M460 0h-43v247c0 94 1 139 -31 169c-22 21 -56 29 -101 29c-165 0 -158 -123 -158 -233v-212h-43v697h43v-289c34 62 96 78 159 78s107 -14 134 -41c43 -44 40 -99 40 -190v-255z" />
    <glyph glyph-name="i" unicode="i" horiz-adv-x="211" 
d="M138 643c0 -21 -11 -33 -32 -33c-22 0 -32 12 -32 33s10 31 32 31s32 -10 32 -31zM127 0h-43v478h43v-478z" />
    <glyph glyph-name="j" unicode="j" horiz-adv-x="211" 
d="M138 643c0 -21 -11 -33 -32 -33c-22 0 -32 12 -32 33s10 31 32 31s32 -10 32 -31zM-39 -190v40h15c75 0 108 18 108 99v529h43v-525c0 -103 -40 -143 -147 -143h-19z" />
    <glyph glyph-name="k" unicode="k" horiz-adv-x="464" 
d="M445 0h-60l-258 242v-242h-43v697h43v-425l255 206h60l-274 -221z" />
    <glyph glyph-name="l" unicode="l" horiz-adv-x="223" 
d="M187 34v-38h-16c-82 0 -87 45 -87 130v571h43v-564c0 -81 3 -99 53 -99h7z" />
    <glyph glyph-name="m" unicode="m" horiz-adv-x="807" 
d="M731 0h-43v291c0 97 -4 153 -117 153c-147 0 -142 -120 -142 -234v-210h-43v291c0 96 -6 154 -117 154c-150 0 -142 -127 -142 -235v-210h-43v478h41v-68c29 56 89 76 148 76c65 0 125 -20 145 -87c31 66 97 87 156 87c169 0 157 -123 157 -197v-289z" />
    <glyph glyph-name="n" unicode="n" horiz-adv-x="536" 
d="M460 0h-43v247c0 94 1 139 -31 169c-22 21 -56 29 -101 29c-165 0 -158 -123 -158 -233v-212h-43v478h41v-72c33 62 97 80 161 80s107 -14 134 -41c43 -43 40 -99 40 -190v-255z" />
    <glyph glyph-name="o" unicode="o" horiz-adv-x="542" 
d="M476 239c0 -143 -14 -246 -205 -246c-192 0 -205 103 -205 246s13 247 205 247c191 0 205 -104 205 -247zM433 239c0 134 -9 206 -162 206s-162 -72 -162 -206s9 -205 162 -205s162 71 162 205z" />
    <glyph glyph-name="p" unicode="p" horiz-adv-x="552" 
d="M486 239c0 -148 -16 -246 -192 -246c-84 0 -136 25 -167 77v-261h-43v669h41v-72c30 52 85 80 169 80c175 0 192 -99 192 -247zM443 240c0 115 -5 204 -144 204c-129 0 -173 -47 -173 -204c0 -158 44 -206 173 -206c139 0 144 91 144 206z" />
    <glyph glyph-name="q" unicode="q" horiz-adv-x="552" 
d="M468 -191h-43v261c-31 -52 -85 -77 -168 -77c-177 0 -191 99 -191 247c0 147 16 246 191 246c84 0 138 -26 169 -78v70h42v-669zM426 239c0 157 -45 205 -174 205c-139 0 -143 -90 -143 -205c0 -116 4 -205 143 -205c129 0 174 47 174 205z" />
    <glyph glyph-name="r" unicode="r" horiz-adv-x="433" 
d="M421 349h-40c0 75 -42 96 -112 96c-150 0 -142 -131 -142 -238v-207h-43v478h41v-70c34 63 92 78 148 78c92 0 148 -41 148 -137z" />
    <glyph glyph-name="s" unicode="s" horiz-adv-x="501" 
d="M441 135c0 -104 -64 -143 -196 -142s-185 34 -185 138h40c0 -75 33 -98 144 -98c109 0 154 26 154 100c0 62 -18 79 -98 86c-132 12 -233 -12 -233 129c0 105 62 139 195 138c71 0 119 -12 147 -41c20 -21 31 -53 31 -96h-41c0 67 -31 97 -136 97
c-111 0 -152 -24 -153 -90c-1 -73 23 -82 94 -89c130 -13 237 12 237 -132z" />
    <glyph glyph-name="t" unicode="t" horiz-adv-x="284" 
d="M274 36v-40h-9c-107 0 -157 38 -157 137v306h-80v39h80v189h43v-189h123v-39h-123v-306c0 -81 41 -97 116 -97h7z" />
    <glyph glyph-name="u" unicode="u" horiz-adv-x="536" 
d="M452 0h-41v72c-34 -62 -98 -80 -161 -80c-64 0 -107 14 -134 41c-43 43 -40 99 -40 190v255h43v-247c0 -94 -1 -139 31 -169c22 -21 56 -29 101 -29c165 0 158 123 158 233v212h43v-478z" />
    <glyph glyph-name="v" unicode="v" horiz-adv-x="457" 
d="M436 478l-183 -478h-48l-184 478h45l164 -429l161 429h45z" />
    <glyph glyph-name="w" unicode="w" horiz-adv-x="693" 
d="M664 478l-142 -478h-50l-125 425l-126 -425h-50l-142 478h45l123 -423l126 423h48l127 -423l122 423h44z" />
    <glyph glyph-name="x" unicode="x" horiz-adv-x="457" 
d="M428 0h-52l-148 208l-148 -208h-51l174 242l-170 236h52l144 -203l146 203h50l-171 -235z" />
    <glyph glyph-name="y" unicode="y" horiz-adv-x="536" 
d="M410 68c-34 -58 -97 -76 -160 -76c-64 0 -107 14 -134 41c-43 43 -40 99 -40 190v255h43v-247c0 -94 -1 -139 31 -169c22 -21 56 -29 101 -29c165 0 158 123 158 233v212h43v-435c0 -72 -4 -111 -21 -148c-30 -64 -102 -89 -175 -89c-113 0 -176 40 -176 138h41
c0 -67 40 -98 132 -98c56 0 115 16 139 66c18 38 18 81 18 156z" />
    <glyph glyph-name="z" unicode="z" horiz-adv-x="400" 
d="M390 0h-366v38l312 401h-312v39h366v-36l-311 -401h311v-41z" />
    <glyph glyph-name="aacute" unicode="&#xe1;" horiz-adv-x="531" 
d="M455 0h-40v75c-27 -55 -90 -82 -178 -82c-123 0 -179 41 -179 142c0 126 71 148 184 148h170c-1 105 11 162 -149 162c-71 0 -152 -9 -152 -98h-40c0 118 99 139 200 139c198 0 184 -98 184 -208v-278zM412 244h-174c-84 0 -137 -13 -137 -108c0 -74 35 -104 133 -104
c164 0 181 80 178 212zM363 667l-133 -129h-51l130 129h54z" />
    <glyph glyph-name="agrave" unicode="&#xe0;" horiz-adv-x="531" 
d="M455 0h-40v75c-27 -55 -90 -82 -178 -82c-123 0 -179 41 -179 142c0 126 71 148 184 148h170c-1 105 11 162 -149 162c-71 0 -152 -9 -152 -98h-40c0 118 99 139 200 139c198 0 184 -98 184 -208v-278zM412 244h-174c-84 0 -137 -13 -137 -108c0 -74 35 -104 133 -104
c164 0 181 80 178 212zM353 538h-51l-133 129h54z" />
    <glyph glyph-name="acircumflex" unicode="&#xe2;" horiz-adv-x="531" 
d="M455 0h-40v75c-27 -55 -90 -82 -178 -82c-123 0 -179 41 -179 142c0 126 71 148 184 148h170c-1 105 11 162 -149 162c-71 0 -152 -9 -152 -98h-40c0 118 99 139 200 139c198 0 184 -98 184 -208v-278zM412 244h-174c-84 0 -137 -13 -137 -108c0 -74 35 -104 133 -104
c164 0 181 80 178 212zM418 538h-51l-101 100l-102 -100h-52l133 129h41z" />
    <glyph glyph-name="atilde" unicode="&#xe3;" horiz-adv-x="531" 
d="M455 0h-40v75c-27 -55 -90 -82 -178 -82c-123 0 -179 41 -179 142c0 126 71 148 184 148h170c-1 105 11 162 -149 162c-71 0 -152 -9 -152 -98h-40c0 118 99 139 200 139c198 0 184 -98 184 -208v-278zM412 244h-174c-84 0 -137 -13 -137 -108c0 -74 35 -104 133 -104
c164 0 181 80 178 212zM449 635l-53 -29c-40 -22 -85 -24 -122 -4c-36 19 -65 45 -111 20l-65 -36l-20 31c55 31 110 76 181 38c35 -19 66 -43 111 -20l61 32z" />
    <glyph glyph-name="adieresis" unicode="&#xe4;" horiz-adv-x="531" 
d="M455 0h-40v75c-27 -55 -90 -82 -178 -82c-123 0 -179 41 -179 142c0 126 71 148 184 148h170c-1 105 11 162 -149 162c-71 0 -152 -9 -152 -98h-40c0 118 99 139 200 139c198 0 184 -98 184 -208v-278zM412 244h-174c-84 0 -137 -13 -137 -108c0 -74 35 -104 133 -104
c164 0 181 80 178 212zM405 636c0 -22 -10 -33 -33 -33s-32 11 -32 33c0 23 10 31 32 31s33 -8 33 -31zM191 636c0 -22 -10 -33 -33 -33s-32 11 -32 33c0 23 10 31 32 31s33 -8 33 -31z" />
    <glyph glyph-name="amacron" unicode="&#x101;" horiz-adv-x="531" 
d="M455 0h-40v75c-27 -55 -90 -82 -178 -82c-123 0 -179 41 -179 142c0 126 71 148 184 148h170c-1 105 11 162 -149 162c-71 0 -152 -9 -152 -98h-40c0 118 99 139 200 139c198 0 184 -98 184 -208v-278zM412 244h-174c-84 0 -137 -13 -137 -108c0 -74 35 -104 133 -104
c164 0 181 80 178 212zM427 617h-320v38h320v-38z" />
    <glyph glyph-name="abreve" unicode="&#x103;" horiz-adv-x="531" 
d="M455 0h-40v75c-27 -55 -90 -82 -178 -82c-123 0 -179 41 -179 142c0 126 71 148 184 148h170c-1 105 11 162 -149 162c-71 0 -152 -9 -152 -98h-40c0 118 99 139 200 139c198 0 184 -98 184 -208v-278zM412 244h-174c-84 0 -137 -13 -137 -108c0 -74 35 -104 133 -104
c164 0 181 80 178 212zM402 667c0 -50 -9 -82 -31 -103s-59 -28 -106 -28s-85 10 -106 28c-24 21 -31 52 -31 103h41c0 -40 5 -64 19 -76c13 -11 41 -17 77 -17s64 6 77 17c14 12 20 36 20 76h40z" />
    <glyph glyph-name="aring" unicode="&#xe5;" horiz-adv-x="531" 
d="M455 0h-40v75c-27 -55 -90 -82 -178 -82c-123 0 -179 41 -179 142c0 126 71 148 184 148h170c-1 105 11 162 -149 162c-71 0 -152 -9 -152 -98h-40c0 84 50 119 115 132c-25 13 -29 43 -29 79c0 81 32 107 111 107s113 -25 113 -107c0 -36 -7 -67 -30 -79
c114 -25 104 -109 104 -201v-278zM343 556c0 59 -14 78 -75 78c-62 0 -74 -19 -74 -78c0 -60 15 -73 75 -73s74 14 74 73zM412 244h-174c-84 0 -137 -13 -137 -108c0 -74 35 -104 133 -104c164 0 181 80 178 212z" />
    <glyph glyph-name="aringacute" unicode="&#x1fb;" horiz-adv-x="531" 
d="M455 0h-40v75c-27 -55 -90 -82 -178 -82c-123 0 -179 41 -179 142c0 126 71 148 184 148h170c-1 105 11 162 -149 162c-71 0 -152 -9 -152 -98h-40c0 84 50 119 115 132c-25 13 -29 43 -29 79c0 81 32 107 111 107s113 -25 113 -107c0 -36 -7 -67 -30 -79
c114 -25 104 -109 104 -201v-278zM343 556c0 59 -14 78 -75 78c-62 0 -74 -19 -74 -78c0 -60 15 -73 75 -73s74 14 74 73zM412 244h-174c-84 0 -137 -13 -137 -108c0 -74 35 -104 133 -104c164 0 181 80 178 212zM357 846l-133 -129h-51l130 129h54z" />
    <glyph glyph-name="aogonek" unicode="&#x105;" horiz-adv-x="531" 
d="M415 15v60c-27 -55 -90 -82 -178 -82c-123 0 -179 41 -179 142c0 126 71 148 184 148h170c-1 105 11 162 -149 162c-71 0 -152 -9 -152 -98h-40c0 118 99 139 200 139c198 0 184 -98 184 -208v-278c-67 -24 -93 -57 -93 -103c0 -48 35 -61 75 -61c10 0 20 1 30 2v-30
c-13 -2 -26 -3 -38 -3c-59 0 -103 25 -103 90c0 62 39 99 89 120zM412 244h-174c-84 0 -137 -13 -137 -108c0 -74 35 -104 133 -104c164 0 181 80 178 212z" />
    <glyph glyph-name="ae" unicode="&#xe6;" horiz-adv-x="877" 
d="M811 241h-355c0 -134 9 -207 161 -207c69 0 147 13 147 97h40c0 -112 -92 -138 -188 -138c-77 0 -163 19 -183 103c-26 -81 -120 -103 -195 -103c-123 0 -180 38 -180 139c0 124 73 149 185 149h171c0 111 3 164 -151 164c-71 0 -152 -9 -152 -98h-40
c0 118 99 139 200 139c61 0 148 -13 171 -81c30 65 106 81 171 81c160 0 198 -69 198 -221v-24zM769 281c0 121 -32 165 -156 165c-122 0 -156 -48 -156 -165h312zM414 242h-175c-83 0 -138 -15 -138 -109c0 -74 36 -101 134 -101c167 0 179 81 179 210z" />
    <glyph glyph-name="aeacute" unicode="&#x1fd;" horiz-adv-x="877" 
d="M811 241h-355c0 -134 9 -207 161 -207c69 0 147 13 147 97h40c0 -112 -92 -138 -188 -138c-77 0 -163 19 -183 103c-26 -81 -120 -103 -195 -103c-123 0 -180 38 -180 139c0 124 73 149 185 149h171c0 111 3 164 -151 164c-71 0 -152 -9 -152 -98h-40
c0 118 99 139 200 139c61 0 148 -13 171 -81c30 65 106 81 171 81c160 0 198 -69 198 -221v-24zM769 281c0 121 -32 165 -156 165c-122 0 -156 -48 -156 -165h312zM414 242h-175c-83 0 -138 -15 -138 -109c0 -74 36 -101 134 -101c167 0 179 81 179 210zM552 667l-133 -129
h-51l130 129h54z" />
    <glyph glyph-name="cacute" unicode="&#x107;" horiz-adv-x="515" 
d="M457 131c0 -113 -91 -138 -188 -138c-180 0 -203 84 -203 246c0 161 24 247 203 247c97 0 188 -27 188 -139h-40c0 84 -78 98 -147 98c-153 0 -161 -71 -161 -205c0 -133 8 -206 161 -206c70 0 147 12 147 97h40zM358 667l-133 -129h-51l130 129h54z" />
    <glyph glyph-name="ccircumflex" unicode="&#x109;" horiz-adv-x="515" 
d="M457 131c0 -113 -91 -138 -188 -138c-180 0 -203 84 -203 246c0 161 24 247 203 247c97 0 188 -27 188 -139h-40c0 84 -78 98 -147 98c-153 0 -161 -71 -161 -205c0 -133 8 -206 161 -206c70 0 147 12 147 97h40zM422 538h-51l-101 100l-102 -100h-52l133 129h41z" />
    <glyph glyph-name="ccaron" unicode="&#x10d;" horiz-adv-x="515" 
d="M457 131c0 -113 -91 -138 -188 -138c-180 0 -203 84 -203 246c0 161 24 247 203 247c97 0 188 -27 188 -139h-40c0 84 -78 98 -147 98c-153 0 -161 -71 -161 -205c0 -133 8 -206 161 -206c70 0 147 12 147 97h40zM423 667l-133 -129h-41l-132 129h51l101 -100l102 100h52
z" />
    <glyph glyph-name="cdotaccent" unicode="&#x10b;" horiz-adv-x="515" 
d="M457 131c0 -113 -91 -138 -188 -138c-180 0 -203 84 -203 246c0 161 24 247 203 247c97 0 188 -27 188 -139h-40c0 84 -78 98 -147 98c-153 0 -161 -71 -161 -205c0 -133 8 -206 161 -206c70 0 147 12 147 97h40zM302 636c0 -22 -10 -33 -33 -33s-32 11 -32 33
c0 23 10 31 32 31s33 -8 33 -31z" />
    <glyph glyph-name="ccedilla" unicode="&#xe7;" horiz-adv-x="515" 
d="M457 131c0 -107 -82 -135 -173 -138v-40c45 0 65 -25 65 -67c0 -49 -20 -73 -76 -73c-55 0 -76 17 -76 61h33c0 -27 12 -32 43 -32c37 0 41 15 41 43c0 45 -33 40 -65 41v67c-162 6 -183 90 -183 246c0 161 24 247 203 247c97 0 188 -27 188 -139h-40
c0 84 -78 98 -147 98c-153 0 -161 -71 -161 -205c0 -133 8 -207 161 -207c70 0 147 13 147 98h40z" />
    <glyph glyph-name="dcaron" unicode="&#x10f;" horiz-adv-x="605" 
d="M468 0h-41v72c-30 -52 -86 -79 -169 -79c-177 0 -192 97 -192 246c0 144 16 247 192 247c84 0 136 -25 167 -77v288h43v-697zM426 238c0 158 -44 206 -173 206c-137 0 -144 -87 -144 -206c0 -116 5 -204 144 -204c129 0 173 47 173 204zM605 664c0 -45 -5 -63 -36 -92
l-32 -30l-29 29c15 13 34 31 34 31c19 17 21 27 21 61v34h42v-33z" />
    <glyph glyph-name="dcroat" unicode="&#x111;" horiz-adv-x="552" 
d="M468 0h-41v72c-30 -52 -86 -79 -169 -79c-177 0 -192 97 -192 246c0 144 16 247 192 247c84 0 136 -25 167 -77v140h-169v36h169v112h43v-112h78v-36h-78v-549zM426 238c0 158 -44 206 -173 206c-137 0 -144 -87 -144 -206c0 -116 5 -204 144 -204c129 0 173 47 173 204z
" />
    <glyph glyph-name="eth" unicode="&#xf0;" horiz-adv-x="540" 
d="M474 239c1 -160 -26 -246 -204 -246c-180 0 -204 85 -204 246c0 142 18 248 189 247c29 0 54 -3 73 -8l-121 120l-61 -53l-24 28l60 51l-56 56l29 26l57 -57l61 53l24 -28l-59 -51l148 -151c73 -74 87 -114 88 -233zM431 239c0 153 -48 205 -175 206
c-140 1 -148 -89 -148 -206c0 -135 8 -206 162 -206c152 0 161 72 161 206z" />
    <glyph glyph-name="eacute" unicode="&#xe9;" horiz-adv-x="530" 
d="M464 235h-355c0 -132 11 -201 160 -201c69 0 147 13 147 97h40c0 -112 -92 -138 -188 -138c-178 0 -202 84 -202 245c0 157 22 248 199 248c180 0 199 -92 199 -251zM422 274c0 119 -32 172 -157 172c-123 0 -156 -55 -156 -172h313zM362 667l-133 -129h-51l130 129h54z
" />
    <glyph glyph-name="egrave" unicode="&#xe8;" horiz-adv-x="530" 
d="M464 235h-355c0 -132 11 -201 160 -201c69 0 147 13 147 97h40c0 -112 -92 -138 -188 -138c-178 0 -202 84 -202 245c0 157 22 248 199 248c180 0 199 -92 199 -251zM422 274c0 119 -32 172 -157 172c-123 0 -156 -55 -156 -172h313zM352 538h-51l-133 129h54z" />
    <glyph glyph-name="ecircumflex" unicode="&#xea;" horiz-adv-x="530" 
d="M464 235h-355c0 -132 11 -201 160 -201c69 0 147 13 147 97h40c0 -112 -92 -138 -188 -138c-178 0 -202 84 -202 245c0 157 22 248 199 248c180 0 199 -92 199 -251zM422 274c0 119 -32 172 -157 172c-123 0 -156 -55 -156 -172h313zM416 538h-51l-101 100l-102 -100h-52
l133 129h41z" />
    <glyph glyph-name="ecaron" unicode="&#x11b;" horiz-adv-x="530" 
d="M464 235h-355c0 -132 11 -201 160 -201c69 0 147 13 147 97h40c0 -112 -92 -138 -188 -138c-178 0 -202 84 -202 245c0 157 22 248 199 248c180 0 199 -92 199 -251zM422 274c0 119 -32 172 -157 172c-123 0 -156 -55 -156 -172h313zM418 667l-133 -129h-41l-132 129h51
l101 -100l102 100h52z" />
    <glyph glyph-name="edieresis" unicode="&#xeb;" horiz-adv-x="530" 
d="M464 235h-355c0 -132 11 -201 160 -201c69 0 147 13 147 97h40c0 -112 -92 -138 -188 -138c-178 0 -202 84 -202 245c0 157 22 248 199 248c180 0 199 -92 199 -251zM422 274c0 119 -32 172 -157 172c-123 0 -156 -55 -156 -172h313zM405 636c0 -22 -10 -33 -33 -33
s-32 11 -32 33c0 23 10 31 32 31s33 -8 33 -31zM191 636c0 -22 -10 -33 -33 -33s-32 11 -32 33c0 23 10 31 32 31s33 -8 33 -31z" />
    <glyph glyph-name="emacron" unicode="&#x113;" horiz-adv-x="530" 
d="M464 235h-355c0 -132 11 -201 160 -201c69 0 147 13 147 97h40c0 -112 -92 -138 -188 -138c-178 0 -202 84 -202 245c0 157 22 248 199 248c180 0 199 -92 199 -251zM422 274c0 119 -32 172 -157 172c-123 0 -156 -55 -156 -172h313zM425 617h-320v38h320v-38z" />
    <glyph glyph-name="ebreve" unicode="&#x115;" horiz-adv-x="530" 
d="M464 235h-355c0 -132 11 -201 160 -201c69 0 147 13 147 97h40c0 -112 -92 -138 -188 -138c-178 0 -202 84 -202 245c0 157 22 248 199 248c180 0 199 -92 199 -251zM422 274c0 119 -32 172 -157 172c-123 0 -156 -55 -156 -172h313zM402 667c0 -50 -9 -82 -31 -103
s-59 -28 -106 -28s-85 10 -106 28c-24 21 -31 52 -31 103h41c0 -40 5 -64 19 -76c13 -11 41 -17 77 -17s64 6 77 17c14 12 20 36 20 76h40z" />
    <glyph glyph-name="edotaccent" unicode="&#x117;" horiz-adv-x="530" 
d="M464 235h-355c0 -132 11 -201 160 -201c69 0 147 13 147 97h40c0 -112 -92 -138 -188 -138c-178 0 -202 84 -202 245c0 157 22 248 199 248c180 0 199 -92 199 -251zM422 274c0 119 -32 172 -157 172c-123 0 -156 -55 -156 -172h313zM298 636c0 -22 -10 -33 -33 -33
s-32 11 -32 33c0 23 10 31 32 31s33 -8 33 -31z" />
    <glyph glyph-name="eogonek" unicode="&#x119;" horiz-adv-x="530" 
d="M464 235h-355c0 -132 11 -201 160 -201c69 0 147 13 147 97h40c0 -162 -184 -108 -184 -234c0 -48 35 -61 75 -61c10 0 20 1 30 2v-30c-13 -2 -26 -3 -38 -3c-59 0 -103 25 -103 90c0 45 21 80 54 99c-7 -1 -22 -1 -22 -1c-178 0 -202 84 -202 245c0 157 22 248 199 248
c180 0 199 -92 199 -251zM422 274c0 119 -32 172 -157 172c-123 0 -156 -55 -156 -172h313z" />
    <glyph glyph-name="gcircumflex" unicode="&#x11d;" horiz-adv-x="551" 
d="M467 43c0 -72 -4 -111 -21 -148c-31 -66 -101 -89 -184 -89c-113 0 -184 40 -185 138h41c0 -67 49 -98 141 -98c66 0 124 15 148 66s15 110 17 165c-31 -52 -84 -78 -167 -78c-177 0 -191 96 -191 245c0 135 10 242 190 242c84 0 139 -26 170 -78v70h41v-435zM425 243
c0 154 -44 202 -173 202c-139 0 -143 -87 -143 -202c0 -116 5 -202 143 -202c128 0 173 46 173 202zM421 538h-51l-101 100l-102 -100h-52l133 129h41z" />
    <glyph glyph-name="gbreve" unicode="&#x11f;" horiz-adv-x="551" 
d="M467 43c0 -72 -4 -111 -21 -148c-31 -66 -101 -89 -184 -89c-113 0 -184 40 -185 138h41c0 -67 49 -98 141 -98c66 0 124 15 148 66s15 110 17 165c-31 -52 -84 -78 -167 -78c-177 0 -191 96 -191 245c0 135 10 242 190 242c84 0 139 -26 170 -78v70h41v-435zM425 243
c0 154 -44 202 -173 202c-139 0 -143 -87 -143 -202c0 -116 5 -202 143 -202c128 0 173 46 173 202zM404 667c0 -50 -9 -82 -31 -103s-59 -28 -106 -28s-85 10 -106 28c-24 21 -31 52 -31 103h41c0 -40 5 -64 19 -76c13 -11 41 -17 77 -17s64 6 77 17c14 12 20 36 20 76h40z
" />
    <glyph glyph-name="gdotaccent" unicode="&#x121;" horiz-adv-x="551" 
d="M467 43c0 -72 -4 -111 -21 -148c-31 -66 -101 -89 -184 -89c-113 0 -184 40 -185 138h41c0 -67 49 -98 141 -98c66 0 124 15 148 66s15 110 17 165c-31 -52 -84 -78 -167 -78c-177 0 -191 96 -191 245c0 135 10 242 190 242c84 0 139 -26 170 -78v70h41v-435zM425 243
c0 154 -44 202 -173 202c-139 0 -143 -87 -143 -202c0 -116 5 -202 143 -202c128 0 173 46 173 202zM301 636c0 -22 -10 -33 -33 -33s-32 11 -32 33c0 23 10 31 32 31s33 -8 33 -31z" />
    <glyph glyph-name="gcommaaccent" unicode="&#x123;" horiz-adv-x="551" 
d="M467 43c0 -72 -4 -111 -21 -148c-31 -66 -101 -89 -184 -89c-113 0 -184 40 -185 138h41c0 -67 49 -98 141 -98c66 0 124 15 148 66s15 110 17 165c-31 -52 -84 -78 -167 -78c-177 0 -191 96 -191 245c0 135 10 242 190 242c84 0 139 -26 170 -78v70h41v-435zM425 243
c0 154 -44 202 -173 202c-139 0 -143 -87 -143 -202c0 -116 5 -202 143 -202c128 0 173 46 173 202zM233 574c0 45 5 63 36 92l32 30l29 -29c-15 -13 -34 -31 -34 -31c-19 -17 -21 -27 -21 -61v-34h-42v33z" />
    <glyph glyph-name="hcircumflex" unicode="&#x125;" horiz-adv-x="536" 
d="M258 757h-51l-101 100l-102 -100h-52l133 129h41zM460 0h-43v247c0 94 1 139 -31 169c-22 21 -56 29 -101 29c-165 0 -158 -123 -158 -233v-212h-43v697h43v-289c34 62 96 78 159 78s107 -14 134 -41c43 -44 40 -99 40 -190v-255z" />
    <glyph glyph-name="hbar" unicode="&#x127;" horiz-adv-x="536" 
d="M296 549h-169v-141c34 62 96 78 159 78s107 -14 134 -41c43 -44 40 -99 40 -190v-255h-43v247c0 94 1 139 -31 169c-22 21 -56 29 -101 29c-165 0 -158 -123 -158 -233v-212h-43v549h-78v36h78v112h43v-112h169v-36z" />
    <glyph glyph-name="iacute" unicode="&#xed;" horiz-adv-x="211" 
d="M127 0h-43v478h43v-478zM197 667l-133 -129h-51l130 129h54z" />
    <glyph glyph-name="igrave" unicode="&#xec;" horiz-adv-x="211" 
d="M127 0h-43v478h43v-478zM198 538h-51l-133 129h54z" />
    <glyph glyph-name="icircumflex" unicode="&#xee;" horiz-adv-x="211" 
d="M127 0h-43v478h43v-478zM258 538h-51l-101 100l-102 -100h-52l133 129h41z" />
    <glyph glyph-name="itilde" unicode="&#x129;" horiz-adv-x="211" 
d="M127 0h-43v478h43v-478zM291 635l-53 -29c-40 -22 -85 -24 -122 -4c-36 19 -65 45 -111 20l-65 -36l-20 31c55 31 110 76 181 38c35 -19 66 -43 111 -20l61 32z" />
    <glyph glyph-name="idieresis" unicode="&#xef;" horiz-adv-x="211" 
d="M127 0h-43v478h43v-478zM245 636c0 -22 -10 -33 -33 -33s-32 11 -32 33c0 23 10 31 32 31s33 -8 33 -31zM31 636c0 -22 -10 -33 -33 -33s-32 11 -32 33c0 23 10 31 32 31s33 -8 33 -31z" />
    <glyph glyph-name="imacron" unicode="&#x12b;" horiz-adv-x="211" 
d="M127 0h-43v478h43v-478zM266 617h-320v38h320v-38z" />
    <glyph glyph-name="ibreve" unicode="&#x12d;" horiz-adv-x="211" 
d="M127 0h-43v478h43v-478zM243 667c0 -50 -9 -82 -31 -103s-59 -28 -106 -28s-85 10 -106 28c-24 21 -31 52 -31 103h41c0 -40 5 -64 19 -76c13 -11 41 -17 77 -17s64 6 77 17c14 12 20 36 20 76h40z" />
    <glyph glyph-name="iogonek" unicode="&#x12f;" horiz-adv-x="211" 
d="M127 0c-67 -24 -93 -57 -93 -103c0 -48 35 -61 75 -61c10 0 20 1 30 2v-30c-13 -2 -26 -3 -38 -3c-59 0 -103 25 -103 90c0 61 37 97 86 119v464h43v-478zM138 643c0 -21 -11 -33 -32 -33c-22 0 -32 12 -32 33s10 31 32 31s32 -10 32 -31z" />
    <glyph glyph-name="dotlessi" unicode="&#x131;" horiz-adv-x="211" 
d="M127 0h-43v478h43v-478z" />
    <glyph glyph-name="jcircumflex" unicode="&#x135;" horiz-adv-x="211" 
d="M258 538h-51l-101 100l-102 -100h-52l133 129h41zM-39 -190v40h15c75 0 108 18 108 99v529h43v-525c0 -103 -40 -143 -147 -143h-19z" />
    <glyph glyph-name="kcommaaccent" unicode="&#x137;" horiz-adv-x="464" 
d="M445 0h-60l-258 242v-242h-43v697h43v-425l255 206h60l-274 -221zM286 -77c0 -45 -5 -63 -36 -92l-32 -30l-29 29c15 13 34 31 34 31c19 17 21 27 21 61v34h42v-33z" />
    <glyph glyph-name="lacute" unicode="&#x13a;" horiz-adv-x="278" 
d="M268 862l-133 -129h-51l130 129h54zM187 34v-38h-16c-82 0 -87 45 -87 130v571h43v-564c0 -81 3 -99 53 -99h7z" />
    <glyph glyph-name="lcaron" unicode="&#x13e;" horiz-adv-x="265" 
d="M265 664c0 -45 -5 -63 -36 -92l-32 -30l-29 29c15 13 34 31 34 31c19 17 21 27 21 61v34h42v-33zM187 34v-38h-16c-82 0 -87 45 -87 130v571h43v-564c0 -81 3 -99 53 -99h7z" />
    <glyph glyph-name="lcommaaccent" unicode="&#x13c;" horiz-adv-x="211" 
d="M148 -77c0 -45 -5 -63 -36 -92l-32 -30l-29 29c15 13 34 31 34 31c19 17 21 27 21 61v34h42v-33zM187 34v-38h-16c-82 0 -87 45 -87 130v571h43v-564c0 -81 3 -99 53 -99h7z" />
    <glyph glyph-name="lslash" unicode="&#x142;" horiz-adv-x="211" 
d="M187 34v-38h-9c-80 0 -94 28 -94 127v182l-68 -71l-27 26l95 100v337h43v-300l69 71l26 -26l-95 -100v-209c0 -81 3 -99 53 -99h7z" />
    <glyph glyph-name="ldot" unicode="&#x140;" horiz-adv-x="276" 
d="M276 343c0 -22 -10 -33 -33 -33s-32 11 -32 33c0 23 10 31 32 31s33 -8 33 -31zM187 34v-38h-16c-82 0 -87 45 -87 130v571h43v-564c0 -81 3 -99 53 -99h7z" />
    <glyph glyph-name="nacute" unicode="&#x144;" horiz-adv-x="536" 
d="M460 0h-43v247c0 94 1 139 -31 169c-22 21 -56 29 -101 29c-165 0 -158 -123 -158 -233v-212h-43v478h41v-72c33 62 97 80 161 80s107 -14 134 -41c43 -43 40 -99 40 -190v-255zM363 667l-133 -129h-51l130 129h54z" />
    <glyph glyph-name="ncaron" unicode="&#x148;" horiz-adv-x="536" 
d="M460 0h-43v247c0 94 1 139 -31 169c-22 21 -56 29 -101 29c-165 0 -158 -123 -158 -233v-212h-43v478h41v-72c33 62 97 80 161 80s107 -14 134 -41c43 -43 40 -99 40 -190v-255zM425 667l-133 -129h-41l-132 129h51l101 -100l102 100h52z" />
    <glyph glyph-name="ntilde" unicode="&#xf1;" horiz-adv-x="536" 
d="M461 0h-43v247c0 94 1 139 -31 169c-22 21 -56 29 -101 29c-165 0 -158 -123 -158 -233v-212h-43v478h41v-72c33 62 97 80 161 80s107 -14 134 -41c43 -43 40 -99 40 -190v-255zM455 635l-53 -29c-40 -22 -85 -24 -122 -4c-36 19 -65 45 -111 20l-65 -36l-20 31
c55 31 110 76 181 38c35 -19 66 -43 111 -20l61 32z" />
    <glyph glyph-name="ncommaaccent" unicode="&#x146;" horiz-adv-x="536" 
d="M460 0h-43v247c0 94 1 139 -31 169c-22 21 -56 29 -101 29c-165 0 -158 -123 -158 -233v-212h-43v478h41v-72c33 62 97 80 161 80s107 -14 134 -41c43 -43 40 -99 40 -190v-255zM293 -77c0 -45 -5 -63 -36 -92l-32 -30l-29 29c15 13 34 31 34 31c19 17 21 27 21 61v34h42
v-33z" />
    <glyph glyph-name="eng" unicode="&#x14b;" horiz-adv-x="536" 
d="M298 -194c-12 0 -25 1 -38 3v38c10 -1 27 -2 37 -2c48 0 79 15 98 34s22 49 22 81v40v247c0 94 1 139 -31 169c-22 21 -56 29 -101 29c-165 0 -158 -123 -158 -233v-212h-43v478h41v-72c33 62 97 80 161 80s107 -14 134 -41c43 -43 40 -99 40 -190v-255v-51
c0 -102 -65 -143 -162 -143z" />
    <glyph glyph-name="oacute" unicode="&#xf3;" horiz-adv-x="542" 
d="M476 239c0 -143 -14 -246 -205 -246c-192 0 -205 103 -205 246s13 247 205 247c191 0 205 -104 205 -247zM433 239c0 134 -9 206 -162 206s-162 -72 -162 -206s9 -205 162 -205s162 71 162 205zM358 667l-133 -129h-51l130 129h54z" />
    <glyph glyph-name="ograve" unicode="&#xf2;" horiz-adv-x="542" 
d="M476 239c0 -143 -14 -246 -205 -246c-192 0 -205 103 -205 246s13 247 205 247c191 0 205 -104 205 -247zM433 239c0 134 -9 206 -162 206s-162 -72 -162 -206s9 -205 162 -205s162 71 162 205zM366 538h-51l-133 129h54z" />
    <glyph glyph-name="ocircumflex" unicode="&#xf4;" horiz-adv-x="542" 
d="M476 239c0 -143 -14 -246 -205 -246c-192 0 -205 103 -205 246s13 247 205 247c191 0 205 -104 205 -247zM433 239c0 134 -9 206 -162 206s-162 -72 -162 -206s9 -205 162 -205s162 71 162 205zM423 538h-51l-101 100l-102 -100h-52l133 129h41z" />
    <glyph glyph-name="otilde" unicode="&#xf5;" horiz-adv-x="542" 
d="M476 239c0 -143 -14 -246 -205 -246c-192 0 -205 103 -205 246s13 247 205 247c191 0 205 -104 205 -247zM433 239c0 134 -9 206 -162 206s-162 -72 -162 -206s9 -205 162 -205s162 71 162 205zM456 635l-53 -29c-40 -22 -85 -24 -122 -4c-36 19 -65 45 -111 20l-65 -36
l-20 31c55 31 110 76 181 38c35 -19 66 -43 111 -20l61 32z" />
    <glyph glyph-name="odieresis" unicode="&#xf6;" horiz-adv-x="542" 
d="M476 239c0 -143 -14 -246 -205 -246c-192 0 -205 103 -205 246s13 247 205 247c191 0 205 -104 205 -247zM433 239c0 134 -9 206 -162 206s-162 -72 -162 -206s9 -205 162 -205s162 71 162 205zM410 636c0 -22 -10 -33 -33 -33s-32 11 -32 33c0 23 10 31 32 31
s33 -8 33 -31zM196 636c0 -22 -10 -33 -33 -33s-32 11 -32 33c0 23 10 31 32 31s33 -8 33 -31z" />
    <glyph glyph-name="omacron" unicode="&#x14d;" horiz-adv-x="542" 
d="M476 239c0 -143 -14 -246 -205 -246c-192 0 -205 103 -205 246s13 247 205 247c191 0 205 -104 205 -247zM433 239c0 134 -9 206 -162 206s-162 -72 -162 -206s9 -205 162 -205s162 71 162 205zM431 617h-320v38h320v-38z" />
    <glyph glyph-name="obreve" unicode="&#x14f;" horiz-adv-x="542" 
d="M476 239c0 -143 -14 -246 -205 -246c-192 0 -205 103 -205 246s13 247 205 247c191 0 205 -104 205 -247zM433 239c0 134 -9 206 -162 206s-162 -72 -162 -206s9 -205 162 -205s162 71 162 205zM408 667c0 -50 -9 -82 -31 -103s-59 -28 -106 -28s-85 10 -106 28
c-24 21 -31 52 -31 103h41c0 -40 5 -64 19 -76c13 -11 41 -17 77 -17s64 6 77 17c14 12 20 36 20 76h40z" />
    <glyph glyph-name="ohungarumlaut" unicode="&#x151;" horiz-adv-x="542" 
d="M476 239c0 -143 -14 -246 -205 -246c-192 0 -205 103 -205 246s13 247 205 247c191 0 205 -104 205 -247zM433 239c0 134 -9 206 -162 206s-162 -72 -162 -206s9 -205 162 -205s162 71 162 205zM482 667l-128 -126h-53l129 126h52zM314 667l-128 -126h-53l129 126h52z
" />
    <glyph glyph-name="oslash" unicode="&#xf8;" horiz-adv-x="542" 
d="M476 237c-2 -162 -29 -246 -209 -244c-25 0 -41 2 -60 5l-33 -93l-38 13l32 90c-104 37 -103 138 -102 233c1 142 15 247 207 245c25 0 42 -2 60 -5l32 91l38 -13l-31 -88c103 -37 105 -139 104 -234zM433 238c1 68 5 167 -75 194l-138 -395c14 -2 27 -4 47 -4
c153 -2 164 70 166 205zM319 442c-14 2 -26 3 -46 3c-153 1 -163 -71 -164 -205c-1 -71 -9 -166 73 -193z" />
    <glyph glyph-name="oslashacute" unicode="&#x1ff;" horiz-adv-x="542" 
d="M358 667l-133 -129h-51l130 129h54zM476 237c-2 -162 -29 -246 -209 -244c-25 0 -41 2 -60 5l-33 -93l-38 13l32 90c-104 37 -103 138 -102 233c1 142 15 247 207 245c25 0 42 -2 60 -5l32 91l38 -13l-31 -88c103 -37 105 -139 104 -234zM433 238c1 68 5 167 -75 194
l-138 -395c14 -2 27 -4 47 -4c153 -2 164 70 166 205zM319 442c-14 2 -26 3 -46 3c-153 1 -163 -71 -164 -205c-1 -71 -9 -166 73 -193z" />
    <glyph glyph-name="oe" unicode="&#x153;" horiz-adv-x="895" 
d="M829 235h-355c0 -132 11 -202 160 -202c69 0 147 14 147 98h40c0 -112 -92 -138 -188 -138c-75 0 -157 17 -180 97c-22 -77 -112 -97 -182 -97c-179 0 -205 85 -205 246c0 143 14 247 205 247c73 0 157 -19 182 -97c24 79 103 97 177 97c181 0 199 -93 199 -251zM787 274
c0 119 -32 172 -157 172c-123 0 -156 -55 -156 -172h313zM433 239c0 135 -10 206 -162 206c-153 0 -162 -72 -162 -206s9 -206 162 -206c151 0 162 73 162 206z" />
    <glyph glyph-name="thorn" unicode="&#xfe;" horiz-adv-x="552" 
d="M486 239c0 -148 -16 -246 -192 -246c-84 0 -136 25 -167 77v-261h-43v888h43v-288c31 52 83 77 167 77c176 0 192 -99 192 -247zM443 240c0 115 -5 204 -144 204c-129 0 -173 -47 -173 -204c0 -158 44 -206 173 -206c140 0 144 91 144 206z" />
    <glyph glyph-name="racute" unicode="&#x155;" horiz-adv-x="433" 
d="M421 349h-40c0 75 -42 96 -112 96c-150 0 -142 -131 -142 -238v-207h-43v478h41v-70c34 63 92 78 148 78c92 0 148 -41 148 -137zM343 667l-133 -129h-51l130 129h54z" />
    <glyph glyph-name="rcaron" unicode="&#x159;" horiz-adv-x="433" 
d="M421 349h-40c0 75 -42 96 -112 96c-150 0 -142 -131 -142 -238v-207h-43v478h41v-70c34 63 92 78 148 78c92 0 148 -41 148 -137zM406 667l-133 -129h-41l-132 129h51l101 -100l102 100h52z" />
    <glyph glyph-name="rcommaaccent" unicode="&#x157;" horiz-adv-x="433" 
d="M421 349h-40c0 75 -42 96 -112 96c-150 0 -142 -131 -142 -238v-207h-43v478h41v-70c34 63 92 78 148 78c92 0 148 -41 148 -137zM126 -77c0 -45 -5 -63 -36 -92l-32 -30l-29 29c15 13 34 31 34 31c19 17 21 27 21 61v34h42v-33z" />
    <glyph glyph-name="sacute" unicode="&#x15b;" horiz-adv-x="501" 
d="M441 135c0 -104 -64 -143 -196 -142s-185 34 -185 138h40c0 -75 33 -98 144 -98c109 0 154 26 154 100c0 62 -18 79 -98 86c-132 12 -233 -12 -233 129c0 105 62 139 195 138c71 0 119 -12 147 -41c20 -21 31 -53 31 -96h-41c0 67 -31 97 -136 97
c-111 0 -152 -24 -153 -90c-1 -73 23 -82 94 -89c130 -13 237 12 237 -132zM342 667l-133 -129h-51l130 129h54z" />
    <glyph glyph-name="scircumflex" unicode="&#x15d;" horiz-adv-x="501" 
d="M441 135c0 -104 -64 -143 -196 -142s-185 34 -185 138h40c0 -75 33 -98 144 -98c109 0 154 26 154 100c0 62 -18 79 -98 86c-132 12 -233 -12 -233 129c0 105 62 139 195 138c71 0 119 -12 147 -41c20 -21 31 -53 31 -96h-41c0 67 -31 97 -136 97
c-111 0 -152 -24 -153 -90c-1 -73 23 -82 94 -89c130 -13 237 12 237 -132zM408 538h-51l-101 100l-102 -100h-52l133 129h41z" />
    <glyph glyph-name="scaron" unicode="&#x161;" horiz-adv-x="501" 
d="M441 135c0 -104 -64 -143 -196 -142s-185 34 -185 138h40c0 -75 33 -98 144 -98c109 0 154 26 154 100c0 62 -18 79 -98 86c-132 12 -233 -12 -233 129c0 105 62 139 195 138c71 0 119 -12 147 -41c20 -21 31 -53 31 -96h-41c0 67 -31 97 -136 97
c-111 0 -152 -24 -153 -90c-1 -73 23 -82 94 -89c130 -13 237 12 237 -132zM409 667l-133 -129h-41l-132 129h51l101 -100l102 100h52z" />
    <glyph glyph-name="scedilla" unicode="&#x15f;" horiz-adv-x="501" 
d="M327 -114c0 -49 -20 -73 -76 -73c-55 0 -76 17 -76 61h33c0 -27 12 -32 43 -32c37 0 41 15 41 43c0 45 -33 40 -65 41v67c-119 4 -167 39 -167 138h40c0 -75 33 -98 144 -98c109 0 154 26 154 100c0 62 -18 79 -98 86c-132 12 -233 -12 -233 129c0 105 62 139 195 138
c71 0 119 -12 147 -41c20 -21 31 -53 31 -96h-41c0 67 -31 97 -136 97c-111 0 -152 -24 -153 -90c-1 -73 23 -82 94 -89c130 -13 237 12 237 -132c0 -100 -59 -139 -179 -142v-40c45 0 65 -25 65 -67z" />
    <glyph glyph-name="scommaaccent" unicode="&#x219;" horiz-adv-x="501" 
d="M441 135c0 -104 -64 -143 -196 -142s-185 34 -185 138h40c0 -75 33 -98 144 -98c109 0 154 26 154 100c0 62 -18 79 -98 86c-132 12 -233 -12 -233 129c0 105 62 139 195 138c71 0 119 -12 147 -41c20 -21 31 -53 31 -96h-41c0 67 -31 97 -136 97
c-111 0 -152 -24 -153 -90c-1 -73 23 -82 94 -89c130 -13 237 12 237 -132zM264 -77c0 -45 -5 -63 -36 -92l-32 -30l-29 29c15 13 34 31 34 31c19 17 21 27 21 61v34h42v-33z" />
    <glyph glyph-name="germandbls" unicode="&#xdf;" horiz-adv-x="562" 
d="M484 194c0 -146 -68 -194 -206 -194h-79v39h81c113 0 161 32 161 151c0 130 -48 163 -169 163h-73v39h73c121 0 163 34 163 138c0 103 -36 134 -155 134c-130 0 -153 -56 -153 -171v-493h-43v490c0 132 26 214 196 214c141 0 198 -44 198 -171c0 -75 -17 -138 -93 -161
c72 -18 99 -78 99 -178z" />
    <glyph glyph-name="tcaron" unicode="&#x165;" horiz-adv-x="373" 
d="M379 664c0 -45 -5 -63 -36 -92l-32 -30l-29 29c15 13 34 31 34 31c19 17 21 27 21 61v34h42v-33zM274 36v-40h-9c-107 0 -157 38 -157 137v306h-80v39h80v189h43v-189h123v-39h-123v-306c0 -81 41 -97 116 -97h7z" />
    <glyph glyph-name="tcommaaccent" unicode="&#x163;" horiz-adv-x="284" 
d="M211 -77c0 -45 -5 -63 -36 -92l-32 -30l-29 29c15 13 34 31 34 31c19 17 21 27 21 61v34h42v-33zM274 36v-40h-9c-107 0 -157 38 -157 137v306h-80v39h80v189h43v-189h123v-39h-123v-306c0 -81 41 -97 116 -97h7z" />
    <glyph glyph-name="tbar" unicode="&#x167;" horiz-adv-x="284" 
d="M28 235v39h80v165h-80v39h80v189h43v-189h123v-39h-123v-165h123v-39h-123v-102c0 -81 41 -97 116 -97h7v-40h-9c-107 0 -157 38 -157 137v102h-80z" />
    <glyph glyph-name="uacute" unicode="&#xfa;" horiz-adv-x="536" 
d="M452 0h-41v72c-34 -62 -98 -80 -161 -80c-64 0 -107 14 -134 41c-43 43 -40 99 -40 190v255h43v-247c0 -94 -1 -139 31 -169c22 -21 56 -29 101 -29c165 0 158 123 158 233v212h43v-478zM365 667l-133 -129h-51l130 129h54z" />
    <glyph glyph-name="ugrave" unicode="&#xf9;" horiz-adv-x="536" 
d="M452 0h-41v72c-34 -62 -98 -80 -161 -80c-64 0 -107 14 -134 41c-43 43 -40 99 -40 190v255h43v-247c0 -94 -1 -139 31 -169c22 -21 56 -29 101 -29c165 0 158 123 158 233v212h43v-478zM359 538h-51l-133 129h54z" />
    <glyph glyph-name="ucircumflex" unicode="&#xfb;" horiz-adv-x="536" 
d="M452 0h-41v72c-34 -62 -98 -80 -161 -80c-64 0 -107 14 -134 41c-43 43 -40 99 -40 190v255h43v-247c0 -94 -1 -139 31 -169c22 -21 56 -29 101 -29c165 0 158 123 158 233v212h43v-478zM421 538h-51l-101 100l-102 -100h-52l133 129h41z" />
    <glyph glyph-name="utilde" unicode="&#x169;" horiz-adv-x="536" 
d="M452 0h-41v72c-34 -62 -98 -80 -161 -80c-64 0 -107 14 -134 41c-43 43 -40 99 -40 190v255h43v-247c0 -94 -1 -139 31 -169c22 -21 56 -29 101 -29c165 0 158 123 158 233v212h43v-478zM453 635l-53 -29c-40 -22 -85 -24 -122 -4c-36 19 -65 45 -111 20l-65 -36l-20 31
c55 31 110 76 181 38c35 -19 66 -43 111 -20l61 32z" />
    <glyph glyph-name="udieresis" unicode="&#xfc;" horiz-adv-x="536" 
d="M452 0h-41v72c-34 -62 -98 -80 -161 -80c-64 0 -107 14 -134 41c-43 43 -40 99 -40 190v255h43v-247c0 -94 -1 -139 31 -169c22 -21 56 -29 101 -29c165 0 158 123 158 233v212h43v-478zM407 636c0 -22 -10 -33 -33 -33s-32 11 -32 33c0 23 10 31 32 31s33 -8 33 -31z
M193 636c0 -22 -10 -33 -33 -33s-32 11 -32 33c0 23 10 31 32 31s33 -8 33 -31z" />
    <glyph glyph-name="umacron" unicode="&#x16b;" horiz-adv-x="536" 
d="M452 0h-41v72c-34 -62 -98 -80 -161 -80c-64 0 -107 14 -134 41c-43 43 -40 99 -40 190v255h43v-247c0 -94 -1 -139 31 -169c22 -21 56 -29 101 -29c165 0 158 123 158 233v212h43v-478zM428 617h-320v38h320v-38z" />
    <glyph glyph-name="ubreve" unicode="&#x16d;" horiz-adv-x="536" 
d="M452 0h-41v72c-34 -62 -98 -80 -161 -80c-64 0 -107 14 -134 41c-43 43 -40 99 -40 190v255h43v-247c0 -94 -1 -139 31 -169c22 -21 56 -29 101 -29c165 0 158 123 158 233v212h43v-478zM405 667c0 -50 -9 -82 -31 -103s-59 -28 -106 -28s-85 10 -106 28
c-24 21 -31 52 -31 103h41c0 -40 5 -64 19 -76c13 -11 41 -17 77 -17s64 6 77 17c14 12 20 36 20 76h40z" />
    <glyph glyph-name="uring" unicode="&#x16f;" horiz-adv-x="536" 
d="M452 0h-41v72c-34 -62 -98 -80 -161 -80c-64 0 -107 14 -134 41c-43 43 -40 99 -40 190v255h43v-247c0 -94 -1 -139 31 -169c22 -21 56 -29 101 -29c165 0 158 123 158 233v212h43v-478zM371 625c0 -42 -6 -71 -24 -89c-17 -17 -43 -23 -82 -23s-66 6 -83 23
c-18 18 -24 47 -24 89s6 66 24 84c17 17 44 24 83 24s65 -7 82 -24c18 -18 24 -42 24 -84zM336 624c0 32 -3 51 -13 61c-9 10 -29 15 -58 15s-50 -5 -59 -15c-10 -10 -13 -29 -13 -61c0 -33 3 -52 13 -63c9 -10 30 -16 59 -16s49 6 58 16c10 11 13 30 13 63z" />
    <glyph glyph-name="uhungarumlaut" unicode="&#x171;" horiz-adv-x="536" 
d="M452 0h-41v72c-34 -62 -98 -80 -161 -80c-64 0 -107 14 -134 41c-43 43 -40 99 -40 190v255h43v-247c0 -94 -1 -139 31 -169c22 -21 56 -29 101 -29c165 0 158 123 158 233v212h43v-478zM475 667l-128 -126h-53l129 126h52zM307 667l-128 -126h-53l129 126h52z" />
    <glyph glyph-name="uogonek" unicode="&#x173;" horiz-adv-x="536" 
d="M452 0c-67 -24 -93 -57 -93 -103c0 -48 35 -61 75 -61c10 0 20 1 30 2v-30c-13 -2 -26 -3 -38 -3c-59 0 -103 25 -103 90c0 62 38 98 88 119v58c-34 -62 -98 -80 -161 -80c-64 0 -107 14 -134 41c-43 43 -40 99 -40 190v255h43v-247c0 -94 -1 -139 31 -169
c22 -21 56 -29 101 -29c165 0 158 123 158 233v212h43v-478z" />
    <glyph glyph-name="wacute" unicode="&#x1e83;" horiz-adv-x="693" 
d="M664 478l-142 -478h-50l-125 425l-126 -425h-50l-142 478h45l123 -423l126 423h48l127 -423l122 423h44zM463 667l-133 -129h-51l130 129h54z" />
    <glyph glyph-name="wgrave" unicode="&#x1e81;" horiz-adv-x="693" 
d="M664 478l-142 -478h-50l-125 425l-126 -425h-50l-142 478h45l123 -423l126 423h48l127 -423l122 423h44zM416 538h-51l-133 129h54z" />
    <glyph glyph-name="wcircumflex" unicode="&#x175;" horiz-adv-x="693" 
d="M664 478l-142 -478h-50l-125 425l-126 -425h-50l-142 478h45l123 -423l126 423h48l127 -423l122 423h44zM499 538h-51l-101 100l-102 -100h-52l133 129h41z" />
    <glyph glyph-name="wdieresis" unicode="&#x1e85;" horiz-adv-x="693" 
d="M664 478l-142 -478h-50l-125 425l-126 -425h-50l-142 478h45l123 -423l126 423h48l127 -423l122 423h44zM486 636c0 -22 -10 -33 -33 -33s-32 11 -32 33c0 23 10 31 32 31s33 -8 33 -31zM272 636c0 -22 -10 -33 -33 -33s-32 11 -32 33c0 23 10 31 32 31s33 -8 33 -31z
" />
    <glyph glyph-name="yacute" unicode="&#xfd;" horiz-adv-x="536" 
d="M365 667l-133 -129h-51l130 129h54zM410 68c-34 -58 -97 -76 -160 -76c-64 0 -107 14 -134 41c-43 43 -40 99 -40 190v255h43v-247c0 -94 -1 -139 31 -169c22 -21 56 -29 101 -29c165 0 158 123 158 233v212h43v-435c0 -72 -4 -111 -21 -148c-30 -64 -102 -89 -175 -89
c-113 0 -176 40 -176 138h41c0 -67 40 -98 132 -98c56 0 115 16 139 66c18 38 18 81 18 156z" />
    <glyph glyph-name="ygrave" unicode="&#x1ef3;" horiz-adv-x="536" 
d="M359 538h-51l-133 129h54zM410 68c-34 -58 -97 -76 -160 -76c-64 0 -107 14 -134 41c-43 43 -40 99 -40 190v255h43v-247c0 -94 -1 -139 31 -169c22 -21 56 -29 101 -29c165 0 158 123 158 233v212h43v-435c0 -72 -4 -111 -21 -148c-30 -64 -102 -89 -175 -89
c-113 0 -176 40 -176 138h41c0 -67 40 -98 132 -98c56 0 115 16 139 66c18 38 18 81 18 156z" />
    <glyph glyph-name="ycircumflex" unicode="&#x177;" horiz-adv-x="536" 
d="M416 538h-51l-101 100l-102 -100h-52l133 129h41zM410 68c-34 -58 -97 -76 -160 -76c-64 0 -107 14 -134 41c-43 43 -40 99 -40 190v255h43v-247c0 -94 -1 -139 31 -169c22 -21 56 -29 101 -29c165 0 158 123 158 233v212h43v-435c0 -72 -4 -111 -21 -148
c-30 -64 -102 -89 -175 -89c-113 0 -176 40 -176 138h41c0 -67 40 -98 132 -98c56 0 115 16 139 66c18 38 18 81 18 156z" />
    <glyph glyph-name="ydieresis" unicode="&#xff;" horiz-adv-x="536" 
d="M407 636c0 -22 -10 -33 -33 -33s-32 11 -32 33c0 23 10 31 32 31s33 -8 33 -31zM193 636c0 -22 -10 -33 -33 -33s-32 11 -32 33c0 23 10 31 32 31s33 -8 33 -31zM410 68c-34 -58 -97 -76 -160 -76c-64 0 -107 14 -134 41c-43 43 -40 99 -40 190v255h43v-247
c0 -94 -1 -139 31 -169c22 -21 56 -29 101 -29c165 0 158 123 158 233v212h43v-435c0 -72 -4 -111 -21 -148c-30 -64 -102 -89 -175 -89c-113 0 -176 40 -176 138h41c0 -67 40 -98 132 -98c56 0 115 16 139 66c18 38 18 81 18 156z" />
    <glyph glyph-name="zacute" unicode="&#x17a;" horiz-adv-x="474" 
d="M420 0h-366v38l312 401h-312v39h366v-36l-311 -401h311v-41zM329 667l-133 -129h-51l130 129h54z" />
    <glyph glyph-name="zcaron" unicode="&#x17e;" horiz-adv-x="474" 
d="M420 0h-366v38l312 401h-312v39h366v-36l-311 -401h311v-41zM393 667l-133 -129h-41l-132 129h51l101 -100l102 100h52z" />
    <glyph glyph-name="zdotaccent" unicode="&#x17c;" horiz-adv-x="474" 
d="M420 0h-366v38l312 401h-312v39h366v-36l-311 -401h311v-41zM270 636c0 -22 -10 -33 -33 -33s-32 11 -32 33c0 23 10 31 32 31s33 -8 33 -31z" />
    <glyph glyph-name="ampersand" unicode="&#x26;" horiz-adv-x="601" 
d="M564 332h-60v-113c0 -84 -6 -138 -46 -178c-33 -33 -89 -49 -171 -49c-146 0 -215 36 -215 190c0 101 31 154 102 171c-81 22 -96 70 -96 150c0 126 53 171 194 171c129 0 192 -36 195 -147h-42c-3 81 -45 106 -152 106c-119 0 -153 -30 -153 -132
c0 -110 52 -128 153 -128h189v70h41v-70h61v-41zM462 219v113h-189c-120 0 -159 -28 -159 -153c0 -127 55 -145 173 -145c76 0 119 13 142 36c28 28 33 75 33 149z" />
    <glyph glyph-name="acute" unicode="&#xb4;" horiz-adv-x="402" 
d="M293 667l-133 -129h-51l130 129h54z" />
    <glyph glyph-name="Acute" unicode="&#xf6c9;" horiz-adv-x="402" 
d="M293 860l-133 -129h-51l130 129h54z" />
    <glyph glyph-name="grave" unicode="`" horiz-adv-x="402" 
d="M293 538h-51l-133 129h54z" />
    <glyph glyph-name="Grave" unicode="&#xf6ce;" horiz-adv-x="402" 
d="M293 731h-51l-133 129h54z" />
    <glyph glyph-name="circumflex" unicode="&#x2c6;" horiz-adv-x="415" 
d="M361 538h-51l-101 100l-102 -100h-52l133 129h41z" />
    <glyph glyph-name="Circumflex" unicode="&#xeff7;" horiz-adv-x="415" 
d="M361 731h-51l-101 100l-102 -100h-52l133 129h41z" />
    <glyph glyph-name="tilde" unicode="&#x2dc;" horiz-adv-x="415" 
d="M392 635l-53 -29c-40 -22 -85 -24 -122 -4c-36 19 -65 45 -111 20l-65 -36l-20 31c55 31 110 76 181 38c35 -19 66 -43 111 -20l61 32z" />
    <glyph glyph-name="Tilde" unicode="&#xeff5;" horiz-adv-x="415" 
d="M392 826l-53 -29c-40 -22 -85 -24 -122 -4c-36 19 -65 45 -111 20l-65 -36l-20 31c55 31 110 76 181 38c35 -19 66 -43 111 -20l61 32z" />
    <glyph glyph-name="dieresis" unicode="&#xa8;" horiz-adv-x="416" 
d="M348 636c0 -22 -10 -33 -33 -33s-32 11 -32 33c0 23 10 31 32 31s33 -8 33 -31zM134 636c0 -22 -10 -33 -33 -33s-32 11 -32 33c0 23 10 31 32 31s33 -8 33 -31z" />
    <glyph glyph-name="Dieresis" unicode="&#xf6cb;" horiz-adv-x="416" 
d="M348 828c0 -22 -10 -33 -33 -33s-32 11 -32 33c0 23 10 31 32 31s33 -8 33 -31zM134 828c0 -22 -10 -33 -33 -33s-32 11 -32 33c0 23 10 31 32 31s33 -8 33 -31z" />
    <glyph glyph-name="macron" unicode="&#xaf;" horiz-adv-x="415" 
d="M368 617h-320v38h320v-38z" />
    <glyph glyph-name="Macron" unicode="&#xf6d0;" horiz-adv-x="415" 
d="M368 807h-320v38h320v-38z" />
    <glyph glyph-name="breve" unicode="&#x2d8;" horiz-adv-x="415" 
d="M345 667c0 -50 -9 -82 -31 -103s-59 -28 -106 -28s-85 10 -106 28c-24 21 -31 52 -31 103h41c0 -40 5 -64 19 -76c13 -11 41 -17 77 -17s64 6 77 17c14 12 20 36 20 76h40z" />
    <glyph glyph-name="Breve" unicode="&#xefee;" horiz-adv-x="415" 
d="M335 867c0 -50 -9 -82 -31 -103s-59 -28 -106 -28s-85 10 -106 28c-24 21 -31 52 -31 103h41c0 -40 5 -64 19 -76c13 -11 41 -17 77 -17s64 6 77 17c14 12 20 36 20 76h40z" />
    <glyph glyph-name="ring" unicode="&#x2da;" horiz-adv-x="415" 
d="M314 625c0 -42 -6 -71 -24 -89c-17 -17 -43 -23 -82 -23s-66 6 -83 23c-18 18 -24 47 -24 89s6 66 24 84c17 17 44 24 83 24s65 -7 82 -24c18 -18 24 -42 24 -84zM279 624c0 32 -3 51 -13 61c-9 10 -29 15 -58 15s-50 -5 -59 -15c-10 -10 -13 -29 -13 -61
c0 -33 3 -52 13 -63c9 -10 30 -16 59 -16s49 6 58 16c10 11 13 30 13 63z" />
    <glyph glyph-name="Ring" unicode="&#xfff3;" horiz-adv-x="415" 
d="M208 685c-82 0 -113 30 -113 111c0 85 28 110 111 110c82 0 113 -30 113 -111c0 -85 -28 -110 -111 -110zM208 719c63 0 73 18 73 77c0 58 -14 76 -75 76c-63 0 -73 -18 -73 -77c0 -58 14 -76 75 -76z" />
    <glyph glyph-name="caron" unicode="&#x2c7;" horiz-adv-x="415" 
d="M361 667l-133 -129h-41l-132 129h51l101 -100l102 100h52z" />
    <glyph glyph-name="Caron" unicode="&#xf6ca;" horiz-adv-x="415" 
d="M361 862l-133 -129h-41l-132 129h51l101 -100l102 100h52z" />
    <glyph glyph-name="hungarumlaut" unicode="&#x2dd;" horiz-adv-x="415" 
d="M385 667l-128 -126h-53l129 126h52zM217 667l-128 -126h-53l129 126h52z" />
    <glyph glyph-name="Hungarumlaut" unicode="&#xf6cf;" horiz-adv-x="415" 
d="M408 862l-126 -126h-53l127 126h52zM239 862l-126 -126h-53l127 126h52z" />
    <glyph glyph-name="dotaccent" unicode="&#x2d9;" horiz-adv-x="415" 
d="M240 636c0 -22 -10 -33 -33 -33s-32 11 -32 33c0 23 10 31 32 31s33 -8 33 -31z" />
    <glyph glyph-name="Dotaccent" unicode="&#xefed;" horiz-adv-x="415" 
d="M240 828c0 -22 -10 -33 -33 -33s-32 11 -32 33c0 23 10 31 32 31s33 -8 33 -31z" />
    <glyph glyph-name="cedilla" unicode="&#xb8;" horiz-adv-x="415" 
d="M279 -114c0 -49 -20 -73 -76 -73c-55 0 -76 17 -76 61h33c0 -27 12 -32 43 -32c37 0 41 15 41 43c0 45 -33 40 -65 41v74h35v-47c45 0 65 -25 65 -67z" />
    <glyph glyph-name="Cedilla" unicode="&#xeff2;" horiz-adv-x="415" 
d="M179 0h35v-47c45 0 65 -25 65 -67c0 -49 -20 -73 -76 -73c-55 0 -76 17 -76 61h33c0 -27 12 -32 43 -32c34 0 41 12 41 42c0 45 -27 41 -65 42v74z" />
    <glyph glyph-name="ogonek" unicode="&#x2db;" horiz-adv-x="410" 
d="M205 10l51 -10c-67 -24 -93 -57 -93 -103c0 -48 35 -61 75 -61c10 0 20 1 30 2v-30c-13 -2 -26 -3 -38 -3c-59 0 -103 25 -103 90c0 62 37 95 78 115z" />
    <glyph glyph-name="Ogonek" unicode="&#xeff1;" horiz-adv-x="410" 
d="M215 10l51 -10c-67 -26 -91 -57 -91 -103c0 -48 33 -60 73 -60c10 0 20 1 30 2v-31c-13 -2 -26 -3 -38 -3c-59 0 -103 25 -103 90c0 62 37 95 78 115z" />
    <glyph glyph-name="commaaccent" horiz-adv-x="410" 
d="M229 -77c0 -45 -5 -63 -36 -92l-32 -30l-29 29c15 13 34 31 34 31c19 17 21 27 21 61v34h42v-33z" />
    <glyph glyph-name="Commaaccent" horiz-adv-x="410" 
d="M229 -77c0 -45 -5 -63 -36 -92l-32 -30l-29 29c15 13 34 31 34 31c19 17 21 27 21 61v34h42v-33z" />
    <glyph glyph-name="uni0326" unicode="&#x326;" horiz-adv-x="410" 
d="M229 -77c0 -45 -5 -63 -36 -92l-32 -30l-29 29c15 13 34 31 34 31c19 17 21 27 21 61v34h42v-33z" />
    <glyph glyph-name="comma" unicode="," horiz-adv-x="208" 
d="M126 -15c0 -57 -6 -85 -42 -116l-25 -22l-27 27l19 18c32 30 33 51 33 93v75h42v-75z" />
    <glyph glyph-name="semicolon" unicode=";" horiz-adv-x="208" 
d="M139 452c0 -23 -12 -34 -35 -34s-34 11 -34 34s11 34 34 34s35 -11 35 -34zM126 -15c0 -57 -6 -85 -42 -116l-25 -22l-27 27l19 18c32 30 33 51 33 93v75h42v-75z" />
    <glyph glyph-name="colon" unicode=":" horiz-adv-x="208" 
d="M139 452c0 -23 -12 -34 -35 -34s-34 11 -34 34s11 34 34 34s35 -11 35 -34zM139 27c0 -23 -12 -34 -35 -34s-34 11 -34 34s11 34 34 34s35 -11 35 -34z" />
    <glyph glyph-name="period" unicode="." horiz-adv-x="208" 
d="M139 27c0 -23 -12 -34 -35 -34s-34 11 -34 34s11 34 34 34s35 -11 35 -34z" />
    <glyph glyph-name="ellipsis" unicode="&#x2026;" horiz-adv-x="1002" 
d="M870 27c0 -23 -12 -34 -35 -34c-24 0 -35 11 -35 34s11 34 34 34c24 0 36 -11 36 -34zM535 27h1c0 -23 -12 -34 -35 -34c-24 0 -35 11 -35 34s11 34 34 34c24 0 35 -11 35 -34zM201 27h1c0 -23 -12 -34 -35 -34c-24 0 -35 11 -35 34s11 34 34 34c24 0 35 -11 35 -34z" />
    <glyph glyph-name="hyphen" unicode="-" horiz-adv-x="480" 
d="M386 220h-292v40h292v-40z" />
    <glyph glyph-name="exclam" unicode="!" horiz-adv-x="281" 
d="M161 190h-42v477h42v-477zM175 27c0 -23 -12 -34 -35 -34s-34 11 -34 34s11 34 34 34s35 -11 35 -34z" />
    <glyph glyph-name="exclamdown" unicode="&#xa1;" horiz-adv-x="281" 
d="M175 452c0 -23 -11 -34 -34 -34s-35 11 -35 34s12 34 35 34s34 -11 34 -34zM162 -189h-42v477h42v-477z" />
    <glyph glyph-name="question" unicode="?" horiz-adv-x="420" 
d="M391 508c0 -86 -34 -128 -107 -160c-66 -29 -68 -52 -68 -122v-36h-43v53c0 85 29 114 87 139c55 23 89 48 89 126c0 96 -36 126 -136 126c-98 0 -139 -26 -139 -101h-40c0 104 59 141 177 141c120 0 180 -40 180 -166zM230 27c0 -23 -12 -34 -35 -34s-34 11 -34 34
s11 34 34 34s35 -11 35 -34z" />
    <glyph glyph-name="questiondown" unicode="&#xbf;" horiz-adv-x="420" 
d="M262 452c0 -23 -11 -34 -34 -34s-35 11 -35 34s12 34 35 34s34 -11 34 -34zM389 -53c0 -104 -59 -141 -177 -141c-120 0 -180 40 -180 166c0 86 34 128 107 160c66 29 68 52 68 122v36h43v-53c0 -85 -29 -114 -87 -139c-55 -23 -89 -48 -89 -126c0 -96 36 -126 136 -126
c98 0 139 26 139 101h40z" />
    <glyph glyph-name="quoteleft" unicode="&#x2018;" horiz-adv-x="208" 
d="M176 649l-19 -18c-32 -30 -33 -51 -33 -93v-75h-42v75c0 57 6 85 42 116l25 22z" />
    <glyph glyph-name="quoteright" unicode="&#x2019;" horiz-adv-x="208" 
d="M126 592c0 -57 -6 -85 -42 -116l-25 -22l-27 27l19 18c32 30 33 51 33 93v75h42v-75z" />
    <glyph glyph-name="quotedblleft" unicode="&#x201c;" horiz-adv-x="370" 
d="M338 649l-19 -18c-32 -30 -33 -51 -33 -93v-75h-42v75c0 57 6 85 42 116l25 22zM176 649l-19 -18c-32 -30 -33 -51 -33 -93v-75h-42v75c0 57 6 85 42 116l25 22z" />
    <glyph glyph-name="quotedblright" unicode="&#x201d;" horiz-adv-x="370" 
d="M288 592c0 -57 -6 -85 -42 -116l-25 -22l-27 27l19 18c32 30 33 51 33 93v75h42v-75zM126 592c0 -57 -6 -85 -42 -116l-25 -22l-27 27l19 18c32 30 33 51 33 93v75h42v-75z" />
    <glyph glyph-name="quotesinglbase" unicode="&#x201a;" horiz-adv-x="208" 
d="M126 -15c0 -57 -6 -85 -42 -116l-25 -22l-27 27c4 3 16 15 19 18c32 31 33 51 33 93v75h42v-75z" />
    <glyph glyph-name="quotedblbase" unicode="&#x201e;" horiz-adv-x="370" 
d="M288 -15c0 -57 -6 -85 -42 -116l-25 -22l-27 27l19 18c32 30 33 51 33 93v75h42v-75zM126 -15c0 -57 -6 -85 -42 -116l-25 -22l-27 27l19 18c32 30 33 51 33 93v75h42v-75z" />
    <glyph glyph-name="guilsinglleft" unicode="&#x2039;" horiz-adv-x="258" 
d="M207 404c-40 -41 -113 -108 -113 -166c0 -60 70 -122 111 -163l-28 -28c-48 48 -124 116 -124 190c0 73 79 147 126 196z" />
    <glyph glyph-name="guilsinglright" unicode="&#x203a;" horiz-adv-x="258" 
d="M205 237c0 -74 -76 -142 -124 -190l-28 28c41 41 111 103 111 163c0 58 -73 125 -113 166l28 29c47 -49 126 -123 126 -196z" />
    <glyph glyph-name="guillemotleft" unicode="&#xab;" horiz-adv-x="447" 
d="M396 404c-40 -41 -113 -108 -113 -166c0 -60 70 -122 111 -163l-28 -28c-48 48 -124 116 -124 190c0 73 79 147 126 196zM207 404c-40 -41 -113 -108 -113 -166c0 -60 70 -122 111 -163l-28 -28c-48 48 -124 116 -124 190c0 73 79 147 126 196z" />
    <glyph glyph-name="guillemotright" unicode="&#xbb;" horiz-adv-x="447" 
d="M394 237c0 -74 -76 -142 -124 -190l-28 28c41 41 111 103 111 163c0 58 -73 125 -113 166l28 29c47 -49 126 -123 126 -196zM205 237c0 -74 -76 -142 -124 -190l-28 28c41 41 111 103 111 163c0 58 -73 125 -113 166l28 29c47 -49 126 -123 126 -196z" />
    <glyph glyph-name="underscore" unicode="_" horiz-adv-x="500" 
d="M500 -194h-500v42h500v-42z" />
    <glyph glyph-name="endash" unicode="&#x2013;" horiz-adv-x="562" 
d="M531 220h-500v40h500v-40z" />
    <glyph glyph-name="emdash" unicode="&#x2014;" horiz-adv-x="1000" 
d="M900 220h-800v40h800v-40z" />
    <glyph glyph-name="figuredash" unicode="&#x2012;" horiz-adv-x="563" 
d="M520 220h-477v40h477v-40z" />
    <glyph glyph-name="bullet" unicode="&#x2022;" horiz-adv-x="500" 
d="M335 334c0 -59 -25 -83 -85 -83s-85 24 -85 83s25 84 85 84s85 -25 85 -84z" />
    <glyph glyph-name="periodcentered" unicode="&#xb7;" horiz-adv-x="209" 
d="M139 335c0 -23 -12 -34 -35 -34s-34 11 -34 34s11 34 34 34s35 -11 35 -34z" />
    <glyph glyph-name="parenleft" unicode="(" horiz-adv-x="292" 
d="M252 -191c-104 0 -157 29 -181 109c-19 64 -31 205 -31 388s12 327 31 391c24 80 77 109 181 109v-38c-88 0 -117 -24 -135 -69c-19 -49 -35 -205 -35 -392s16 -341 35 -390c18 -45 47 -69 135 -69v-39z" />
    <glyph glyph-name="parenright" unicode=")" horiz-adv-x="292" 
d="M252 306c0 -183 -12 -324 -31 -388c-24 -80 -77 -109 -181 -109v39c88 0 117 24 135 69c19 49 35 203 35 390s-16 343 -35 392c-18 45 -47 69 -135 69v38c104 0 157 -29 181 -109c19 -64 31 -208 31 -391z" />
    <glyph glyph-name="bracketleft" unicode="[" horiz-adv-x="292" 
d="M252 -191h-192v997h192v-38h-150v-920h150v-39z" />
    <glyph glyph-name="bracketright" unicode="]" horiz-adv-x="292" 
d="M232 -191h-192v39h150v920h-150v38h192v-997z" />
    <glyph glyph-name="braceleft" unicode="{" horiz-adv-x="363" 
d="M323 -191c-42 0 -80 6 -110 36c-38 38 -46 78 -46 156v187c0 6 -2 12 -6 16l-61 61c-9 9 -19 23 -19 42c0 24 16 41 28 53l54 54c3 3 4 6 4 9v211c0 78 8 118 46 156c30 30 68 36 110 36v-38c-34 0 -59 -3 -84 -28c-24 -24 -31 -59 -31 -124v-205c0 -20 -7 -39 -21 -53
c0 0 -48 -47 -57 -56c-10 -10 -8 -21 0 -29l56 -54c15 -15 22 -31 22 -57v-182c0 -65 8 -101 32 -125c24 -23 49 -28 83 -28v-38z" />
    <glyph glyph-name="braceright" unicode="}" horiz-adv-x="363" 
d="M282 307c0 -19 -10 -33 -19 -42l-61 -61c-4 -4 -6 -10 -6 -16v-187c0 -78 -8 -118 -46 -156c-30 -30 -68 -36 -110 -36v38c34 0 59 5 83 28c24 24 32 60 32 125v182c0 26 7 42 22 57l56 54c8 8 10 19 0 29c-9 9 -57 56 -57 56c-14 14 -21 33 -21 53v205
c0 65 -7 100 -31 124c-25 25 -50 28 -84 28v38c42 0 80 -6 110 -36c38 -38 46 -78 46 -156v-211c0 -3 1 -6 4 -9l54 -54c12 -12 28 -29 28 -53z" />
    <glyph glyph-name="asterisk" unicode="*" horiz-adv-x="523" 
d="M495 488l-203 -64l124 -167l-30 -22l-125 166l-123 -166l-31 22l125 167l-204 64l12 35l203 -63v207h38v-207l202 63z" />
    <glyph glyph-name="dagger" unicode="&#x2020;" horiz-adv-x="563" 
d="M453 439h-151v-530h-41v530h-151v39h151v189h41v-189h151v-39z" />
    <glyph glyph-name="daggerdbl" unicode="&#x2021;" horiz-adv-x="563" 
d="M453 204h-151v-295h-41v295h-151v39h151v196h-151v39h151v189h41v-189h151v-39h-151v-196h151v-39z" />
    <glyph glyph-name="section" unicode="&#xa7;" horiz-adv-x="562" 
d="M468 44c0 -117 -64 -149 -180 -149c-137 0 -194 34 -194 141h41c0 -76 38 -100 153 -100c89 0 137 19 137 108c0 87 -46 101 -125 102c-51 1 -116 -3 -159 26c-30 21 -47 56 -47 113c0 66 23 102 71 117c-46 15 -71 55 -71 123c0 117 64 149 180 149
c137 0 194 -35 194 -141h-42c0 74 -37 100 -152 100c-89 0 -137 -19 -137 -108c0 -115 85 -100 167 -103c55 -2 90 -7 117 -25c38 -26 47 -70 47 -113c0 -56 -15 -99 -71 -117c46 -15 71 -55 71 -123zM425 286c0 89 -45 97 -154 97c-90 0 -134 -13 -134 -101
c0 -100 70 -96 154 -96c76 0 134 3 134 100z" />
    <glyph glyph-name="paragraph" unicode="&#xb6;" horiz-adv-x="559" 
d="M445 0h-42v627h-71v-627h-42v311c-145 0 -246 0 -246 177c0 179 97 179 243 179h158v-667zM290 351v276c-121 0 -203 7 -203 -138c0 -147 80 -138 203 -138z" />
    <glyph glyph-name="bar" unicode="|" horiz-adv-x="280" 
d="M161 -191h-42v858h42v-858z" />
    <glyph glyph-name="brokenbar" unicode="&#xa6;" horiz-adv-x="280" 
d="M161 371h-42v296h42v-296zM161 -191h-42v296h42v-296z" />
    <glyph glyph-name="slash" unicode="/" horiz-adv-x="494" 
d="M478 755l-420 -839h-42l420 839h42z" />
    <glyph glyph-name="backslash" unicode="\" horiz-adv-x="520" 
d="M491 -84h-42l-420 839h42z" />
    <glyph glyph-name="asciicircum" unicode="^" horiz-adv-x="562" 
d="M520 208l-38 -17l-201 431l-201 -431l-38 17l219 465h40z" />
    <glyph glyph-name="asciitilde" unicode="~" horiz-adv-x="562" 
d="M527 258l-79 -50c-44 -28 -109 -29 -153 -2c-19 12 -35 21 -54 32c-31 18 -68 20 -103 -2l-79 -48l-24 33l79 49c44 28 108 30 153 3c48 -28 96 -69 157 -31l81 50z" />
    <glyph glyph-name="quotesingle" unicode="'" horiz-adv-x="281" 
d="M161 460h-41v207h41v-207z" />
    <glyph glyph-name="quotedbl" unicode="&#x22;" horiz-adv-x="430" 
d="M311 460h-41v207h41v-207zM161 460h-41v207h41v-207z" />
    <glyph glyph-name="at" unicode="@" horiz-adv-x="764" 
d="M682 382c0 -70 -3 -180 -48 -225c-36 -35 -80 -39 -132 -39v49c-27 -37 -68 -55 -131 -55c-141 0 -156 79 -156 198s14 200 155 200c63 0 105 -18 132 -55v48h38v-347c28 0 48 8 63 23c31 31 39 91 39 211c0 126 -16 167 -47 197c-33 32 -93 49 -207 49
s-176 -19 -208 -52c-54 -55 -58 -197 -58 -274c0 -75 3 -224 50 -278c44 -51 129 -61 220 -61c101 0 183 9 229 88l35 -18c-49 -100 -171 -108 -269 -108c-131 0 -203 21 -247 72c-51 59 -58 193 -58 310c0 78 2 236 69 299c45 42 118 60 235 60c124 0 196 -16 240 -57
c41 -38 56 -93 56 -235zM502 310c0 123 -35 163 -135 163c-107 0 -111 -68 -111 -163c0 -96 3 -161 112 -161c100 0 134 39 134 161z" />
    <glyph glyph-name="copyright" unicode="&#xa9;" horiz-adv-x="821" 
d="M739 334c0 -260 -64 -341 -329 -341s-328 83 -328 343c0 264 62 338 328 338c268 0 329 -74 329 -340zM699 337c0 237 -47 299 -289 299c-244 0 -288 -65 -288 -303c0 -230 49 -302 288 -302c243 0 289 73 289 306zM601 242c0 -111 -92 -142 -189 -142
c-175 0 -203 77 -203 236s28 236 203 236c97 0 189 -31 189 -142h-39c0 90 -72 104 -149 104c-149 0 -163 -66 -163 -198s14 -198 163 -198c77 0 149 14 149 104h39z" />
    <glyph glyph-name="registered" unicode="&#xae;" horiz-adv-x="530" 
d="M484 448c0 -172 -42 -227 -219 -227c-178 0 -219 55 -219 228c0 177 40 225 219 225s219 -49 219 -226zM453 450c0 155 -29 195 -188 195c-161 0 -188 -41 -188 -198c0 -153 29 -196 188 -196c160 0 188 45 188 199zM369 306h-31v81c0 59 -31 53 -76 53h-61v-134h-32v291
h96c60 0 104 3 104 -80c0 -28 -5 -48 -28 -62c23 -13 28 -36 28 -66v-83zM338 518c0 56 -28 50 -76 50h-61v-99h64c45 0 73 -6 73 49z" />
    <glyph glyph-name="trademark" unicode="&#x2122;" horiz-adv-x="848" 
d="M758 233h-36v379l-138 -379h-46l-136 379v-379h-37v434h54l142 -393l144 393h53v-434zM324 633h-134v-400h-39v400h-135v34h308v-34z" />
    <glyph glyph-name="ordfeminine" unicode="&#xaa;" horiz-adv-x="378" 
d="M334 336h-32v48c-26 -33 -64 -53 -130 -53c-91 0 -132 25 -132 100c0 93 63 105 137 105h120c0 72 -6 104 -106 104c-54 0 -105 -9 -105 -64h-37c0 83 76 98 148 98c137 0 137 -70 137 -127v-211zM296 502h-122c-53 0 -96 -8 -96 -70c0 -51 21 -66 92 -66
c119 0 126 67 126 136z" />
    <glyph glyph-name="ordmasculine" unicode="&#xba;" horiz-adv-x="378" 
d="M340 503c0 -109 -15 -171 -151 -171s-151 62 -151 171s15 171 151 171s151 -62 151 -171zM302 503c0 96 -7 136 -113 136s-113 -40 -113 -136s7 -136 113 -136s113 40 113 136z" />
    <glyph glyph-name="franc" unicode="&#x20a3;" horiz-adv-x="922" 
d="M494 627h-352v-264h343v-40h-343v-323h-44v667h396v-40zM910 234h-40c0 75 -42 96 -112 96c-150 0 -142 -131 -142 -238v-92h-43v363h41v-70c34 63 92 78 148 78c92 0 148 -41 148 -137z" />
    <glyph glyph-name="lira" unicode="&#x20a4;" horiz-adv-x="562" 
d="M64 204v39h56v72h-56v39h56v107c0 60 -4 123 38 164c32 31 86 49 156 49c92 0 190 -8 190 -141h-42c0 90 -62 101 -138 101c-62 0 -107 -9 -136 -40c-29 -30 -25 -83 -25 -130v-110h295v-39h-295v-72h295v-39h-295v-164h350v-40h-449v40h56v164h-56z" />
    <glyph glyph-name="peseta" unicode="&#x20a7;" horiz-adv-x="1540" 
d="M556 488c0 -177 -98 -179 -243 -179h-171v-309h-44v667h215c146 0 243 0 243 -179zM512 489c0 145 -82 139 -203 139h-167v-279h167c123 0 203 -7 203 140zM1014 131c0 -101 -58 -138 -154 -138c-98 0 -150 36 -150 138v308h-82v39h82v189h43v-189h221v-39h-221v-308
c0 -77 35 -98 109 -98c76 0 112 26 112 98h40zM1480 135c0 -104 -64 -143 -196 -142s-185 34 -185 138h40c0 -75 33 -98 144 -98c109 0 154 26 154 100c0 62 -18 79 -98 86c-132 12 -233 -12 -233 129c0 105 62 139 195 138c71 0 119 -12 147 -41c20 -21 31 -53 31 -96h-41
c0 67 -31 97 -136 97c-111 0 -152 -24 -153 -90c-1 -73 23 -82 94 -89c130 -13 237 12 237 -132z" />
    <glyph glyph-name="numbersign" unicode="#" horiz-adv-x="562" 
d="M546 424h-134l-41 -154h123v-38h-133l-61 -232h-40l61 232h-141l-61 -232h-40l61 232h-124v38h134l41 154h-123v38h134l62 232h40l-63 -232h141l63 232h40l-63 -232h124v-38zM372 424h-141l-40 -154h140z" />
    <glyph glyph-name="currency" unicode="&#xa4;" horiz-adv-x="561" 
d="M18 104l90 92c-36 49 -54 97 -54 147c0 49 15 87 55 144l-94 93l25 25l93 -94c58 42 96 56 147 56s89 -14 146 -56l94 93l24 -24l-93 -93c39 -50 55 -94 55 -146c0 -50 -13 -86 -53 -145l93 -94l-24 -23l-94 93c-48 -38 -93 -55 -144 -55c-49 0 -92 16 -150 55l-92 -92z
M283 527c-103 0 -186 -81 -186 -183s82 -185 183 -185c100 0 183 83 183 184c0 100 -83 184 -180 184z" />
    <glyph glyph-name="Euro" unicode="&#x20ac;" horiz-adv-x="562" 
d="M502 135c0 -115 -84 -142 -188 -142c-191 0 -202 116 -202 266h-52v39h52v72h-52v39h52c0 153 12 265 202 265c101 0 188 -26 188 -141h-42c0 87 -72 101 -146 101c-159 0 -159 -100 -159 -225h182v-39h-182v-72h182v-39h-182c0 -129 -3 -225 159 -225
c75 0 146 14 146 101h42z" />
    <glyph glyph-name="dollar" unicode="$" horiz-adv-x="552" 
d="M482 188c0 -129 -56 -186 -187 -188v-99l-41 1v98c-122 1 -185 35 -185 134h42c0 -70 41 -93 143 -94v288c-116 8 -180 33 -180 167c0 123 64 170 180 172v95h41v-95c122 -1 180 -35 180 -134h-42c0 70 -36 93 -138 94v-260c135 -13 187 -23 187 -179zM254 369v258
c-98 -1 -138 -34 -138 -137c0 -107 49 -115 138 -121zM441 192c0 116 -37 126 -146 134v-287c105 2 146 44 146 153z" />
    <glyph glyph-name="cent" unicode="&#xa2;" horiz-adv-x="515" 
d="M457 131c0 -102 -76 -135 -168 -138v-88h-41v88c-164 5 -182 104 -182 247s18 240 182 245v90h41v-90c92 -2 168 -35 168 -138h-41c0 76 -61 95 -127 97v-410c66 2 127 21 127 97h41zM248 34v410c-136 -5 -139 -90 -139 -204c0 -115 3 -199 139 -206z" />
    <glyph glyph-name="sterling" unicode="&#xa3;" horiz-adv-x="562" 
d="M513 0h-449v40h56v275h-56v39h56v107c0 60 -4 123 38 164c32 31 86 49 156 49c92 0 190 -8 190 -141h-42c0 90 -62 101 -138 101c-62 0 -107 -9 -136 -40c-29 -30 -25 -83 -25 -130v-110h295v-39h-295v-275h350v-40z" />
    <glyph glyph-name="florin" unicode="&#x192;" horiz-adv-x="562" 
d="M513 533h-42c0 90 -62 101 -138 101c-62 0 -107 -9 -136 -40c-29 -30 -25 -83 -25 -130v-110h295v-39h-295v-506h-43v506h-56v39h56v107c0 60 -4 123 38 164c32 31 86 49 156 49c92 0 190 -8 190 -141z" />
    <glyph glyph-name="yen" unicode="&#xa5;" horiz-adv-x="533" 
d="M508 667l-151 -258h90v-38h-113l-41 -71h154v-39h-158v-261h-43v261h-159v39h156l-43 71h-113v38h91l-153 258h50l194 -332l192 332h47z" />
    <glyph glyph-name="zero" unicode="0" horiz-adv-x="561" 
d="M484 333c0 -146 -3 -194 -16 -231c-25 -75 -87 -109 -188 -109s-162 34 -187 109c-13 37 -16 85 -16 231c0 167 4 212 24 253c30 61 87 88 179 88s149 -27 179 -88c20 -41 25 -86 25 -253zM441 333c0 127 -4 184 -14 216c-18 58 -59 85 -147 85s-128 -27 -146 -85
c-10 -32 -14 -89 -14 -216c0 -146 4 -198 19 -232c20 -46 60 -68 141 -68s121 22 141 68c15 34 20 86 20 232z" />
    <glyph glyph-name="one" unicode="1" horiz-adv-x="448" 
d="M264 0h-43v614l-138 -124l-28 28l168 149h41v-667z" />
    <glyph glyph-name="two" unicode="2" horiz-adv-x="550" 
d="M480 489c0 -61 -15 -105 -48 -137c-49 -47 -164 -70 -219 -93c-73 -31 -85 -61 -85 -132v-87h350v-40h-393v146c0 87 47 125 117 152c59 23 163 45 201 86c23 24 34 55 34 105c0 37 -5 66 -16 88c-19 38 -63 57 -139 57c-105 0 -155 -25 -155 -101h-42
c0 106 69 141 195 141c63 0 117 -13 149 -39c35 -28 51 -75 51 -146z" />
    <glyph glyph-name="three" unicode="3" horiz-adv-x="551" 
d="M474 182c0 -144 -68 -189 -206 -189c-118 0 -196 31 -196 142h42c0 -75 48 -102 154 -102c113 0 163 27 163 146c0 66 -11 101 -39 122c-26 19 -60 25 -122 25h-94v41h94c105 0 155 20 155 134c0 102 -35 133 -155 133c-107 0 -156 -26 -156 -101h-42
c0 106 70 141 198 141c143 0 198 -45 198 -171c0 -73 -16 -133 -92 -156c76 -19 98 -75 98 -165z" />
    <glyph glyph-name="four" unicode="4" horiz-adv-x="552" 
d="M494 199h-98v-199h-43v199h-299v39l297 429h45v-428h98v-40zM353 239v361l-249 -361h249z" />
    <glyph glyph-name="five" unicode="5" horiz-adv-x="562" 
d="M483 203c0 -150 -54 -210 -206 -210c-125 0 -191 36 -191 142h41c0 -76 44 -101 150 -101c122 0 163 39 163 165c0 117 -21 178 -151 178c-98 0 -149 -29 -152 -88h-40v378h364v-40h-323v-261c27 35 81 52 153 52c150 0 192 -76 192 -215z" />
    <glyph glyph-name="six" unicode="6" horiz-adv-x="559" 
d="M482 204c0 -146 -60 -211 -198 -211c-93 0 -160 38 -186 109c-14 39 -21 108 -21 203c0 106 4 187 13 236c16 93 81 133 197 133s185 -41 185 -141h-42c0 69 -47 101 -142 101c-91 0 -133 -26 -151 -85c-17 -56 -16 -157 -16 -218c29 53 82 87 167 87
c141 0 194 -60 194 -214zM440 203c0 132 -38 174 -147 174c-113 0 -168 -55 -168 -169c0 -123 49 -174 158 -174c113 0 157 45 157 169z" />
    <glyph glyph-name="seven" unicode="7" horiz-adv-x="455" 
d="M427 628l-291 -628h-47l292 627h-352v40h398v-39z" />
    <glyph glyph-name="eight" unicode="8" horiz-adv-x="562" 
d="M485 181c0 -144 -66 -188 -204 -188s-204 44 -204 188c0 101 32 149 103 166c-83 22 -97 74 -97 156c0 126 55 171 198 171s198 -45 198 -171c0 -79 -15 -134 -96 -156c71 -17 102 -65 102 -166zM436 501c0 102 -35 133 -155 133c-121 0 -155 -31 -155 -131
c0 -114 47 -137 155 -137s155 21 155 135zM442 178c0 121 -47 148 -161 148c-117 0 -161 -22 -161 -147c0 -122 44 -145 161 -145c114 0 161 23 161 144z" />
    <glyph glyph-name="nine" unicode="9" horiz-adv-x="557" 
d="M480 362c0 -106 -4 -187 -13 -236c-16 -93 -81 -133 -197 -133s-185 41 -185 141h42c0 -69 47 -101 142 -101c91 0 133 26 151 85c17 56 16 157 16 218c-29 -53 -83 -87 -167 -87c-141 0 -194 60 -194 214c0 146 60 211 198 211c93 0 160 -38 186 -109
c14 -39 21 -108 21 -203zM432 459c0 123 -49 174 -158 174c-113 0 -157 -45 -157 -169c0 -132 38 -174 147 -174c113 0 168 55 168 169z" />
    <glyph glyph-name="Euro.fitted" unicode="&#xe002;" horiz-adv-x="550" 
d="M500 135c0 -115 -84 -142 -188 -142c-191 0 -202 116 -202 266h-52v39h52v72h-52v39h52c0 153 12 265 202 265c101 0 188 -26 188 -141h-42c0 87 -72 101 -146 101c-159 0 -159 -100 -159 -225h182v-39h-182v-72h182v-39h-182c0 -129 -3 -225 159 -225
c75 0 146 14 146 101h42z" />
    <glyph glyph-name="dollar.fitted" horiz-adv-x="550" 
d="M482 188c0 -129 -56 -186 -187 -188v-99l-41 1v98c-122 1 -185 35 -185 134h42c0 -70 41 -93 143 -94v288c-116 8 -180 33 -180 167c0 123 64 170 180 172v95h41v-95c122 -1 180 -35 180 -134h-42c0 70 -36 93 -138 94v-260c135 -13 187 -23 187 -179zM254 369v258
c-98 -1 -138 -34 -138 -137c0 -107 49 -115 138 -121zM441 192c0 116 -37 126 -146 134v-287c105 2 146 44 146 153z" />
    <glyph glyph-name="cent.fitted" horiz-adv-x="550" 
d="M475 131c0 -102 -76 -135 -168 -138v-88h-41v88c-164 5 -182 104 -182 247s18 240 182 245v90h41v-90c92 -2 168 -35 168 -138h-41c0 76 -61 95 -127 97v-410c66 2 127 21 127 97h41zM266 34v410c-136 -5 -139 -90 -139 -204c0 -115 3 -199 139 -206z" />
    <glyph glyph-name="sterling.fitted" horiz-adv-x="550" 
d="M511 0h-449v40h56v275h-56v39h56v107c0 60 -4 123 38 164c32 31 86 49 156 49c92 0 190 -8 190 -141h-42c0 90 -62 101 -138 101c-62 0 -107 -9 -136 -40c-29 -30 -25 -83 -25 -130v-110h295v-39h-295v-275h350v-40z" />
    <glyph glyph-name="florin.fitted" horiz-adv-x="550" 
d="M506 533h-42c0 90 -62 101 -138 101c-62 0 -107 -9 -136 -40c-29 -30 -25 -83 -25 -130v-110h295v-39h-295v-506h-43v506h-56v39h56v107c0 60 -4 123 38 164c32 31 86 49 156 49c92 0 190 -8 190 -141z" />
    <glyph glyph-name="yen.fitted" horiz-adv-x="550" 
d="M517 667l-151 -258h90v-38h-113l-41 -71h154v-39h-158v-261h-43v261h-159v39h156l-43 71h-113v38h91l-153 258h50l194 -332l192 332h47z" />
    <glyph glyph-name="zero.fitted" unicode="&#xf639;" horiz-adv-x="550" 
d="M479 333c0 -146 -3 -194 -16 -231c-25 -75 -87 -109 -188 -109s-162 34 -187 109c-13 37 -16 85 -16 231c0 167 4 212 24 253c30 61 87 88 179 88s149 -27 179 -88c20 -41 25 -86 25 -253zM436 333c0 127 -4 184 -14 216c-18 58 -59 85 -147 85s-128 -27 -146 -85
c-10 -32 -14 -89 -14 -216c0 -146 4 -198 19 -232c20 -46 60 -68 141 -68s121 22 141 68c15 34 20 86 20 232z" />
    <glyph glyph-name="one.fitted" unicode="&#xf6dc;" horiz-adv-x="550" 
d="M311 0h-43v614l-138 -124l-28 28l168 149h41v-667z" />
    <glyph glyph-name="two.fitted" unicode="&#xf63a;" horiz-adv-x="550" 
d="M477 489c0 -61 -15 -105 -48 -137c-49 -47 -164 -70 -219 -93c-73 -31 -85 -61 -85 -132v-87h350v-40h-393v146c0 87 47 125 117 152c59 23 163 45 201 86c23 24 34 55 34 105c0 37 -5 66 -16 88c-19 38 -63 57 -139 57c-105 0 -155 -25 -155 -101h-42
c0 106 69 141 195 141c63 0 117 -13 149 -39c35 -28 51 -75 51 -146z" />
    <glyph glyph-name="three.fitted" unicode="&#xf63b;" horiz-adv-x="550" 
d="M468 182c0 -144 -68 -189 -206 -189c-118 0 -196 31 -196 142h42c0 -75 48 -102 154 -102c113 0 163 27 163 146c0 66 -11 101 -39 122c-26 19 -60 25 -122 25h-94v41h94c105 0 155 20 155 134c0 102 -35 133 -155 133c-107 0 -156 -26 -156 -101h-42
c0 106 70 141 198 141c143 0 198 -45 198 -171c0 -73 -16 -133 -92 -156c76 -19 98 -75 98 -165z" />
    <glyph glyph-name="four.fitted" unicode="&#xf63c;" horiz-adv-x="550" 
d="M492 199h-98v-199h-43v199h-299v39l297 429h45v-428h98v-40zM351 239v361l-249 -361h249z" />
    <glyph glyph-name="five.fitted" unicode="&#xf63d;" horiz-adv-x="550" 
d="M481 203c0 -150 -54 -210 -206 -210c-125 0 -191 36 -191 142h41c0 -76 44 -101 150 -101c122 0 163 39 163 165c0 117 -21 178 -151 178c-98 0 -149 -29 -152 -88h-40v378h364v-40h-323v-261c27 35 81 52 153 52c150 0 192 -76 192 -215z" />
    <glyph glyph-name="six.fitted" unicode="&#xf63e;" horiz-adv-x="550" 
d="M478 204c0 -146 -60 -211 -198 -211c-93 0 -160 38 -186 109c-14 39 -21 108 -21 203c0 106 4 187 13 236c16 93 81 133 197 133s185 -41 185 -141h-42c0 69 -47 101 -142 101c-91 0 -133 -26 -151 -85c-17 -56 -16 -157 -16 -218c29 53 82 87 167 87
c141 0 194 -60 194 -214zM436 203c0 132 -38 174 -147 174c-113 0 -168 -55 -168 -169c0 -123 49 -174 158 -174c113 0 157 45 157 169z" />
    <glyph glyph-name="seven.fitted" unicode="&#xf63f;" horiz-adv-x="550" 
d="M482 628l-291 -628h-47l292 627h-352v40h398v-39z" />
    <glyph glyph-name="eight.fitted" unicode="&#xf640;" horiz-adv-x="550" 
d="M480 181c0 -144 -66 -188 -204 -188s-204 44 -204 188c0 101 32 149 103 166c-83 22 -97 74 -97 156c0 126 55 171 198 171s198 -45 198 -171c0 -79 -15 -134 -96 -156c71 -17 102 -65 102 -166zM431 501c0 102 -35 133 -155 133c-121 0 -155 -31 -155 -131
c0 -114 47 -137 155 -137s155 21 155 135zM437 178c0 121 -47 148 -161 148c-117 0 -161 -22 -161 -147c0 -122 44 -145 161 -145c114 0 161 23 161 144z" />
    <glyph glyph-name="nine.fitted" unicode="&#xf641;" horiz-adv-x="550" 
d="M478 362c0 -106 -4 -187 -13 -236c-16 -93 -81 -133 -197 -133s-185 41 -185 141h42c0 -69 47 -101 142 -101c91 0 133 26 151 85c17 56 16 157 16 218c-29 -53 -83 -87 -167 -87c-141 0 -194 60 -194 214c0 146 60 211 198 211c93 0 160 -38 186 -109
c14 -39 21 -108 21 -203zM430 459c0 123 -49 174 -158 174c-113 0 -157 -45 -157 -169c0 -132 38 -174 147 -174c113 0 168 55 168 169z" />
    <glyph glyph-name="Eurooldstyle" horiz-adv-x="562" 
d="M502 135c0 -115 -84 -142 -188 -142c-191 0 -202 116 -202 266h-52v39h52v72h-52v39h52c0 153 12 265 202 265c101 0 188 -26 188 -141h-42c0 87 -72 101 -146 101c-159 0 -159 -100 -159 -225h182v-39h-182v-72h182v-39h-182c0 -129 -3 -225 159 -225
c75 0 146 14 146 101h42z" />
    <glyph glyph-name="dollaroldstyle" horiz-adv-x="552" 
d="M482 188c0 -129 -56 -186 -187 -188v-99l-41 1v98c-122 1 -185 35 -185 134h42c0 -70 41 -93 143 -94v288c-116 8 -180 33 -180 167c0 123 64 170 180 172v95h41v-95c122 -1 180 -35 180 -134h-42c0 70 -36 93 -138 94v-260c135 -13 187 -23 187 -179zM254 369v258
c-98 -1 -138 -34 -138 -137c0 -107 49 -115 138 -121zM441 192c0 116 -37 126 -146 134v-287c105 2 146 44 146 153z" />
    <glyph glyph-name="centoldstyle" horiz-adv-x="515" 
d="M457 131c0 -102 -76 -135 -168 -138v-88h-41v88c-164 5 -182 104 -182 247s18 240 182 245v90h41v-90c92 -2 168 -35 168 -138h-41c0 76 -61 95 -127 97v-410c66 2 127 21 127 97h41zM248 34v410c-136 -5 -139 -90 -139 -204c0 -115 3 -199 139 -206z" />
    <glyph glyph-name="sterlingoldstyle" horiz-adv-x="562" 
d="M513 0h-449v40h56v275h-56v39h56v107c0 60 -4 123 38 164c32 31 86 49 156 49c92 0 190 -8 190 -141h-42c0 90 -62 101 -138 101c-62 0 -107 -9 -136 -40c-29 -30 -25 -83 -25 -130v-110h295v-39h-295v-275h350v-40z" />
    <glyph glyph-name="florinoldstyle" horiz-adv-x="562" 
d="M513 533h-42c0 90 -62 101 -138 101c-62 0 -107 -9 -136 -40c-29 -30 -25 -83 -25 -130v-110h295v-39h-295v-506h-43v506h-56v39h56v107c0 60 -4 123 38 164c32 31 86 49 156 49c92 0 190 -8 190 -141z" />
    <glyph glyph-name="yenoldstyle" horiz-adv-x="533" 
d="M508 667l-151 -258h90v-38h-113l-41 -71h154v-39h-158v-261h-43v261h-159v39h156l-43 71h-113v38h91l-153 258h50l194 -332l192 332h47z" />
    <glyph glyph-name="zerooldstyle" unicode="&#xf730;" horiz-adv-x="561" 
d="M484 333c0 -146 -3 -194 -16 -231c-25 -75 -87 -109 -188 -109s-162 34 -187 109c-13 37 -16 85 -16 231c0 167 4 212 24 253c30 61 87 88 179 88s149 -27 179 -88c20 -41 25 -86 25 -253zM441 333c0 127 -4 184 -14 216c-18 58 -59 85 -147 85s-128 -27 -146 -85
c-10 -32 -14 -89 -14 -216c0 -146 4 -198 19 -232c20 -46 60 -68 141 -68s121 22 141 68c15 34 20 86 20 232z" />
    <glyph glyph-name="oneoldstyle" unicode="&#xf731;" horiz-adv-x="448" 
d="M264 0h-43v614l-138 -124l-28 28l168 149h41v-667z" />
    <glyph glyph-name="twooldstyle" unicode="&#xf732;" horiz-adv-x="550" 
d="M480 489c0 -61 -15 -105 -48 -137c-49 -47 -164 -70 -219 -93c-73 -31 -85 -61 -85 -132v-87h350v-40h-393v146c0 87 47 125 117 152c59 23 163 45 201 86c23 24 34 55 34 105c0 37 -5 66 -16 88c-19 38 -63 57 -139 57c-105 0 -155 -25 -155 -101h-42
c0 106 69 141 195 141c63 0 117 -13 149 -39c35 -28 51 -75 51 -146z" />
    <glyph glyph-name="threeoldstyle" unicode="&#xf733;" horiz-adv-x="551" 
d="M474 182c0 -144 -68 -189 -206 -189c-118 0 -196 31 -196 142h42c0 -75 48 -102 154 -102c113 0 163 27 163 146c0 66 -11 101 -39 122c-26 19 -60 25 -122 25h-94v41h94c105 0 155 20 155 134c0 102 -35 133 -155 133c-107 0 -156 -26 -156 -101h-42
c0 106 70 141 198 141c143 0 198 -45 198 -171c0 -73 -16 -133 -92 -156c76 -19 98 -75 98 -165z" />
    <glyph glyph-name="fouroldstyle" unicode="&#xf734;" horiz-adv-x="552" 
d="M494 199h-98v-199h-43v199h-299v39l297 429h45v-428h98v-40zM353 239v361l-249 -361h249z" />
    <glyph glyph-name="fiveoldstyle" unicode="&#xf735;" horiz-adv-x="562" 
d="M483 203c0 -150 -54 -210 -206 -210c-125 0 -191 36 -191 142h41c0 -76 44 -101 150 -101c122 0 163 39 163 165c0 117 -21 178 -151 178c-98 0 -149 -29 -152 -88h-40v378h364v-40h-323v-261c27 35 81 52 153 52c150 0 192 -76 192 -215z" />
    <glyph glyph-name="sixoldstyle" unicode="&#xf736;" horiz-adv-x="559" 
d="M482 204c0 -146 -60 -211 -198 -211c-93 0 -160 38 -186 109c-14 39 -21 108 -21 203c0 106 4 187 13 236c16 93 81 133 197 133s185 -41 185 -141h-42c0 69 -47 101 -142 101c-91 0 -133 -26 -151 -85c-17 -56 -16 -157 -16 -218c29 53 82 87 167 87
c141 0 194 -60 194 -214zM440 203c0 132 -38 174 -147 174c-113 0 -168 -55 -168 -169c0 -123 49 -174 158 -174c113 0 157 45 157 169z" />
    <glyph glyph-name="sevenoldstyle" unicode="&#xf737;" horiz-adv-x="455" 
d="M427 628l-291 -628h-47l292 627h-352v40h398v-39z" />
    <glyph glyph-name="eightoldstyle" unicode="&#xf738;" horiz-adv-x="562" 
d="M485 181c0 -144 -66 -188 -204 -188s-204 44 -204 188c0 101 32 149 103 166c-83 22 -97 74 -97 156c0 126 55 171 198 171s198 -45 198 -171c0 -79 -15 -134 -96 -156c71 -17 102 -65 102 -166zM436 501c0 102 -35 133 -155 133c-121 0 -155 -31 -155 -131
c0 -114 47 -137 155 -137s155 21 155 135zM442 178c0 121 -47 148 -161 148c-117 0 -161 -22 -161 -147c0 -122 44 -145 161 -145c114 0 161 23 161 144z" />
    <glyph glyph-name="nineoldstyle" unicode="&#xf739;" horiz-adv-x="557" 
d="M480 362c0 -106 -4 -187 -13 -236c-16 -93 -81 -133 -197 -133s-185 41 -185 141h42c0 -69 47 -101 142 -101c91 0 133 26 151 85c17 56 16 157 16 218c-29 -53 -83 -87 -167 -87c-141 0 -194 60 -194 214c0 146 60 211 198 211c93 0 160 -38 186 -109
c14 -39 21 -108 21 -203zM432 459c0 123 -49 174 -158 174c-113 0 -157 -45 -157 -169c0 -132 38 -174 147 -174c113 0 168 55 168 169z" />
    <glyph glyph-name="Euro.taboldstyle" unicode="&#xf64e;" horiz-adv-x="550" 
d="M500 135c0 -115 -84 -142 -188 -142c-191 0 -202 116 -202 266h-52v39h52v72h-52v39h52c0 153 12 265 202 265c101 0 188 -26 188 -141h-42c0 87 -72 101 -146 101c-159 0 -159 -100 -159 -225h182v-39h-182v-72h182v-39h-182c0 -129 -3 -225 159 -225
c75 0 146 14 146 101h42z" />
    <glyph glyph-name="dollar.taboldstyle" unicode="&#xf653;" horiz-adv-x="550" 
d="M482 188c0 -129 -56 -186 -187 -188v-99l-41 1v98c-122 1 -185 35 -185 134h42c0 -70 41 -93 143 -94v288c-116 8 -180 33 -180 167c0 123 64 170 180 172v95h41v-95c122 -1 180 -35 180 -134h-42c0 70 -36 93 -138 94v-260c135 -13 187 -23 187 -179zM254 369v258
c-98 -1 -138 -34 -138 -137c0 -107 49 -115 138 -121zM441 192c0 116 -37 126 -146 134v-287c105 2 146 44 146 153z" />
    <glyph glyph-name="cent.taboldstyle" unicode="&#xf654;" horiz-adv-x="550" 
d="M475 131c0 -102 -76 -135 -168 -138v-88h-41v88c-164 5 -182 104 -182 247s18 240 182 245v90h41v-90c92 -2 168 -35 168 -138h-41c0 76 -61 95 -127 97v-410c66 2 127 21 127 97h41zM266 34v410c-136 -5 -139 -90 -139 -204c0 -115 3 -199 139 -206z" />
    <glyph glyph-name="sterling.taboldstyle" unicode="&#xf651;" horiz-adv-x="550" 
d="M511 0h-449v40h56v275h-56v39h56v107c0 60 -4 123 38 164c32 31 86 49 156 49c92 0 190 -8 190 -141h-42c0 90 -62 101 -138 101c-62 0 -107 -9 -136 -40c-29 -30 -25 -83 -25 -130v-110h295v-39h-295v-275h350v-40z" />
    <glyph glyph-name="florin.taboldstyle" unicode="&#xf64f;" horiz-adv-x="550" 
d="M506 533h-42c0 90 -62 101 -138 101c-62 0 -107 -9 -136 -40c-29 -30 -25 -83 -25 -130v-110h295v-39h-295v-506h-43v506h-56v39h56v107c0 60 -4 123 38 164c32 31 86 49 156 49c92 0 190 -8 190 -141z" />
    <glyph glyph-name="yen.taboldstyle" unicode="&#xf652;" horiz-adv-x="550" 
d="M517 667l-151 -258h90v-38h-113l-41 -71h154v-39h-158v-261h-43v261h-159v39h156l-43 71h-113v38h91l-153 258h50l194 -332l192 332h47z" />
    <glyph glyph-name="zero.taboldstyle" unicode="&#xf643;" horiz-adv-x="550" 
d="M479 333c0 -146 -3 -194 -16 -231c-25 -75 -87 -109 -188 -109s-162 34 -187 109c-13 37 -16 85 -16 231c0 167 4 212 24 253c30 61 87 88 179 88s149 -27 179 -88c20 -41 25 -86 25 -253zM436 333c0 127 -4 184 -14 216c-18 58 -59 85 -147 85s-128 -27 -146 -85
c-10 -32 -14 -89 -14 -216c0 -146 4 -198 19 -232c20 -46 60 -68 141 -68s121 22 141 68c15 34 20 86 20 232z" />
    <glyph glyph-name="one.taboldstyle" unicode="&#xf644;" horiz-adv-x="550" 
d="M311 0h-43v614l-138 -124l-28 28l168 149h41v-667z" />
    <glyph glyph-name="two.taboldstyle" unicode="&#xf645;" horiz-adv-x="550" 
d="M477 489c0 -61 -15 -105 -48 -137c-49 -47 -164 -70 -219 -93c-73 -31 -85 -61 -85 -132v-87h350v-40h-393v146c0 87 47 125 117 152c59 23 163 45 201 86c23 24 34 55 34 105c0 37 -5 66 -16 88c-19 38 -63 57 -139 57c-105 0 -155 -25 -155 -101h-42
c0 106 69 141 195 141c63 0 117 -13 149 -39c35 -28 51 -75 51 -146z" />
    <glyph glyph-name="three.taboldstyle" unicode="&#xf646;" horiz-adv-x="550" 
d="M468 182c0 -144 -68 -189 -206 -189c-118 0 -196 31 -196 142h42c0 -75 48 -102 154 -102c113 0 163 27 163 146c0 66 -11 101 -39 122c-26 19 -60 25 -122 25h-94v41h94c105 0 155 20 155 134c0 102 -35 133 -155 133c-107 0 -156 -26 -156 -101h-42
c0 106 70 141 198 141c143 0 198 -45 198 -171c0 -73 -16 -133 -92 -156c76 -19 98 -75 98 -165z" />
    <glyph glyph-name="four.taboldstyle" unicode="&#xf647;" horiz-adv-x="550" 
d="M492 199h-98v-199h-43v199h-299v39l297 429h45v-428h98v-40zM351 239v361l-249 -361h249z" />
    <glyph glyph-name="five.taboldstyle" unicode="&#xf648;" horiz-adv-x="550" 
d="M481 203c0 -150 -54 -210 -206 -210c-125 0 -191 36 -191 142h41c0 -76 44 -101 150 -101c122 0 163 39 163 165c0 117 -21 178 -151 178c-98 0 -149 -29 -152 -88h-40v378h364v-40h-323v-261c27 35 81 52 153 52c150 0 192 -76 192 -215z" />
    <glyph glyph-name="six.taboldstyle" unicode="&#xf649;" horiz-adv-x="550" 
d="M478 204c0 -146 -60 -211 -198 -211c-93 0 -160 38 -186 109c-14 39 -21 108 -21 203c0 106 4 187 13 236c16 93 81 133 197 133s185 -41 185 -141h-42c0 69 -47 101 -142 101c-91 0 -133 -26 -151 -85c-17 -56 -16 -157 -16 -218c29 53 82 87 167 87
c141 0 194 -60 194 -214zM436 203c0 132 -38 174 -147 174c-113 0 -168 -55 -168 -169c0 -123 49 -174 158 -174c113 0 157 45 157 169z" />
    <glyph glyph-name="seven.taboldstyle" unicode="&#xf64a;" horiz-adv-x="550" 
d="M482 628l-291 -628h-47l292 627h-352v40h398v-39z" />
    <glyph glyph-name="eight.taboldstyle" unicode="&#xf64b;" horiz-adv-x="550" 
d="M480 181c0 -144 -66 -188 -204 -188s-204 44 -204 188c0 101 32 149 103 166c-83 22 -97 74 -97 156c0 126 55 171 198 171s198 -45 198 -171c0 -79 -15 -134 -96 -156c71 -17 102 -65 102 -166zM431 501c0 102 -35 133 -155 133c-121 0 -155 -31 -155 -131
c0 -114 47 -137 155 -137s155 21 155 135zM437 178c0 121 -47 148 -161 148c-117 0 -161 -22 -161 -147c0 -122 44 -145 161 -145c114 0 161 23 161 144z" />
    <glyph glyph-name="nine.taboldstyle" unicode="&#xf64c;" horiz-adv-x="550" 
d="M478 362c0 -106 -4 -187 -13 -236c-16 -93 -81 -133 -197 -133s-185 41 -185 141h42c0 -69 47 -101 142 -101c91 0 133 26 151 85c17 56 16 157 16 218c-29 -53 -83 -87 -167 -87c-141 0 -194 60 -194 214c0 146 60 211 198 211c93 0 160 -38 186 -109
c14 -39 21 -108 21 -203zM430 459c0 123 -49 174 -158 174c-113 0 -157 -45 -157 -169c0 -132 38 -174 147 -174c113 0 168 55 168 169z" />
    <glyph glyph-name="zerosuperior" unicode="&#x2070;" 
d="M307 467c0 -131 -3 -206 -125 -206s-125 75 -125 206s3 206 125 206s125 -75 125 -206zM270 467c0 129 -5 171 -88 171s-88 -42 -88 -171c0 -131 5 -171 88 -171s88 40 88 171z" />
    <glyph glyph-name="onesuperior" unicode="&#xb9;" 
d="M210 267h-38v349l-69 -63l-25 24l98 90h34v-400z" />
    <glyph glyph-name="twosuperior" unicode="&#xb2;" 
d="M308 560c0 -93 -55 -105 -132 -126c-59 -16 -83 -24 -83 -87v-45h214v-35h-252v90c0 89 61 97 129 116c49 14 87 26 87 87s-28 78 -89 78c-59 0 -90 -11 -90 -57h-38c0 71 48 92 127 92c82 0 127 -25 127 -113z" />
    <glyph glyph-name="threesuperior" unicode="&#xb3;" 
d="M314 376c0 -91 -48 -115 -132 -115c-80 0 -128 22 -128 94h38c1 -44 27 -59 90 -59c66 0 95 7 95 79s-27 86 -93 86h-64v34h64c56 0 89 7 89 70c0 56 -17 73 -89 73c-63 0 -90 -14 -90 -59h-37c0 70 47 94 127 94c89 0 126 -28 126 -106c0 -41 -5 -73 -46 -89
c36 -13 50 -46 50 -102z" />
    <glyph glyph-name="foursuperior" unicode="&#x2074;" 
d="M316 379h-62v-112h-37v112h-180v33l182 255h35v-256h62v-32zM217 411v198l-138 -198h138z" />
    <glyph glyph-name="fivesuperior" unicode="&#x2075;" 
d="M308 388c0 -91 -33 -127 -128 -127c-78 0 -119 24 -120 94h35c0 -46 26 -59 85 -59c67 0 91 20 91 90c0 65 -11 100 -84 100c-54 0 -84 -18 -86 -52h-34v233h228v-33h-192v-145c21 25 51 31 85 31c93 0 120 -46 120 -132z" />
    <glyph glyph-name="sixsuperior" unicode="&#x2076;" 
d="M305 390c0 -89 -37 -129 -122 -129c-121 0 -127 87 -127 192c0 140 4 220 130 220c69 0 113 -28 113 -95h-36c0 40 -26 60 -77 60c-82 0 -90 -34 -93 -153c19 24 49 38 93 38c86 0 119 -38 119 -133zM269 390c0 73 -21 98 -80 98c-63 0 -93 -33 -93 -95
c0 -68 27 -97 87 -97c62 0 86 25 86 94z" />
    <glyph glyph-name="sevensuperior" unicode="&#x2077;" 
d="M311 637l-173 -370h-41l172 366h-203v34h245v-30z" />
    <glyph glyph-name="eightsuperior" unicode="&#x2078;" 
d="M308 378c0 -89 -41 -117 -126 -117s-125 28 -125 117c0 54 14 83 48 97c-39 16 -44 46 -44 92c0 77 33 106 121 106s122 -29 122 -106c0 -43 -8 -74 -43 -91c35 -14 47 -43 47 -98zM271 376c0 67 -26 82 -89 82c-64 0 -88 -13 -88 -81c0 -67 24 -81 88 -81
c63 0 89 14 89 80zM267 565c0 55 -19 72 -85 72s-85 -17 -85 -70c0 -62 26 -76 85 -76s85 12 85 74z" />
    <glyph glyph-name="ninesuperior" unicode="&#x2079;" 
d="M60 544c0 89 37 129 122 129c121 0 127 -86 127 -191c0 -150 -4 -221 -130 -221c-69 0 -113 28 -113 95h36c0 -40 26 -60 77 -60c82 0 93 33 93 153c-19 -24 -49 -38 -93 -38c-86 0 -119 38 -119 133zM96 544c0 -73 21 -98 80 -98c63 0 93 33 93 95c0 68 -27 97 -87 97
c-62 0 -86 -25 -86 -94z" />
    <glyph glyph-name="parenleftsuperior" unicode="&#x207d;" horiz-adv-x="200" 
d="M68 457c0 96 7 178 17 215c15 42 48 64 115 65v-36c-54 -1 -68 -13 -76 -33c-10 -25 -18 -108 -18 -210c0 -100 9 -181 18 -208c8 -19 22 -31 76 -32v-36c-67 1 -101 20 -115 65c-10 36 -17 114 -17 210z" />
    <glyph glyph-name="parenrightsuperior" unicode="&#x207e;" horiz-adv-x="200" 
d="M132 457c0 -96 -7 -174 -17 -210c-14 -45 -48 -64 -115 -65v36c54 1 68 13 76 32c9 27 18 108 18 208c0 102 -8 185 -18 210c-8 20 -22 32 -76 33v36c67 -1 100 -23 115 -65c10 -37 17 -119 17 -215z" />
    <glyph glyph-name="zeroinferior" unicode="&#x2080;" 
d="M307 200c0 -131 -3 -206 -125 -206s-125 75 -125 206s3 206 125 206s125 -75 125 -206zM270 200c0 129 -5 171 -88 171s-88 -42 -88 -171c0 -131 5 -171 88 -171s88 40 88 171z" />
    <glyph glyph-name="oneinferior" unicode="&#x2081;" 
d="M210 0h-38v349l-69 -63l-25 24l98 90h34v-400z" />
    <glyph glyph-name="twoinferior" unicode="&#x2082;" 
d="M308 293c0 -93 -55 -105 -132 -126c-59 -16 -83 -24 -83 -87v-45h214v-35h-252v90c0 89 61 97 129 116c49 14 87 26 87 87s-28 78 -89 78c-59 0 -90 -11 -90 -57h-38c0 71 48 92 127 92c82 0 127 -25 127 -113z" />
    <glyph glyph-name="threeinferior" unicode="&#x2083;" 
d="M314 109c0 -91 -48 -115 -132 -115c-80 0 -128 22 -128 94h38c1 -44 27 -59 90 -59c66 0 95 7 95 79s-27 86 -93 86h-64v34h64c56 0 89 7 89 70c0 56 -17 73 -89 73c-63 0 -90 -14 -90 -59h-37c0 70 47 94 127 94c89 0 126 -28 126 -106c0 -41 -5 -73 -46 -89
c36 -13 50 -46 50 -102z" />
    <glyph glyph-name="fourinferior" unicode="&#x2084;" 
d="M316 112h-62v-112h-37v112h-180v33l182 255h35v-256h62v-32zM217 144v198l-138 -198h138z" />
    <glyph glyph-name="fiveinferior" unicode="&#x2085;" 
d="M308 121c0 -91 -33 -127 -128 -127c-78 0 -119 24 -120 94h35c0 -46 26 -59 85 -59c67 0 91 20 91 90c0 65 -11 100 -84 100c-54 0 -84 -18 -86 -52h-34v233h228v-33h-192v-145c21 25 51 31 85 31c93 0 120 -46 120 -132z" />
    <glyph glyph-name="sixinferior" unicode="&#x2086;" 
d="M305 123c0 -89 -37 -129 -122 -129c-121 0 -127 87 -127 192c0 140 4 220 130 220c69 0 113 -28 113 -95h-36c0 40 -26 60 -77 60c-82 0 -90 -34 -93 -153c19 24 49 38 93 38c86 0 119 -38 119 -133zM269 123c0 73 -21 98 -80 98c-63 0 -93 -33 -93 -95
c0 -68 27 -97 87 -97c62 0 86 25 86 94z" />
    <glyph glyph-name="seveninferior" unicode="&#x2087;" 
d="M311 370l-173 -370h-41l172 366h-203v34h245v-30z" />
    <glyph glyph-name="eightinferior" unicode="&#x2088;" 
d="M308 111c0 -89 -41 -117 -126 -117s-125 28 -125 117c0 54 14 83 48 97c-39 16 -44 46 -44 92c0 77 33 106 121 106s122 -29 122 -106c0 -43 -8 -74 -43 -91c35 -14 47 -43 47 -98zM271 109c0 67 -26 82 -89 82c-64 0 -88 -13 -88 -81c0 -67 24 -81 88 -81
c63 0 89 14 89 80zM267 298c0 55 -19 72 -85 72s-85 -17 -85 -70c0 -62 26 -76 85 -76s85 12 85 74z" />
    <glyph glyph-name="nineinferior" unicode="&#x2089;" 
d="M60 277c0 89 37 129 122 129c121 0 127 -86 127 -191c0 -150 -4 -221 -130 -221c-69 0 -113 28 -113 95h36c0 -40 26 -60 77 -60c82 0 93 33 93 153c-19 -24 -49 -38 -93 -38c-86 0 -119 38 -119 133zM96 277c0 -73 21 -98 80 -98c63 0 93 33 93 95c0 68 -27 97 -87 97
c-62 0 -86 -25 -86 -94z" />
    <glyph glyph-name="parenleftinferior" unicode="&#x208d;" horiz-adv-x="200" 
d="M68 190c0 96 7 178 17 215c15 42 48 64 115 65v-36c-54 -1 -68 -13 -76 -33c-10 -25 -18 -108 -18 -210c0 -100 9 -181 18 -208c8 -19 22 -31 76 -32v-36c-67 1 -101 20 -115 65c-10 36 -17 114 -17 210z" />
    <glyph glyph-name="parenrightinferior" unicode="&#x208e;" horiz-adv-x="200" 
d="M132 190c0 -96 -7 -174 -17 -210c-14 -45 -48 -64 -115 -65v36c54 1 68 13 76 32c9 27 18 108 18 208c0 102 -8 185 -18 210c-8 20 -22 32 -76 33v36c67 -1 100 -23 115 -65c10 -37 17 -119 17 -215z" />
    <glyph glyph-name="zero.dnom" unicode="&#xf655;" 
d="M307 200c0 -131 -3 -206 -125 -206s-125 75 -125 206s3 206 125 206s125 -75 125 -206zM270 200c0 129 -5 171 -88 171s-88 -42 -88 -171c0 -131 5 -171 88 -171s88 40 88 171z" />
    <glyph glyph-name="one.dnom" unicode="&#xf656;" 
d="M210 0h-38v349l-69 -63l-25 24l98 90h34v-400z" />
    <glyph glyph-name="two.dnom" unicode="&#xf657;" 
d="M308 293c0 -93 -55 -105 -132 -126c-59 -16 -83 -24 -83 -87v-45h214v-35h-252v90c0 89 61 97 129 116c49 14 87 26 87 87s-28 78 -89 78c-59 0 -90 -11 -90 -57h-38c0 71 48 92 127 92c82 0 127 -25 127 -113z" />
    <glyph glyph-name="three.dnom" unicode="&#xf658;" 
d="M314 109c0 -91 -48 -115 -132 -115c-80 0 -128 22 -128 94h38c1 -44 27 -59 90 -59c66 0 95 7 95 79s-27 86 -93 86h-64v34h64c56 0 89 7 89 70c0 56 -17 73 -89 73c-63 0 -90 -14 -90 -59h-37c0 70 47 94 127 94c89 0 126 -28 126 -106c0 -41 -5 -73 -46 -89
c36 -13 50 -46 50 -102z" />
    <glyph glyph-name="four.dnom" unicode="&#xf659;" 
d="M316 112h-62v-112h-37v112h-180v33l182 255h35v-256h62v-32zM217 144v198l-138 -198h138z" />
    <glyph glyph-name="five.dnom" unicode="&#xf65a;" 
d="M308 121c0 -91 -33 -127 -128 -127c-78 0 -119 24 -120 94h35c0 -46 26 -59 85 -59c67 0 91 20 91 90c0 65 -11 100 -84 100c-54 0 -84 -18 -86 -52h-34v233h228v-33h-192v-145c21 25 51 31 85 31c93 0 120 -46 120 -132z" />
    <glyph glyph-name="six.dnom" unicode="&#xf65b;" 
d="M305 123c0 -89 -37 -129 -122 -129c-121 0 -127 87 -127 192c0 140 4 220 130 220c69 0 113 -28 113 -95h-36c0 40 -26 60 -77 60c-82 0 -90 -34 -93 -153c19 24 49 38 93 38c86 0 119 -38 119 -133zM269 123c0 73 -21 98 -80 98c-63 0 -93 -33 -93 -95
c0 -68 27 -97 87 -97c62 0 86 25 86 94z" />
    <glyph glyph-name="seven.dnom" unicode="&#xf65c;" 
d="M311 370l-173 -370h-41l172 366h-203v34h245v-30z" />
    <glyph glyph-name="eight.dnom" unicode="&#xf65d;" 
d="M308 111c0 -89 -41 -117 -126 -117s-125 28 -125 117c0 54 14 83 48 97c-39 16 -44 46 -44 92c0 77 33 106 121 106s122 -29 122 -106c0 -43 -8 -74 -43 -91c35 -14 47 -43 47 -98zM271 109c0 67 -26 82 -89 82c-64 0 -88 -13 -88 -81c0 -67 24 -81 88 -81
c63 0 89 14 89 80zM267 298c0 55 -19 72 -85 72s-85 -17 -85 -70c0 -62 26 -76 85 -76s85 12 85 74z" />
    <glyph glyph-name="nine.dnom" unicode="&#xf65e;" 
d="M60 277c0 89 37 129 122 129c121 0 127 -86 127 -191c0 -150 -4 -221 -130 -221c-69 0 -113 28 -113 95h36c0 -40 26 -60 77 -60c82 0 93 33 93 153c-19 -24 -49 -38 -93 -38c-86 0 -119 38 -119 133zM96 277c0 -73 21 -98 80 -98c63 0 93 33 93 95c0 68 -27 97 -87 97
c-62 0 -86 -25 -86 -94z" />
    <glyph glyph-name="parenleft.dnom" unicode="&#xf62c;" horiz-adv-x="200" 
d="M68 190c0 96 7 178 17 215c15 42 48 64 115 65v-36c-54 -1 -68 -13 -76 -33c-10 -25 -18 -108 -18 -210c0 -100 9 -181 18 -208c8 -19 22 -31 76 -32v-36c-67 1 -101 20 -115 65c-10 36 -17 114 -17 210z" />
    <glyph glyph-name="parenright.dnom" unicode="&#xf62d;" horiz-adv-x="200" 
d="M132 190c0 -96 -7 -174 -17 -210c-14 -45 -48 -64 -115 -65v36c54 1 68 13 76 32c9 27 18 108 18 208c0 102 -8 185 -18 210c-8 20 -22 32 -76 33v36c67 -1 100 -23 115 -65c10 -37 17 -119 17 -215z" />
    <glyph glyph-name="zero.numr" unicode="&#xf661;" 
d="M307 467c0 -131 -3 -206 -125 -206s-125 75 -125 206s3 206 125 206s125 -75 125 -206zM270 467c0 129 -5 171 -88 171s-88 -42 -88 -171c0 -131 5 -171 88 -171s88 40 88 171z" />
    <glyph glyph-name="one.numr" unicode="&#xf662;" 
d="M210 267h-38v349l-69 -63l-25 24l98 90h34v-400z" />
    <glyph glyph-name="two.numr" unicode="&#xf663;" 
d="M308 560c0 -93 -55 -105 -132 -126c-59 -16 -83 -24 -83 -87v-45h214v-35h-252v90c0 89 61 97 129 116c49 14 87 26 87 87s-28 78 -89 78c-59 0 -90 -11 -90 -57h-38c0 71 48 92 127 92c82 0 127 -25 127 -113z" />
    <glyph glyph-name="three.numr" unicode="&#xf664;" 
d="M314 376c0 -91 -48 -115 -132 -115c-80 0 -128 22 -128 94h38c1 -44 27 -59 90 -59c66 0 95 7 95 79s-27 86 -93 86h-64v34h64c56 0 89 7 89 70c0 56 -17 73 -89 73c-63 0 -90 -14 -90 -59h-37c0 70 47 94 127 94c89 0 126 -28 126 -106c0 -41 -5 -73 -46 -89
c36 -13 50 -46 50 -102z" />
    <glyph glyph-name="four.numr" unicode="&#xf665;" 
d="M316 379h-62v-112h-37v112h-180v33l182 255h35v-256h62v-32zM217 411v198l-138 -198h138z" />
    <glyph glyph-name="five.numr" unicode="&#xf666;" 
d="M308 388c0 -91 -33 -127 -128 -127c-78 0 -119 24 -120 94h35c0 -46 26 -59 85 -59c67 0 91 20 91 90c0 65 -11 100 -84 100c-54 0 -84 -18 -86 -52h-34v233h228v-33h-192v-145c21 25 51 31 85 31c93 0 120 -46 120 -132z" />
    <glyph glyph-name="six.numr" unicode="&#xf667;" 
d="M305 390c0 -89 -37 -129 -122 -129c-121 0 -127 87 -127 192c0 140 4 220 130 220c69 0 113 -28 113 -95h-36c0 40 -26 60 -77 60c-82 0 -90 -34 -93 -153c19 24 49 38 93 38c86 0 119 -38 119 -133zM269 390c0 73 -21 98 -80 98c-63 0 -93 -33 -93 -95
c0 -68 27 -97 87 -97c62 0 86 25 86 94z" />
    <glyph glyph-name="seven.numr" unicode="&#xf668;" 
d="M311 637l-173 -370h-41l172 366h-203v34h245v-30z" />
    <glyph glyph-name="eight.numr" unicode="&#xf669;" 
d="M308 378c0 -89 -41 -117 -126 -117s-125 28 -125 117c0 54 14 83 48 97c-39 16 -44 46 -44 92c0 77 33 106 121 106s122 -29 122 -106c0 -43 -8 -74 -43 -91c35 -14 47 -43 47 -98zM271 376c0 67 -26 82 -89 82c-64 0 -88 -13 -88 -81c0 -67 24 -81 88 -81
c63 0 89 14 89 80zM267 565c0 55 -19 72 -85 72s-85 -17 -85 -70c0 -62 26 -76 85 -76s85 12 85 74z" />
    <glyph glyph-name="nine.numr" unicode="&#xf66a;" 
d="M60 544c0 89 37 129 122 129c121 0 127 -86 127 -191c0 -150 -4 -221 -130 -221c-69 0 -113 28 -113 95h36c0 -40 26 -60 77 -60c82 0 93 33 93 153c-19 -24 -49 -38 -93 -38c-86 0 -119 38 -119 133zM96 544c0 -73 21 -98 80 -98c63 0 93 33 93 95c0 68 -27 97 -87 97
c-62 0 -86 -25 -86 -94z" />
    <glyph glyph-name="parenleft.numr" unicode="&#xf631;" horiz-adv-x="200" 
d="M68 457c0 96 7 178 17 215c15 42 48 64 115 65v-36c-54 -1 -68 -13 -76 -33c-10 -25 -18 -108 -18 -210c0 -100 9 -181 18 -208c8 -19 22 -31 76 -32v-36c-67 1 -101 20 -115 65c-10 36 -17 114 -17 210z" />
    <glyph glyph-name="parenright.numr" unicode="&#xf632;" horiz-adv-x="200" 
d="M132 457c0 -96 -7 -174 -17 -210c-14 -45 -48 -64 -115 -65v36c54 1 68 13 76 32c9 27 18 108 18 208c0 102 -8 185 -18 210c-8 20 -22 32 -76 33v36c67 -1 100 -23 115 -65c10 -37 17 -119 17 -215z" />
    <glyph glyph-name="fraction" unicode="&#x2044;" horiz-adv-x="94" 
d="M236 667l-338 -667h-39l336 667h41z" />
    <glyph glyph-name="onehalf" unicode="&#xbd;" horiz-adv-x="824" 
d="M767 293c0 -93 -55 -105 -132 -126c-59 -16 -83 -24 -83 -87v-45h214v-35h-252v90c0 89 61 97 129 116c49 14 87 26 87 87s-28 78 -89 78c-59 0 -90 -11 -90 -57h-38c0 71 48 92 127 92c82 0 127 -25 127 -113zM599 667l-338 -667h-39l336 667h41zM210 267h-38v349
l-69 -63l-25 24l98 90h34v-400z" />
    <glyph glyph-name="onethird" unicode="&#x2153;" horiz-adv-x="824" 
d="M773 109c0 -91 -48 -115 -132 -115c-80 0 -128 22 -128 94h38c1 -44 27 -59 90 -59c66 0 95 7 95 79s-27 86 -93 86h-64v34h64c56 0 89 7 89 70c0 56 -17 73 -89 73c-63 0 -90 -14 -90 -59h-37c0 70 47 94 127 94c89 0 126 -28 126 -106c0 -41 -5 -73 -46 -89
c36 -13 50 -46 50 -102zM599 667l-338 -667h-39l336 667h41zM210 267h-38v349l-69 -63l-25 24l98 90h34v-400z" />
    <glyph glyph-name="twothirds" unicode="&#x2154;" horiz-adv-x="824" 
d="M593 667l-338 -667h-39l336 667h41zM773 109c0 -91 -48 -115 -132 -115c-80 0 -128 22 -128 94h38c1 -44 27 -59 90 -59c66 0 95 7 95 79s-27 86 -93 86h-64v34h64c56 0 89 7 89 70c0 56 -17 73 -89 73c-63 0 -90 -14 -90 -59h-37c0 70 47 94 127 94
c89 0 126 -28 126 -106c0 -41 -5 -73 -46 -89c36 -13 50 -46 50 -102zM308 560c0 -93 -55 -105 -132 -126c-59 -16 -83 -24 -83 -87v-45h214v-35h-252v90c0 89 61 97 129 116c49 14 87 26 87 87s-28 78 -89 78c-59 0 -90 -11 -90 -57h-38c0 71 48 92 127 92
c82 0 127 -25 127 -113z" />
    <glyph glyph-name="onequarter" unicode="&#xbc;" horiz-adv-x="824" 
d="M775 112h-62v-112h-37v112h-180v33l182 255h35v-256h62v-32zM676 144v198l-138 -198h138zM599 667l-338 -667h-39l336 667h41zM210 267h-38v349l-69 -63l-25 24l98 90h34v-400z" />
    <glyph glyph-name="threequarters" unicode="&#xbe;" horiz-adv-x="824" 
d="M775 112h-62v-112h-37v112h-180v33l182 255h35v-256h62v-32zM676 144v198l-138 -198h138zM314 376c0 -91 -48 -115 -132 -115c-80 0 -128 22 -128 94h38c1 -44 27 -59 90 -59c66 0 95 7 95 79s-27 86 -93 86h-64v34h64c56 0 89 7 89 70c0 56 -17 73 -89 73
c-63 0 -90 -14 -90 -59h-37c0 70 47 94 127 94c89 0 126 -28 126 -106c0 -41 -5 -73 -46 -89c36 -13 50 -46 50 -102zM599 667l-338 -667h-39l336 667h41z" />
    <glyph glyph-name="oneeighth" unicode="&#x215b;" horiz-adv-x="824" 
d="M767 111c0 -89 -41 -117 -126 -117s-125 28 -125 117c0 54 14 83 48 97c-39 16 -44 46 -44 92c0 77 33 106 121 106s122 -29 122 -106c0 -43 -8 -74 -43 -91c35 -14 47 -43 47 -98zM730 109c0 67 -26 82 -89 82c-64 0 -88 -13 -88 -81c0 -67 24 -81 88 -81
c63 0 89 14 89 80zM726 298c0 55 -19 72 -85 72s-85 -17 -85 -70c0 -62 26 -76 85 -76s85 12 85 74zM599 667l-338 -667h-39l336 667h41zM210 267h-38v349l-69 -63l-25 24l98 90h34v-400z" />
    <glyph glyph-name="threeeighths" unicode="&#x215c;" horiz-adv-x="824" 
d="M767 111c0 -89 -41 -117 -126 -117s-125 28 -125 117c0 54 14 83 48 97c-39 16 -44 46 -44 92c0 77 33 106 121 106s122 -29 122 -106c0 -43 -8 -74 -43 -91c35 -14 47 -43 47 -98zM730 109c0 67 -26 82 -89 82c-64 0 -88 -13 -88 -81c0 -67 24 -81 88 -81
c63 0 89 14 89 80zM726 298c0 55 -19 72 -85 72s-85 -17 -85 -70c0 -62 26 -76 85 -76s85 12 85 74zM314 376c0 -91 -48 -115 -132 -115c-80 0 -128 22 -128 94h38c1 -44 27 -59 90 -59c66 0 95 7 95 79s-27 86 -93 86h-64v34h64c56 0 89 7 89 70c0 56 -17 73 -89 73
c-63 0 -90 -14 -90 -59h-37c0 70 47 94 127 94c89 0 126 -28 126 -106c0 -41 -5 -73 -46 -89c36 -13 50 -46 50 -102zM599 667l-338 -667h-39l336 667h41z" />
    <glyph glyph-name="fiveeighths" unicode="&#x215d;" horiz-adv-x="824" 
d="M767 111c0 -89 -41 -117 -126 -117s-125 28 -125 117c0 54 14 83 48 97c-39 16 -44 46 -44 92c0 77 33 106 121 106s122 -29 122 -106c0 -43 -8 -74 -43 -91c35 -14 47 -43 47 -98zM730 109c0 67 -26 82 -89 82c-64 0 -88 -13 -88 -81c0 -67 24 -81 88 -81
c63 0 89 14 89 80zM726 298c0 55 -19 72 -85 72s-85 -17 -85 -70c0 -62 26 -76 85 -76s85 12 85 74zM308 388c0 -91 -33 -127 -128 -127c-78 0 -119 24 -120 94h35c0 -46 26 -59 85 -59c67 0 91 20 91 90c0 65 -11 100 -84 100c-54 0 -84 -18 -86 -52h-34v233h228v-33h-192
v-145c21 25 51 31 85 31c93 0 120 -46 120 -132zM599 667l-338 -667h-39l336 667h41z" />
    <glyph glyph-name="seveneighths" unicode="&#x215e;" horiz-adv-x="824" 
d="M311 637l-173 -370h-41l172 366h-203v34h245v-30zM767 111c0 -89 -41 -117 -126 -117s-125 28 -125 117c0 54 14 83 48 97c-39 16 -44 46 -44 92c0 77 33 106 121 106s122 -29 122 -106c0 -43 -8 -74 -43 -91c35 -14 47 -43 47 -98zM730 109c0 67 -26 82 -89 82
c-64 0 -88 -13 -88 -81c0 -67 24 -81 88 -81c63 0 89 14 89 80zM726 298c0 55 -19 72 -85 72s-85 -17 -85 -70c0 -62 26 -76 85 -76s85 12 85 74zM599 667l-338 -667h-39l336 667h41z" />
    <glyph glyph-name="percent" unicode="%" horiz-adv-x="824" 
d="M599 667l-338 -667h-39l336 667h41zM307 467c0 -86 -2 -115 -10 -138c-16 -47 -54 -68 -115 -68c-62 0 -99 21 -115 68c-8 23 -10 52 -10 138c0 99 2 126 14 150c19 39 55 56 111 56s91 -17 110 -56c12 -24 15 -51 15 -150zM270 467c0 73 -2 105 -8 124
c-9 31 -32 45 -80 45s-71 -14 -80 -45c-6 -19 -8 -51 -8 -124c0 -85 2 -116 11 -135c10 -24 32 -36 77 -36s67 12 77 36c8 19 11 50 11 135zM766 200c0 -86 -2 -115 -10 -138c-16 -47 -54 -68 -115 -68c-62 0 -99 21 -115 68c-8 23 -10 52 -10 138c0 99 2 126 14 150
c19 39 55 56 111 56s91 -17 110 -56c12 -24 15 -51 15 -150zM729 200c0 73 -2 105 -8 124c-9 31 -32 45 -80 45s-71 -14 -80 -45c-6 -19 -8 -51 -8 -124c0 -85 2 -116 11 -135c10 -24 32 -36 77 -36s67 12 77 36c8 19 11 50 11 135z" />
    <glyph glyph-name="perthousand" unicode="&#x2030;" horiz-adv-x="1141" 
d="M307 467c0 -86 -2 -115 -10 -138c-16 -47 -54 -68 -115 -68c-62 0 -99 21 -115 68c-8 23 -10 52 -10 138c0 99 2 126 14 150c19 39 55 56 111 56s91 -17 110 -56c12 -24 15 -51 15 -150zM270 467c0 73 -2 105 -8 124c-9 31 -32 45 -80 45s-71 -14 -80 -45
c-6 -19 -8 -51 -8 -124c0 -85 2 -116 11 -135c10 -24 32 -36 77 -36s67 12 77 36c8 19 11 50 11 135zM766 200c0 -86 -2 -115 -10 -138c-16 -47 -54 -68 -115 -68c-62 0 -99 21 -115 68c-8 23 -10 52 -10 138c0 99 2 126 14 150c19 39 55 56 111 56s91 -17 110 -56
c12 -24 15 -51 15 -150zM729 200c0 73 -2 105 -8 124c-9 31 -32 45 -80 45s-71 -14 -80 -45c-6 -19 -8 -51 -8 -124c0 -85 2 -116 11 -135c10 -24 32 -36 77 -36s67 12 77 36c8 19 11 50 11 135zM1083 200c0 -86 -2 -115 -10 -138c-16 -47 -54 -68 -115 -68
c-62 0 -99 21 -115 68c-8 23 -10 52 -10 138c0 99 2 126 14 150c19 39 55 56 111 56s91 -17 110 -56c12 -24 15 -51 15 -150zM1046 200c0 73 -2 105 -8 124c-9 31 -32 45 -80 45s-71 -14 -80 -45c-6 -19 -8 -51 -8 -124c0 -85 2 -116 11 -135c10 -24 32 -36 77 -36
s67 12 77 36c8 19 11 50 11 135zM599 667l-338 -667h-39l336 667h41z" />
    <glyph glyph-name="plus" unicode="+" horiz-adv-x="562" 
d="M519 220h-218v-220h-41v220h-218v40h218v218h41v-218h218v-40z" />
    <glyph glyph-name="minus" unicode="&#x2212;" horiz-adv-x="563" 
d="M520 220h-477v40h477v-40z" />
    <glyph glyph-name="plusminus" unicode="&#xb1;" horiz-adv-x="562" 
d="M519 286h-218v-193h-41v193h-218v40h218v191h41v-191h218v-40zM525 0h-488v39h488v-39z" />
    <glyph glyph-name="multiply" unicode="&#xd7;" horiz-adv-x="563" 
d="M504 51l-29 -28l-194 195l-193 -195l-29 28l194 194l-193 193l28 28l193 -192l194 192l28 -28l-193 -193z" />
    <glyph glyph-name="divide" unicode="&#xf7;" horiz-adv-x="562" 
d="M316 452c0 -23 -12 -34 -35 -34s-34 11 -34 34s11 34 34 34s35 -11 35 -34zM525 220h-488v40h488v-40zM316 27c0 -23 -12 -34 -35 -34s-34 11 -34 34s11 34 34 34s35 -11 35 -34z" />
    <glyph glyph-name="equal" unicode="=" horiz-adv-x="563" 
d="M520 317h-477v40h477v-40zM520 124h-477v40h477v-40z" />
    <glyph glyph-name="notequal" unicode="&#x2260;" horiz-adv-x="562" 
d="M524 124h-333l-126 -124l-26 28l97 96h-98v40h139l156 153h-295v40h336l124 121l26 -28l-95 -93h95v-40h-136l-155 -153h291v-40z" />
    <glyph glyph-name="approxequal" unicode="&#x2248;" horiz-adv-x="562" 
d="M527 358l-79 -50c-44 -28 -109 -29 -153 -2c-19 12 -35 21 -54 32c-31 18 -68 19 -103 -2l-79 -48l-24 33l79 49c44 28 108 30 153 3c48 -28 95 -69 157 -31l81 50zM527 164l-79 -50c-44 -28 -109 -29 -153 -2c-19 12 -35 21 -54 32c-31 18 -68 19 -103 -2l-79 -48
l-24 33l79 49c44 28 108 30 153 3c48 -28 95 -69 157 -31l81 50z" />
    <glyph glyph-name="less" unicode="&#x3c;" horiz-adv-x="562" 
d="M522 38l-17 -38l-465 220v40l465 218l17 -38l-431 -199z" />
    <glyph glyph-name="greater" unicode="&#x3e;" horiz-adv-x="562" 
d="M522 220l-465 -220l-17 38l431 203l-431 199l17 38l465 -218v-40z" />
    <glyph glyph-name="lessequal" unicode="&#x2264;" horiz-adv-x="562" 
d="M524 131l-16 -38l-466 193v40l466 191l16 -38l-430 -172zM525 0h-488v39h488v-39z" />
    <glyph glyph-name="greaterequal" unicode="&#x2265;" horiz-adv-x="562" 
d="M520 286l-465 -193l-17 38l431 176l-431 172l17 38l465 -191v-40zM525 0h-488v39h488v-39z" />
    <glyph glyph-name="logicalnot" unicode="&#xac;" horiz-adv-x="562" 
d="M519 0h-41v317h-435v40h476v-357z" />
    <glyph glyph-name="degree" unicode="&#xb0;" horiz-adv-x="564" 
d="M428 529c0 -108 -38 -152 -147 -152c-110 0 -145 47 -145 155c0 104 43 142 146 142c105 0 146 -40 146 -145zM387 525c0 80 -22 111 -105 111s-106 -31 -106 -111s23 -110 105 -110c83 0 106 30 106 110z" />
    <glyph glyph-name="afii61289" unicode="&#x2113;" horiz-adv-x="500" 
d="M249 269c-29 -150 -33 -173 -33 -208c0 -17 6 -25 18 -25c17 0 34 18 51 54c6 14 11 18 19 18s13 -5 13 -15c0 -15 -10 -37 -26 -60c-25 -32 -48 -47 -76 -47c-42 0 -67 33 -67 88c0 28 1 45 10 127c-30 -28 -43 -38 -49 -38c-7 0 -14 8 -14 16c0 7 5 14 20 27
c8 7 39 39 50 52c55 287 117 420 197 420c38 0 63 -32 63 -81c0 -54 -25 -128 -64 -192c-24 -38 -57 -79 -112 -136zM260 333c81 91 125 181 125 260c0 26 -9 44 -23 44c-15 0 -32 -18 -41 -44c-19 -53 -41 -145 -61 -260z" />
    <glyph glyph-name="estimated" unicode="&#x212e;" horiz-adv-x="798" 
d="M769 311h-599c-3 0 -6 -1 -6 -4v-181c0 -8 4 -15 9 -21c57 -60 137 -98 227 -98c95 0 180 43 238 110h54c-67 -78 -174 -130 -293 -130c-204 0 -370 149 -370 333c0 183 166 332 370 332s370 -149 370 -332v-9zM634 335v181c0 9 -4 16 -10 22c-57 58 -137 94 -224 94
c-89 0 -169 -38 -226 -97c-6 -6 -10 -14 -10 -23v-177c0 -3 3 -5 6 -5h459c3 0 5 2 5 5z" />
    <glyph glyph-name="infinity" unicode="&#x221e;" horiz-adv-x="564" 
d="M256 237c-54 74 -61 81 -109 81c-46 0 -68 -7 -68 -81s29 -79 68 -79c48 0 72 31 109 79zM416 125c-55 0 -87 25 -136 86c-46 -60 -78 -86 -133 -86c-57 0 -104 18 -104 112c0 92 45 114 103 114c60 0 86 -17 134 -89c54 77 78 89 137 89c58 0 103 -22 103 -114
c0 -94 -47 -112 -104 -112zM305 237c47 -54 63 -79 111 -79c39 0 68 5 68 79s-22 81 -68 81c-48 0 -57 -7 -111 -81z" />
    <glyph glyph-name="partialdiff" unicode="&#x2202;" horiz-adv-x="553" 
d="M474 239c1 -160 -26 -246 -204 -246c-180 0 -204 85 -204 246c0 142 18 248 189 247c29 0 54 -3 73 -8l-202 202l29 26l231 -234c73 -74 87 -114 88 -233zM431 239c0 153 -48 205 -175 206c-140 1 -148 -89 -148 -206c0 -135 8 -206 162 -206c152 0 161 72 161 206z" />
    <glyph glyph-name="integral" unicode="&#x222b;" horiz-adv-x="414" 
d="M-195 -83h41c0 -61 66 -70 116 -70c73 0 119 16 119 96v624c0 44 9 75 34 99c29 28 72 38 126 38c84 0 159 -27 159 -111h-41c0 61 -66 70 -116 70c-73 0 -119 -16 -119 -96v-624c0 -44 -9 -75 -34 -99c-29 -28 -72 -38 -126 -38c-84 0 -159 27 -159 111z" />
    <glyph glyph-name="radical" unicode="&#x221a;" horiz-adv-x="721" 
d="M717 827v-37h-237l-218 -790h-66l-90 325h-102v37h135l90 -330l217 795h271z" />
    <glyph glyph-name="Delta" unicode="&#x394;" horiz-adv-x="607" 
d="M86 40h433l-216 575zM26 0l254 667h46l255 -667h-555z" />
    <glyph glyph-name="uni2126" unicode="&#x2126;" horiz-adv-x="666" 
d="M584 0h-191v40c58 7 91 25 113 57c25 37 33 73 33 239c0 194 8 297 -206 297s-206 -103 -206 -297c0 -166 9 -202 34 -239c22 -32 55 -50 113 -57v-40h-191v40h86c-91 49 -86 145 -86 297c0 203 -8 337 250 337s250 -134 250 -337c0 -152 6 -248 -85 -297h86v-40z" />
    <glyph glyph-name="uni2206" unicode="&#x2206;" horiz-adv-x="607" 
d="M86 40h433l-216 575zM26 0l254 667h46l255 -667h-555z" />
    <glyph glyph-name="uni00B5" unicode="&#xb5;" horiz-adv-x="539" 
d="M456 0h-42v73c-33 -63 -96 -80 -160 -80c-63 0 -105 17 -128 46v-230h-43v669h43v-246c0 -119 -13 -198 130 -198c153 0 157 106 157 233v211h43v-478z" />
    <glyph glyph-name="mu" unicode="&#x3bc;" horiz-adv-x="539" 
d="M456 0h-42v73c-33 -63 -96 -80 -160 -80c-63 0 -105 17 -128 46v-230h-43v669h43v-246c0 -119 -13 -198 130 -198c153 0 157 106 157 233v211h43v-478z" />
    <glyph glyph-name="product" unicode="&#x220f;" horiz-adv-x="649" 
d="M552 0h-44v627h-369v-627h-44v627h-81v40h620v-40h-82v-627z" />
    <glyph glyph-name="pi" unicode="&#x3c0;" horiz-adv-x="639" 
d="M546 0h-10c-33 0 -55 7 -69 22c-16 17 -20 40 -20 71v346h-266v-439h-43v439h-56v39h457v-39h-49v-344c0 -43 9 -55 50 -55h6v-40z" />
    <glyph glyph-name="summation" unicode="&#x2211;" horiz-adv-x="517" 
d="M492 0h-456v40l261 303l-261 284v40h456v-40h-401l260 -283l-262 -304h403v-40z" />
    <glyph glyph-name="lozenge" unicode="&#x25ca;" horiz-adv-x="632" 
d="M290 667h50l250 -333l-250 -334h-50l-245 334zM315 631l-218 -297l218 -298l223 298z" />
    <glyph glyph-name="Omega" unicode="&#x3a9;" horiz-adv-x="666" 
d="M584 0h-191v40c58 7 91 25 113 57c25 37 33 73 33 239c0 194 8 297 -206 297s-206 -103 -206 -297c0 -166 9 -202 34 -239c22 -32 55 -50 113 -57v-40h-191v40h86c-91 49 -86 145 -86 297c0 203 -8 337 250 337s250 -134 250 -337c0 -152 6 -248 -85 -297h86v-40z" />
    <glyph glyph-name="Foundry" unicode="&#xf8ff;" horiz-adv-x="826" 
d="M742 334c0 -258 -67 -341 -330 -341c-266 0 -328 84 -328 343c0 263 62 338 328 338s330 -76 330 -340zM700 337c0 237 -46 298 -288 298c-248 0 -286 -63 -286 -302c0 -139 0 -255 154 -288v281h-62v38h62v58c0 97 56 138 150 138s154 -33 155 -134h-41
c-1 73 -45 94 -112 94c-71 0 -110 -23 -110 -98v-58h227v-38h-227v-288c42 -6 72 -5 90 -5c243 0 288 69 288 304z" />
    <glyph glyph-name="uni021A" unicode="&#x21a;" horiz-adv-x="536" 
d="M506 627h-216v-627h-44v627h-216v40h476v-40zM289 -77c0 -45 -5 -63 -36 -92l-32 -30l-29 29c15 13 34 31 34 31c19 17 21 27 21 61v34h42v-33z" />
    <glyph glyph-name="uni021B" unicode="&#x21b;" horiz-adv-x="284" 
d="M211 -77c0 -45 -5 -63 -36 -92l-32 -30l-29 29c15 13 34 31 34 31c19 17 21 27 21 61v34h42v-33zM274 36v-40h-9c-107 0 -157 38 -157 137v306h-80v39h80v189h43v-189h123v-39h-123v-306c0 -81 41 -97 116 -97h7z" />
    <glyph glyph-name="commaaccent.cap" horiz-adv-x="410" 
d="M229 -77c0 -45 -5 -63 -36 -92l-32 -30l-29 29c15 13 34 31 34 31c19 17 21 27 21 61v34h42v-33z" />
    <glyph glyph-name="arrowup" unicode="&#x2191;" horiz-adv-x="721" 
d="M686 323l-28 -28l-277 280v-575h-40v575l-278 -280l-28 28l325 326z" />
    <glyph glyph-name="uni2197" unicode="&#x2197;" horiz-adv-x="721" 
d="M597 667l-1 -460h-35l-3 10l1 385l-407 -407l-28 28l407 407l-394 -1v38h460z" />
    <glyph glyph-name="uni2196" unicode="&#x2196;" horiz-adv-x="721" 
d="M597 223l-28 -28l-407 407l1 -395h-39v460h460v-38l-394 1z" />
    <glyph glyph-name="uni2198" unicode="&#x2198;" horiz-adv-x="720" 
d="M596 0h-460v39l395 -1l-407 407l28 28l407 -407l-1 395h38v-461z" />
    <glyph glyph-name="uni2199" unicode="&#x2199;" horiz-adv-x="720" 
d="M596 444l-407 -407l394 2v-39h-459v461h38l-1 -395l406 407z" />
    <glyph glyph-name="arrowleft" unicode="&#x2190;" horiz-adv-x="720" 
d="M685 306h-575l280 -278l-28 -28l-326 326l326 325l28 -28l-280 -277h575v-40z" />
    <glyph glyph-name="arrowright" unicode="&#x2192;" horiz-adv-x="720" 
d="M685 326l-326 -326l-28 28l280 278h-575v40h575l-280 277l28 28z" />
    <glyph glyph-name="arrowdown" unicode="&#x2193;" horiz-adv-x="720" 
d="M686 326l-325 -326l-326 326l28 28l278 -280v575h40v-575l277 280z" />
    <glyph glyph-name="dieresistonos" unicode="&#x385;" horiz-adv-x="604" 
d="M466 629c0 -27 -14 -40 -40 -40s-40 13 -40 40s14 40 40 40s40 -13 40 -40zM217 629c0 -27 -14 -40 -40 -40s-40 13 -40 40s14 40 40 40s40 -13 40 -40zM322 541h-41v176h41v-176z" />
    <glyph glyph-name="tonos" unicode="&#x384;" horiz-adv-x="604" 
d="M322 541h-41v176h41v-176z" />
    <glyph glyph-name="Gamma" unicode="&#x393;" horiz-adv-x="509" 
d="M98 667h396v-40h-352v-627h-44v667z" />
    <glyph glyph-name="Theta" unicode="&#x398;" horiz-adv-x="665" 
d="M582 334c0 -203 8 -342 -250 -342s-250 139 -250 342s-8 340 250 340s250 -136 250 -340zM538 333c0 194 8 300 -206 300s-206 -106 -206 -300s-8 -299 206 -299s206 105 206 299zM453 363v-40h-241v40h241z" />
    <glyph glyph-name="Lambda" unicode="&#x39b;" horiz-adv-x="607" 
d="M581 0h-47l-231 615l-232 -615h-45l254 667h46z" />
    <glyph glyph-name="Xi" unicode="&#x39e;" horiz-adv-x="569" 
d="M84 667h401v-40h-401v40zM485 40v-40h-401v40h401zM475 363v-40h-381v40h381z" />
    <glyph glyph-name="Pi" unicode="&#x3a0;" horiz-adv-x="653" 
d="M555 0h-44v627h-369v-627h-44v667h457v-667z" />
    <glyph glyph-name="Sigma" unicode="&#x3a3;" horiz-adv-x="598" 
d="M527 0h-456v40l261 303l-261 284v40h456v-40h-401l260 -283l-262 -304h403v-40z" />
    <glyph glyph-name="Iotadieresis" unicode="&#x3aa;" horiz-adv-x="240" 
d="M259 829c0 -22 -10 -33 -33 -33s-32 11 -32 33c0 23 10 31 32 31s33 -8 33 -31zM45 829c0 -22 -10 -33 -33 -33s-32 11 -32 33c0 23 10 31 32 31s33 -8 33 -31zM142 0h-44v667h44v-667z" />
    <glyph glyph-name="Alpha" unicode="&#x391;" horiz-adv-x="607" 
d="M581 0h-47l-78 204h-308l-77 -204h-45l254 667h46zM441 242l-138 373l-140 -373h278z" />
    <glyph glyph-name="Beta" unicode="&#x392;" horiz-adv-x="646" 
d="M562 183c0 -182 -98 -183 -241 -183h-223v667h217c131 0 241 7 241 -170c0 -64 -17 -134 -84 -154c76 -21 90 -89 90 -160zM513 500c0 140 -88 128 -205 128h-167v-267h174c118 0 198 -3 198 139zM518 180c0 148 -73 143 -204 143h-173v-283h173c126 0 204 -8 204 140z
" />
    <glyph glyph-name="Epsilon" unicode="&#x395;" horiz-adv-x="583" 
d="M499 0h-401v667h401v-40h-356v-264h346v-40h-346v-283h356v-40z" />
    <glyph glyph-name="Zeta" unicode="&#x396;" horiz-adv-x="598" 
d="M527 0h-456v41l406 586h-406v40h456v-41l-407 -586h407v-40z" />
    <glyph glyph-name="Eta" unicode="&#x397;" horiz-adv-x="653" 
d="M555 0h-44v323h-369v-323h-44v667h44v-304h369v304h44v-667z" />
    <glyph glyph-name="Iota" unicode="&#x399;" horiz-adv-x="240" 
d="M142 0h-44v667h44v-667z" />
    <glyph glyph-name="Kappa" unicode="&#x39a;" horiz-adv-x="572" 
d="M548 0h-65l-341 314v-314h-44v667h43v-315l345 315h61l-368 -332z" />
    <glyph glyph-name="Mu" unicode="&#x39c;" horiz-adv-x="819" 
d="M721 0h-43v605l-246 -605h-47l-245 605v-605h-42v667h59l253 -620l251 620h60v-667z" />
    <glyph glyph-name="Phi" unicode="&#x3a6;" horiz-adv-x="739" 
d="M664 331c0 -125 -20 -179 -63 -217c-42 -37 -103 -51 -210 -53v-75h-43v75c-107 2 -168 16 -210 53c-43 38 -63 92 -63 217s20 184 63 221c42 37 103 51 210 53v76h43v-76c107 -2 168 -16 210 -53c43 -37 63 -96 63 -221zM620 333c0 111 -15 161 -51 192
c-31 27 -90 39 -178 39v-462c88 0 147 12 178 39c36 31 51 81 51 192zM348 102v462c-88 0 -147 -12 -178 -39c-36 -31 -51 -81 -51 -192s15 -161 51 -192c31 -27 90 -39 178 -39z" />
    <glyph glyph-name="Upsilondieresis" unicode="&#x3ab;" horiz-adv-x="521" 
d="M400 825c0 -22 -10 -33 -33 -33s-32 11 -32 33c0 23 10 31 32 31s33 -8 33 -31zM186 825c0 -22 -10 -33 -33 -33s-32 11 -32 33c0 23 10 31 32 31s33 -8 33 -31zM510 667l-229 -373v-294h-43v294l-227 373h49l202 -331l200 331h48z" />
    <glyph glyph-name="Psi" unicode="&#x3a8;" horiz-adv-x="798" 
d="M713 519c0 -59 0 -112 -4 -160c-4 -47 -13 -88 -30 -121c-33 -63 -102 -101 -258 -101v-137h-44v137c-156 0 -225 38 -258 101c-17 33 -26 74 -30 121c-4 48 -4 101 -4 160v148h44v-147c0 -188 10 -229 39 -271c33 -48 88 -71 209 -71v490h44v-490c121 0 176 23 209 71
c29 42 39 83 39 271v147h44v-148z" />
    <glyph glyph-name="alphatonos" unicode="&#x3ac;" horiz-adv-x="573" 
d="M510 0h-42l-24 150c-20 -60 -33 -96 -55 -119c-31 -31 -84 -39 -130 -39c-180 0 -191 110 -191 245c0 136 11 249 191 249c46 0 99 -9 130 -40c22 -23 35 -59 55 -119l24 151h42l-40 -238zM428 239c0 0 -19 78 -41 130c-27 63 -69 76 -132 76c-128 0 -144 -78 -144 -206
s16 -206 144 -206c63 0 105 12 132 75c22 52 41 131 41 131zM306 541h-41v176h41v-176z" />
    <glyph glyph-name="Nu" unicode="&#x39d;" horiz-adv-x="651" 
d="M553 0h-56l-356 606v-606h-43v667h54l358 -605v605h43v-667z" />
    <glyph glyph-name="Omicron" unicode="&#x39f;" horiz-adv-x="665" 
d="M582 334c0 -203 8 -342 -250 -342s-250 139 -250 342s-8 340 250 340s250 -136 250 -340zM538 333c0 194 8 300 -206 300s-206 -106 -206 -300s-8 -299 206 -299s206 105 206 299z" />
    <glyph glyph-name="Rho" unicode="&#x3a1;" horiz-adv-x="602" 
d="M556 488c0 -177 -98 -179 -243 -179h-171v-309h-44v667h215c146 0 243 0 243 -179zM512 489c0 145 -82 139 -203 139h-167v-279h167c123 0 203 -7 203 140z" />
    <glyph glyph-name="Tau" unicode="&#x3a4;" horiz-adv-x="536" 
d="M506 627h-216v-627h-44v627h-216v40h476v-40z" />
    <glyph glyph-name="Upsilon" unicode="&#x3a5;" horiz-adv-x="521" 
d="M510 667l-229 -373v-294h-43v294l-227 373h49l202 -331l200 331h48z" />
    <glyph glyph-name="Chi" unicode="&#x3a7;" horiz-adv-x="550" 
d="M513 0h-51l-189 302l-186 -302h-50l211 337l-208 330h50l186 -297l183 297h51l-209 -330z" />
    <glyph glyph-name="Alphatonos" unicode="&#x386;" horiz-adv-x="607" 
d="M581 0h-47l-78 204h-308l-77 -204h-45l254 667h46zM441 242l-138 373l-140 -373h278zM178 541h-41v176h41v-176z" />
    <glyph glyph-name="Epsilontonos" unicode="&#x388;" horiz-adv-x="599" 
d="M515 0h-401v667h401v-40h-356v-264h346v-40h-346v-283h356v-40zM61 541h-41v176h41v-176z" />
    <glyph glyph-name="afii00208" unicode="&#x2015;" horiz-adv-x="1000" 
d="M900 220h-800v40h800v-40z" />
    <glyph glyph-name="Etatonos" unicode="&#x389;" horiz-adv-x="669" 
d="M571 0h-44v323h-369v-323h-44v667h44v-304h369v304h44v-667zM61 541h-41v176h41v-176z" />
    <glyph glyph-name="Iotatonos" unicode="&#x38a;" horiz-adv-x="256" 
d="M158 0h-44v667h44v-667zM61 541h-41v176h41v-176z" />
    <glyph glyph-name="Omicrontonos" unicode="&#x38c;" horiz-adv-x="675" 
d="M593 334c0 -203 8 -342 -250 -342s-250 139 -250 342s-8 340 250 340s250 -136 250 -340zM549 333c0 194 8 300 -206 300s-206 -106 -206 -300s-8 -299 206 -299s206 105 206 299zM61 541h-41v176h41v-176z" />
    <glyph glyph-name="Upsilontonos" unicode="&#x38e;" horiz-adv-x="598" 
d="M587 667l-229 -373v-294h-43v294l-227 373h49l202 -331l200 331h48zM61 541h-41v176h41v-176z" />
    <glyph glyph-name="epsilontonos" unicode="&#x3ad;" horiz-adv-x="517" 
d="M268 -7c102 0 191 25 191 138h-40c0 -89 -84 -97 -152 -97c-106 0 -159 17 -159 97c0 84 33 97 154 97h37v38h-37c-95 0 -147 12 -147 90c0 62 37 89 153 89c66 0 151 -10 151 -98h40c0 111 -89 139 -191 139c-142 0 -196 -32 -196 -128c0 -45 10 -86 62 -108
c-61 -19 -68 -65 -68 -117c0 -111 68 -140 202 -140zM284 541h-41v176h41v-176z" />
    <glyph glyph-name="etatonos" unicode="&#x3ae;" horiz-adv-x="536" 
d="M420 445c43 -43 40 -99 40 -190v-446h-43v438c0 94 1 139 -31 169c-22 21 -56 29 -101 29c-78 0 -119 -26 -139 -70c-10 -21 -15 -46 -17 -72s-2 -55 -2 -84v-219h-43v384c0 43 -9 55 -50 55h-6v40h10c33 0 55 -7 69 -22c11 -12 17 -27 19 -46c38 58 93 75 160 75
c64 0 107 -14 134 -41zM292 541h-41v176h41v-176z" />
    <glyph glyph-name="iotatonos" unicode="&#x3af;" horiz-adv-x="226" 
d="M126 541h-41v176h41v-176zM183 0h-10c-33 0 -55 7 -69 22c-16 17 -20 40 -20 71v385h43v-383c0 -43 9 -55 50 -55h6v-40z" />
    <glyph glyph-name="omicrontonos" unicode="&#x3cc;" horiz-adv-x="542" 
d="M476 239c0 -143 -14 -246 -205 -246c-192 0 -205 103 -205 246s13 247 205 247c191 0 205 -104 205 -247zM433 239c0 134 -9 206 -162 206s-162 -72 -162 -206s9 -205 162 -205s162 71 162 205zM292 541h-41v176h41v-176z" />
    <glyph glyph-name="Omegatonos" unicode="&#x38f;" horiz-adv-x="678" 
d="M596 0h-191v40c58 7 91 25 113 57c25 37 33 73 33 239c0 194 8 297 -206 297s-206 -103 -206 -297c0 -166 9 -202 34 -239c22 -32 55 -50 113 -57v-40h-191v40h86c-91 49 -86 145 -86 297c0 203 -8 337 250 337s250 -134 250 -337c0 -152 6 -248 -85 -297h86v-40zM61 541
h-41v176h41v-176z" />
    <glyph glyph-name="upsilontonos" unicode="&#x3cd;" horiz-adv-x="528" 
d="M452 273c0 -59 -1 -97 -2 -124c-1 -28 -4 -46 -11 -64c-23 -62 -85 -92 -175 -92s-152 29 -175 92c-7 18 -10 36 -11 64c-1 27 -2 65 -2 124v205h43v-205c0 -45 0 -83 1 -113s5 -54 14 -71c18 -33 58 -55 130 -55c73 0 112 23 130 55c9 17 13 41 14 71s1 68 1 113v205h43
v-205zM284 541h-41v176h41v-176z" />
    <glyph glyph-name="alpha" unicode="&#x3b1;" horiz-adv-x="573" 
d="M510 0h-42l-24 150c-20 -60 -33 -96 -55 -119c-31 -31 -84 -39 -130 -39c-180 0 -191 110 -191 245c0 136 11 249 191 249c46 0 99 -9 130 -40c22 -23 35 -59 55 -119l24 151h42l-40 -238zM428 239c0 0 -19 78 -41 130c-27 63 -69 76 -132 76c-128 0 -144 -78 -144 -206
s16 -206 144 -206c63 0 105 12 132 75c22 52 41 131 41 131z" />
    <glyph glyph-name="beta" unicode="&#x3b2;" horiz-adv-x="555" 
d="M441 43c-40 -40 -98 -50 -154 -50c-60 0 -113 4 -159 69v-253h-43v680c0 46 -2 100 21 142c22 41 69 73 171 73c127 0 194 -45 194 -172c0 -80 -15 -132 -89 -159c81 -24 105 -88 105 -183c0 -74 -21 -122 -46 -147zM444 185c0 65 -8 105 -34 131c-28 28 -68 36 -136 36
h-53v39h53c55 0 98 7 125 34c22 22 29 55 29 104c0 100 -36 134 -151 134c-136 0 -149 -63 -149 -171v-262c0 -29 0 -58 5 -86c15 -83 73 -110 154 -110c93 0 157 33 157 151z" />
    <glyph glyph-name="psi" unicode="&#x3c8;" horiz-adv-x="679" 
d="M603 252c0 -95 -5 -145 -48 -188c-52 -52 -147 -64 -194 -64v-191h-43v191c-47 0 -142 12 -194 64c-43 43 -48 93 -48 188v226h43v-227c0 -82 5 -125 37 -158c40 -42 114 -52 162 -52v437h43v-437c48 0 122 10 162 52c32 33 37 76 37 158v227h43v-226z" />
    <glyph glyph-name="delta" unicode="&#x3b4;" horiz-adv-x="542" 
d="M476 239c0 -143 -14 -246 -205 -246c-192 0 -205 103 -205 246s13 247 205 247c5 0 14 -1 19 -1l-84 53c-25 16 -55 37 -55 82c0 25 7 42 18 53c19 19 42 24 78 24h91v-38h-98c-25 0 -48 -6 -48 -39c0 -28 26 -39 121 -100c40 -26 108 -65 133 -105
c28 -43 30 -105 30 -176zM433 239c0 134 -9 206 -162 206s-162 -72 -162 -206s9 -205 162 -205s162 71 162 205z" />
    <glyph glyph-name="epsilon" unicode="&#x3b5;" horiz-adv-x="517" 
d="M268 -7c-134 0 -202 29 -202 140c0 52 7 98 68 117c-52 22 -62 63 -62 108c0 96 54 128 196 128c102 0 191 -28 191 -139h-40c0 88 -85 98 -151 98c-116 0 -153 -27 -153 -89c0 -78 52 -90 147 -90h37v-38h-37c-121 0 -154 -13 -154 -97c0 -80 53 -97 159 -97
c68 0 152 8 152 97h40c0 -113 -89 -138 -191 -138z" />
    <glyph glyph-name="phi" unicode="&#x3c6;" horiz-adv-x="669" 
d="M603 243c0 -112 -16 -159 -56 -193c-38 -33 -94 -47 -191 -50v-191h-44v191c-96 3 -152 17 -190 50c-39 34 -56 82 -56 194s17 159 56 193c28 24 66 39 120 45v-41c-39 -6 -68 -17 -87 -33c-32 -27 -46 -68 -46 -166s14 -136 46 -163c27 -23 78 -38 157 -38v445
c38 0 82 1 123 -5c44 -6 84 -20 112 -44c40 -34 56 -82 56 -194zM560 245c0 98 -15 136 -47 163c-27 23 -78 37 -157 37v-404c79 0 130 15 157 38c32 27 47 68 47 166z" />
    <glyph glyph-name="gamma" unicode="&#x3b3;" horiz-adv-x="468" 
d="M266 -191h-43v191l-143 387c-13 35 -29 51 -61 51h-1v40h6c62 0 82 -42 89 -60l133 -363l150 423h45l-175 -478v-191z" />
    <glyph glyph-name="eta" unicode="&#x3b7;" horiz-adv-x="536" 
d="M420 445c43 -43 40 -99 40 -190v-446h-43v438c0 94 1 139 -31 169c-22 21 -56 29 -101 29c-78 0 -119 -26 -139 -70c-10 -21 -15 -46 -17 -72s-2 -55 -2 -84v-219h-43v384c0 43 -9 55 -50 55h-6v40h10c33 0 55 -7 69 -22c11 -12 17 -27 19 -46c38 58 93 75 160 75
c64 0 107 -14 134 -41z" />
    <glyph glyph-name="iota" unicode="&#x3b9;" horiz-adv-x="226" 
d="M183 0h-10c-33 0 -55 7 -69 22c-16 17 -20 40 -20 71v385h43v-383c0 -43 9 -55 50 -55h6v-40z" />
    <glyph glyph-name="xi" unicode="&#x3be;" horiz-adv-x="527" 
d="M329 0c-135 0 -240 2 -240 185c0 77 14 147 93 172c-10 5 -76 29 -76 154c0 87 35 126 78 148h-86v38h332v-39h-81c-81 0 -200 0 -200 -146c0 -98 31 -129 117 -135c24 -2 59 -1 72 -1h81v-39h-83c-21 0 -55 0 -81 -2c-96 -8 -123 -53 -123 -153c0 -151 90 -142 198 -142
c69 0 142 1 142 -94c0 -50 -24 -101 -51 -137h-49c29 38 58 85 58 134c0 61 -50 57 -101 57z" />
    <glyph glyph-name="kappa" unicode="&#x3ba;" horiz-adv-x="463" 
d="M444 0h-61l-257 232v-232h-43v478h43v-216l256 216h59l-274 -231z" />
    <glyph glyph-name="lambda" unicode="&#x3bb;" horiz-adv-x="473" 
d="M455 0h-8c-62 0 -82 42 -89 60l-129 355l-152 -415h-44l176 472l-49 133c-13 35 -27 52 -59 52h-1v40h7c62 0 79 -42 86 -60l200 -546c13 -35 29 -51 61 -51h1v-40z" />
    <glyph glyph-name="nu" unicode="&#x3bd;" horiz-adv-x="457" 
d="M436 478l-183 -478h-48l-184 478h45l164 -429l161 429h45z" />
    <glyph glyph-name="omicron" unicode="&#x3bf;" horiz-adv-x="542" 
d="M476 239c0 -143 -14 -246 -205 -246c-192 0 -205 103 -205 246s13 247 205 247c191 0 205 -104 205 -247zM433 239c0 134 -9 206 -162 206s-162 -72 -162 -206s9 -205 162 -205s162 71 162 205z" />
    <glyph glyph-name="omegatonos" unicode="&#x3ce;" horiz-adv-x="698" 
d="M632 249c0 -115 -15 -257 -177 -257c-40 0 -86 10 -106 48c-20 -38 -66 -48 -106 -48c-162 0 -177 142 -177 257c0 93 18 150 57 191c27 28 61 40 119 46v-41c-89 -11 -133 -53 -133 -196c0 -128 24 -217 137 -217c78 0 81 50 81 136v98h44v-98c0 -86 3 -136 81 -136
c113 0 137 89 137 217c0 143 -44 185 -133 196v41c58 -6 92 -18 119 -46c39 -41 57 -98 57 -191zM370 541h-41v176h41v-176z" />
    <glyph glyph-name="rho" unicode="&#x3c1;" horiz-adv-x="544" 
d="M478 245c2 -150 -12 -254 -192 -254c-84 0 -136 25 -167 77v-261h-43v444c0 98 10 150 44 185s82 50 157 50s123 -15 157 -50c46 -47 43 -131 44 -191zM436 245c0 134 -7 199 -158 199c-155 0 -159 -71 -159 -201c0 -161 44 -209 173 -209c142 0 144 96 144 211z" />
    <glyph glyph-name="sigma" unicode="&#x3c3;" horiz-adv-x="542" 
d="M510 439h-101c60 -32 67 -106 67 -205c0 -141 -14 -242 -205 -242c-192 0 -205 101 -205 242c0 82 4 152 48 196c40 40 93 48 177 48h219v-39zM433 234c0 131 -9 203 -162 203s-162 -72 -162 -203s9 -201 162 -201s162 70 162 201z" />
    <glyph glyph-name="tau" unicode="&#x3c4;" horiz-adv-x="445" 
d="M291 0h-10c-33 0 -55 7 -69 22c-16 17 -20 40 -20 71v346h-166v39h389v-39h-180v-344c0 -43 9 -55 50 -55h6v-40z" />
    <glyph glyph-name="theta" unicode="&#x3b8;" horiz-adv-x="539" 
d="M473 333c0 -146 -3 -194 -16 -231c-25 -75 -87 -109 -188 -109s-162 34 -187 109c-13 37 -16 85 -16 231c0 167 4 212 24 253c30 61 87 88 179 88s149 -27 179 -88c20 -41 25 -86 25 -253zM430 363c-1 106 -5 157 -14 186c-18 58 -59 85 -147 85s-128 -27 -146 -85
c-9 -29 -13 -80 -14 -186h321zM430 323h-321c0 -138 4 -189 19 -222c20 -46 60 -68 141 -68s121 22 141 68c15 33 20 84 20 222z" />
    <glyph glyph-name="omega" unicode="&#x3c9;" horiz-adv-x="698" 
d="M632 249c0 -115 -15 -257 -177 -257c-40 0 -86 10 -106 48c-20 -38 -66 -48 -106 -48c-162 0 -177 142 -177 257c0 93 18 150 57 191c27 28 61 40 119 46v-41c-89 -11 -133 -53 -133 -196c0 -128 24 -217 137 -217c78 0 81 50 81 136v98h44v-98c0 -86 3 -136 81 -136
c113 0 137 89 137 217c0 143 -44 185 -133 196v41c58 -6 92 -18 119 -46c39 -41 57 -98 57 -191z" />
    <glyph glyph-name="sigma1" unicode="&#x3c2;" horiz-adv-x="516" 
d="M458 -54c0 -50 -24 -101 -51 -137h-49c29 38 58 85 58 134c0 61 -60 57 -111 57c-62 0 -145 -2 -192 46c-45 46 -47 135 -47 198c0 158 26 242 203 242c97 0 188 -27 188 -139h-40c0 84 -78 98 -147 98c-151 0 -161 -68 -161 -199c0 -169 24 -206 193 -206
c74 0 156 1 156 -94z" />
    <glyph glyph-name="chi" unicode="&#x3c7;" horiz-adv-x="479" 
d="M455 -193h-6c-43 0 -65 16 -83 51l-132 259l-157 -308h-48l179 343l-125 241c-14 28 -23 45 -59 45v40h6c43 0 65 -16 83 -51l122 -239l148 290h48l-170 -325l135 -261c14 -28 23 -45 59 -45v-40z" />
    <glyph glyph-name="upsilon" unicode="&#x3c5;" horiz-adv-x="528" 
d="M452 273c0 -59 -1 -97 -2 -124c-1 -28 -4 -46 -11 -64c-23 -62 -85 -92 -175 -92s-152 29 -175 92c-7 18 -10 36 -11 64c-1 27 -2 65 -2 124v205h43v-205c0 -45 0 -83 1 -113s5 -54 14 -71c18 -33 58 -55 130 -55c73 0 112 23 130 55c9 17 13 41 14 71s1 68 1 113v205h43
v-205z" />
    <glyph glyph-name="zeta" unicode="&#x3b6;" horiz-adv-x="555" 
d="M458 -54c0 -50 -24 -101 -51 -137h-49c29 38 58 85 58 134c0 61 -60 57 -111 57c-134 0 -230 8 -230 183c0 191 174 354 307 476h-248v38h304v-37c-121 -115 -321 -299 -321 -476c0 -141 82 -144 185 -144c74 0 156 1 156 -94z" />
    <glyph glyph-name="iotadieresis" unicode="&#x3ca;" horiz-adv-x="226" 
d="M245 629c0 -22 -10 -33 -33 -33s-32 11 -32 33c0 23 10 31 32 31s33 -8 33 -31zM31 629c0 -22 -10 -33 -33 -33s-32 11 -32 33c0 23 10 31 32 31s33 -8 33 -31zM183 0h-10c-33 0 -55 7 -69 22c-16 17 -20 40 -20 71v385h43v-383c0 -43 9 -55 50 -55h6v-40z" />
    <glyph glyph-name="upsilondieresis" unicode="&#x3cb;" horiz-adv-x="528" 
d="M452 273c0 -59 -1 -97 -2 -124c-1 -28 -4 -46 -11 -64c-23 -62 -85 -92 -175 -92s-152 29 -175 92c-7 18 -10 36 -11 64c-1 27 -2 65 -2 124v205h43v-205c0 -45 0 -83 1 -113s5 -54 14 -71c18 -33 58 -55 130 -55c73 0 112 23 130 55c9 17 13 41 14 71s1 68 1 113v205h43
v-205zM404 629c0 -22 -10 -33 -33 -33s-32 11 -32 33c0 23 10 31 32 31s33 -8 33 -31zM190 629c0 -22 -10 -33 -33 -33s-32 11 -32 33c0 23 10 31 32 31s33 -8 33 -31z" />
    <glyph glyph-name="iotadieresistonos" unicode="&#x390;" horiz-adv-x="226" 
d="M126 541h-41v176h41v-176zM250 629c0 -22 -10 -33 -33 -33s-32 11 -32 33c0 23 10 31 32 31s33 -8 33 -31zM26 629c0 -22 -10 -33 -33 -33s-32 11 -32 33c0 23 10 31 32 31s33 -8 33 -31zM183 0h-10c-33 0 -55 7 -69 22c-16 17 -20 40 -20 71v385h43v-383
c0 -43 9 -55 50 -55h6v-40z" />
    <glyph glyph-name="upsilondieresistonos" unicode="&#x3b0;" horiz-adv-x="528" 
d="M452 273c0 -59 -1 -97 -2 -124c-1 -28 -4 -46 -11 -64c-23 -62 -85 -92 -175 -92s-152 29 -175 92c-7 18 -10 36 -11 64c-1 27 -2 65 -2 124v205h43v-205c0 -45 0 -83 1 -113s5 -54 14 -71c18 -33 58 -55 130 -55c73 0 112 23 130 55c9 17 13 41 14 71s1 68 1 113v205h43
v-205zM285 541h-41v176h41v-176zM409 629c0 -22 -10 -33 -33 -33s-32 11 -32 33c0 23 10 31 32 31s33 -8 33 -31zM185 629c0 -22 -10 -33 -33 -33s-32 11 -32 33c0 23 10 31 32 31s33 -8 33 -31z" />
    <glyph glyph-name="afii10017" unicode="&#x410;" horiz-adv-x="607" 
d="M581 0h-47l-78 204h-308l-77 -204h-45l254 667h46zM441 242l-138 373l-140 -373h278z" />
    <glyph glyph-name="afii10018" unicode="&#x411;" horiz-adv-x="612" 
d="M562 183c0 -182 -98 -183 -241 -183h-223v667h402v-39h-358v-265h212c137 0 208 -21 208 -180zM518 181c0 131 -51 142 -174 142h-202v-283h172c126 0 204 -7 204 141z" />
    <glyph glyph-name="afii10019" unicode="&#x412;" horiz-adv-x="646" 
d="M562 183c0 -182 -98 -183 -241 -183h-223v667h217c131 0 241 7 241 -170c0 -64 -19 -135 -84 -154c74 -20 90 -89 90 -160zM513 500c0 140 -88 128 -205 128h-167v-267h174c118 0 198 -3 198 139zM518 180c0 148 -73 143 -204 143h-173v-283h173c126 0 204 -8 204 140z
" />
    <glyph glyph-name="afii10020" unicode="&#x413;" horiz-adv-x="509" 
d="M494 627h-352v-627h-44v667h396v-40z" />
    <glyph glyph-name="afii10021" unicode="&#x414;" horiz-adv-x="632" 
d="M569 -117h-43v119h-471v-119h-43v159c64 0 86 39 101 101l124 524h291v-625h41v-159zM484 42v585h-211l-115 -484c-10 -40 -24 -85 -49 -101h375z" />
    <glyph glyph-name="afii10022" unicode="&#x415;" horiz-adv-x="583" 
d="M499 0h-401v667h401v-40h-356v-264h346v-40h-346v-283h356v-40z" />
    <glyph glyph-name="uni0400" unicode="&#x400;" horiz-adv-x="583" 
d="M499 0h-401v667h401v-40h-356v-264h346v-40h-346v-283h356v-40zM374 731h-51l-133 129h54z" />
    <glyph glyph-name="afii10023" unicode="&#x401;" horiz-adv-x="583" 
d="M438 829c0 -22 -10 -33 -33 -33s-32 11 -32 33c0 23 10 31 32 31s33 -8 33 -31zM224 829c0 -22 -10 -33 -33 -33s-32 11 -32 33c0 23 10 31 32 31s33 -8 33 -31zM499 0h-401v667h401v-40h-356v-264h346v-40h-346v-283h356v-40z" />
    <glyph glyph-name="afii10024" unicode="&#x416;" horiz-adv-x="826" 
d="M802 0h-60l-307 314v-314h-44v314l-306 -314h-61l330 335l-329 332h56l310 -315v315h44v-315l308 315h58l-330 -332z" />
    <glyph glyph-name="afii10025" unicode="&#x417;" horiz-adv-x="637" 
d="M553 183c0 -140 -81 -191 -246 -191c-134 0 -234 22 -234 178h41c0 -102 45 -136 193 -136c128 0 201 27 201 146c0 125 -46 146 -197 146h-71v40h71c116 0 189 17 189 135c0 104 -43 132 -193 132c-148 0 -193 -34 -193 -136h-41c0 156 100 177 234 177
c174 0 238 -47 238 -171c0 -63 -15 -126 -94 -156c93 -26 102 -91 102 -164z" />
    <glyph glyph-name="afii10026" unicode="&#x418;" horiz-adv-x="651" 
d="M553 0h-43v606l-356 -606h-56v667h43v-605l358 605h54v-667z" />
    <glyph glyph-name="uni040D" unicode="&#x40d;" horiz-adv-x="651" 
d="M553 0h-43v606l-356 -606h-56v667h43v-605l358 605h54v-667zM417 731h-51l-133 129h54z" />
    <glyph glyph-name="afii10027" unicode="&#x419;" horiz-adv-x="651" 
d="M463 863c0 -98 -43 -126 -137 -126s-137 28 -137 126h41c3 -47 7 -88 96 -88c88 0 93 41 96 88h41zM553 0h-43v606l-356 -606h-56v667h43v-605l358 605h54v-667z" />
    <glyph glyph-name="afii10028" unicode="&#x41a;" horiz-adv-x="572" 
d="M548 0h-65l-341 314v-314h-44v667h43v-315l345 315h61l-368 -332z" />
    <glyph glyph-name="afii10029" unicode="&#x41b;" horiz-adv-x="626" 
d="M528 0h-44v627h-213l-106 -481c-5 -24 -18 -83 -53 -118c-24 -24 -53 -35 -100 -36v40c24 1 47 6 65 24c24 24 36 60 44 96l114 515h293v-667z" />
    <glyph glyph-name="afii10030" unicode="&#x41c;" horiz-adv-x="819" 
d="M721 0h-43v605l-246 -605h-47l-245 605v-605h-42v667h59l253 -620l251 620h60v-667z" />
    <glyph glyph-name="afii10031" unicode="&#x41d;" horiz-adv-x="653" 
d="M555 0h-44v323h-369v-323h-44v667h44v-304h369v304h44v-667z" />
    <glyph glyph-name="afii10032" unicode="&#x41e;" horiz-adv-x="664" 
d="M582 334c0 -203 8 -342 -250 -342s-250 139 -250 342s-8 340 250 340s250 -136 250 -340zM538 333c0 194 8 300 -206 300s-206 -106 -206 -300s-8 -299 206 -299s206 105 206 299z" />
    <glyph glyph-name="afii10033" unicode="&#x41f;" horiz-adv-x="653" 
d="M555 0h-44v627h-369v-627h-44v667h457v-667z" />
    <glyph glyph-name="afii10034" unicode="&#x420;" horiz-adv-x="602" 
d="M556 488c0 -177 -98 -179 -243 -179h-171v-309h-44v667h215c146 0 243 0 243 -179zM512 489c0 145 -82 139 -203 139h-167v-279h167c123 0 203 -7 203 140z" />
    <glyph glyph-name="afii10035" unicode="&#x421;" horiz-adv-x="635" 
d="M562 170c0 -130 -65 -178 -225 -178c-255 0 -255 127 -255 341s0 341 255 341c160 0 225 -47 225 -177h-41c-1 102 -44 136 -193 136c-206 0 -202 -102 -202 -300c0 -196 -5 -299 202 -299c149 0 192 34 193 136h41z" />
    <glyph glyph-name="afii10036" unicode="&#x422;" horiz-adv-x="536" 
d="M506 627h-216v-627h-44v627h-216v40h476v-40z" />
    <glyph glyph-name="afii10037" unicode="&#x423;" horiz-adv-x="540" 
d="M528 667l-332 -667h-49l105 207l-234 460h51l207 -411l202 411h50z" />
    <glyph glyph-name="afii10038" unicode="&#x424;" horiz-adv-x="794" 
d="M718 338c0 -130 -22 -187 -69 -226c-46 -38 -114 -51 -230 -53v-59h-44v59c-116 2 -184 15 -230 53c-47 39 -69 96 -69 226s22 186 69 225c46 38 114 48 230 50v54h44v-54c116 -2 184 -12 230 -50c47 -39 69 -95 69 -225zM674 336c0 117 -20 168 -58 198
c-34 26 -104 37 -197 38v-472c93 1 163 12 197 38c38 30 58 81 58 198zM375 100v472c-93 -1 -163 -12 -197 -38c-38 -30 -58 -81 -58 -198s20 -168 58 -198c34 -26 104 -37 197 -38z" />
    <glyph glyph-name="afii10039" unicode="&#x425;" horiz-adv-x="550" 
d="M513 0h-51l-189 302l-186 -302h-50l211 337l-208 330h50l186 -297l183 297h51l-209 -330z" />
    <glyph glyph-name="afii10040" unicode="&#x426;" horiz-adv-x="658" 
d="M596 -117h-43v117h-455v667h44v-627h369v627h44v-627h41v-157z" />
    <glyph glyph-name="afii10041" unicode="&#x427;" horiz-adv-x="607" 
d="M509 0h-44v306c-26 -13 -77 -38 -181 -38c-76 0 -129 16 -163 51c-48 48 -49 121 -49 210v138h44v-144c0 -77 1 -135 40 -174c26 -27 67 -39 128 -39c55 0 96 8 125 17s46 19 56 24v316h44v-667z" />
    <glyph glyph-name="afii10042" unicode="&#x428;" horiz-adv-x="881" 
d="M783 0h-685v667h44v-627h276v627h44v-627h277v627h44v-667z" />
    <glyph glyph-name="afii10043" unicode="&#x429;" horiz-adv-x="886" 
d="M824 -117h-43v117h-683v667h44v-627h276v627h44v-627h277v627h44v-627h41v-157z" />
    <glyph glyph-name="afii10044" unicode="&#x42a;" horiz-adv-x="699" 
d="M653 183c0 -182 -98 -183 -241 -183h-223v627h-178v40h222v-304h212c137 0 208 -21 208 -180zM609 181c0 131 -51 142 -174 142h-202v-283h172c126 0 204 -7 204 141z" />
    <glyph glyph-name="afii10045" unicode="&#x42b;" horiz-adv-x="806" 
d="M708 0h-44v667h44v-667zM562 183c0 -182 -98 -183 -241 -183h-223v667h44v-304h212c137 0 208 -21 208 -180zM518 181c0 131 -51 142 -174 142h-202v-283h172c126 0 204 -7 204 141z" />
    <glyph glyph-name="afii10046" unicode="&#x42c;" horiz-adv-x="608" 
d="M562 183c0 -182 -98 -183 -241 -183h-223v667h44v-304h212c137 0 208 -21 208 -180zM518 181c0 131 -51 142 -174 142h-202v-283h172c126 0 204 -7 204 141z" />
    <glyph glyph-name="afii10047" unicode="&#x42d;" horiz-adv-x="636" 
d="M554 333c0 -214 0 -341 -255 -341c-160 0 -225 48 -225 178h41c1 -102 44 -136 193 -136c204 0 202 100 202 291h-269v40h269c0 177 -7 268 -202 268c-149 0 -192 -34 -193 -136h-41c0 130 65 177 225 177c255 0 255 -127 255 -341z" />
    <glyph glyph-name="afii10048" unicode="&#x42e;" horiz-adv-x="891" 
d="M809 334c0 -203 8 -342 -250 -342c-253 0 -250 134 -250 331h-167v-323h-44v667h44v-304h167c0 187 4 311 250 311c258 0 250 -136 250 -340zM765 333c0 194 8 300 -206 300s-206 -106 -206 -300s-8 -299 206 -299s206 105 206 299z" />
    <glyph glyph-name="afii10049" unicode="&#x42f;" horiz-adv-x="644" 
d="M141 490c0 -129 65 -132 182 -132h189v270h-167c-120 0 -204 7 -204 -138zM276 232l-152 -232h-54l209 317c-136 2 -181 55 -181 170c0 186 103 180 243 180h215v-667h-44v317h-111c-70 0 -71 -3 -125 -85z" />
    <glyph glyph-name="afii10050" unicode="&#x490;" horiz-adv-x="509" 
d="M494 627h-352v-627h-44v667h356v82h40v-122z" />
    <glyph glyph-name="afii10055" unicode="&#x406;" horiz-adv-x="240" 
d="M142 0h-44v667h44v-667z" />
    <glyph glyph-name="afii10051" unicode="&#x402;" horiz-adv-x="699" 
d="M624 154c0 -255 -14 -344 -215 -344v41c169 0 171 77 171 303c0 64 -1 127 -38 164c-23 23 -60 37 -118 37c-106 0 -157 -35 -169 -42v-313h-44v627h-179v40h442v-40h-219v-268c26 14 72 37 169 37c80 0 122 -17 155 -51c30 -30 45 -78 45 -191z" />
    <glyph glyph-name="afii10052" unicode="&#x403;" horiz-adv-x="509" 
d="M384 862l-126 -126h-52l126 126h52zM494 627h-352v-627h-44v667h396v-40z" />
    <glyph glyph-name="afii10057" unicode="&#x408;" horiz-adv-x="526" 
d="M434 206c0 -139 -38 -214 -195 -214c-130 0 -197 43 -197 178h41c0 -110 51 -136 156 -136c129 0 151 57 151 170v463h44v-461z" />
    <glyph glyph-name="afii10053" unicode="&#x404;" horiz-adv-x="635" 
d="M562 170c0 -130 -65 -178 -225 -178c-255 0 -255 127 -255 341s0 341 255 341c160 0 225 -47 225 -177h-41c-1 102 -44 136 -193 136c-195 0 -202 -92 -202 -270h269v-40h-269c0 -190 -1 -289 202 -289c149 0 192 34 193 136h41z" />
    <glyph glyph-name="afii10056" unicode="&#x407;" horiz-adv-x="240" 
d="M259 829c0 -22 -10 -33 -33 -33s-32 11 -32 33c0 23 10 31 32 31s33 -8 33 -31zM45 829c0 -22 -10 -33 -33 -33s-32 11 -32 33c0 23 10 31 32 31s33 -8 33 -31zM142 0h-44v667h44v-667z" />
    <glyph glyph-name="afii10058" unicode="&#x409;" horiz-adv-x="994" 
d="M948 183c0 -182 -98 -183 -241 -183h-223v627h-213l-106 -481c-5 -24 -18 -83 -53 -118c-24 -24 -53 -35 -100 -36v40c24 1 47 6 65 24c24 24 36 60 44 96l114 515h293v-304h212c137 0 208 -21 208 -180zM904 181c0 131 -51 142 -174 142h-202v-283h172
c126 0 204 -7 204 141z" />
    <glyph glyph-name="afii10059" unicode="&#x40a;" horiz-adv-x="1021" 
d="M975 183c0 -182 -98 -183 -241 -183h-223v323h-369v-323h-44v667h44v-304h369v304h44v-304h212c137 0 208 -21 208 -180zM931 181c0 131 -51 142 -174 142h-202v-283h172c126 0 204 -7 204 141z" />
    <glyph glyph-name="afii10054" unicode="&#x405;" horiz-adv-x="640" 
d="M566 192c0 -162 -101 -200 -247 -200c-134 0 -245 21 -245 178h42c1 -130 96 -136 205 -136c119 0 201 21 201 155c0 139 -85 130 -203 132c-133 2 -245 -2 -245 167c0 163 100 186 243 186c134 0 243 -21 243 -177h-41c-1 130 -97 136 -204 136
c-116 0 -198 -10 -198 -144c0 -136 95 -125 203 -127c134 -2 246 -1 246 -170z" />
    <glyph glyph-name="afii10060" unicode="&#x40b;" horiz-adv-x="702" 
d="M625 0h-44v163c0 106 -10 192 -157 192c-106 0 -157 -35 -169 -42v-313h-44v627h-179v40h442v-40h-219v-268c26 14 72 37 169 37c74 0 121 -17 151 -47c44 -44 50 -108 50 -188v-161z" />
    <glyph glyph-name="afii10061" unicode="&#x40c;" horiz-adv-x="572" 
d="M411 862l-126 -126h-52l126 126h52zM548 0h-65l-341 314v-314h-44v667h43v-315l345 315h61l-368 -332z" />
    <glyph glyph-name="afii10062" unicode="&#x40e;" horiz-adv-x="540" 
d="M412 863c0 -98 -43 -126 -137 -126s-137 28 -137 126h41c3 -47 7 -88 96 -88c88 0 93 41 96 88h41zM528 667l-332 -667h-49l105 207l-234 460h51l207 -411l202 411h50z" />
    <glyph glyph-name="afii10145" unicode="&#x40f;" horiz-adv-x="653" 
d="M555 0h-208v-117h-43v117h-206v667h44v-627h369v627h44v-667z" />
    <glyph glyph-name="afii61352" unicode="&#x2116;" horiz-adv-x="1030" 
d="M964 319c0 -108 -14 -170 -149 -170s-149 62 -149 170s14 166 149 166s149 -58 149 -166zM954 0h-278v39h278v-39zM553 0h-56l-356 606v-606h-43v667h54l358 -605v605h43v-667zM923 319c0 91 -7 127 -108 127s-108 -36 -108 -127s7 -131 108 -131s108 40 108 131z" />
    <glyph glyph-name="afii10146" unicode="&#x462;" horiz-adv-x="700" 
d="M11 497v40h179v130h44v-130h219v-40h-219v-134h212c137 0 208 -21 208 -180c0 -182 -98 -183 -241 -183h-223v497h-179zM610 181c0 131 -51 142 -174 142h-202v-283h172c126 0 204 -7 204 141z" />
    <glyph glyph-name="afii10147" unicode="&#x472;" horiz-adv-x="665" 
d="M582 334c0 -203 8 -342 -250 -342s-250 139 -250 342s-8 340 250 340s250 -137 250 -340zM332 34c210 0 206 102 206 289h-412c0 -187 -4 -289 206 -289zM332 633c-202 0 -206 -96 -206 -270h412c0 174 -4 270 -206 270z" />
    <glyph glyph-name="afii10148" unicode="&#x474;" horiz-adv-x="595" 
d="M302 0h-46l-244 667h46l223 -612l169 464c40 110 58 155 133 156v-39c-47 -2 -57 -31 -91 -123z" />
    <glyph glyph-name="afii10099" unicode="&#x452;" horiz-adv-x="553" 
d="M477 100c0 -188 -16 -290 -198 -290v40c142 0 155 72 155 250v147c0 94 1 139 -31 169c-22 21 -56 29 -101 29c-165 0 -158 -123 -158 -233v-212h-43v550h-75v39h75v108h43v-108h172v-39h-172v-142c34 62 96 78 159 78s107 -14 134 -41c43 -44 40 -99 40 -190v-155z" />
    <glyph glyph-name="afii10100" unicode="&#x453;" horiz-adv-x="423" 
d="M336 667l-126 -126h-52l126 126h52zM411 439h-284v-439h-43v478h327v-39z" />
    <glyph glyph-name="afii10103" unicode="&#x456;" horiz-adv-x="211" 
d="M138 643c0 -21 -11 -33 -32 -33c-22 0 -32 12 -32 33s10 31 32 31s32 -10 32 -31zM127 0h-43v478h43v-478z" />
    <glyph glyph-name="afii10098" unicode="&#x491;" horiz-adv-x="421" 
d="M411 439h-284v-439h-43v478h289v76h38v-115z" />
    <glyph glyph-name="afii10101" unicode="&#x454;" horiz-adv-x="515" 
d="M457 131c0 -113 -91 -138 -188 -138c-180 0 -203 84 -203 246c0 161 24 247 203 247c97 0 188 -27 188 -139h-40c0 84 -78 98 -147 98c-143 0 -159 -62 -161 -179h189v-39h-189c1 -125 13 -193 161 -193c70 0 147 12 147 97h40z" />
    <glyph glyph-name="afii10104" unicode="&#x457;" horiz-adv-x="211" 
d="M245 636c0 -22 -10 -33 -33 -33s-32 11 -32 33c0 23 10 31 32 31s33 -8 33 -31zM31 636c0 -22 -10 -33 -33 -33s-32 11 -32 33c0 23 10 31 32 31s33 -8 33 -31zM127 0h-43v478h43v-478z" />
    <glyph glyph-name="afii10106" unicode="&#x459;" horiz-adv-x="820" 
d="M770 133c0 -129 -62 -133 -175 -133h-201v439h-183l-73 -321c-14 -61 -27 -125 -126 -125v39c55 0 70 36 83 94l81 352h261v-212h180c57 0 97 -3 123 -29c20 -19 30 -52 30 -104zM727 133c0 91 -40 94 -117 94h-173v-190h156c79 0 134 -4 134 96z" />
    <glyph glyph-name="afii10107" unicode="&#x45a;" horiz-adv-x="843" 
d="M793 133c0 -129 -62 -133 -175 -133h-201v227h-290v-227h-43v478h43v-212h290v212h43v-212h180c57 0 97 -3 123 -29c20 -19 30 -52 30 -104zM750 133c0 91 -40 94 -117 94h-173v-190h156c79 0 134 -4 134 96z" />
    <glyph glyph-name="afii10105" unicode="&#x458;" horiz-adv-x="211" 
d="M138 643c0 -21 -11 -33 -32 -33c-22 0 -32 12 -32 33s10 31 32 31s32 -10 32 -31zM-39 -190v40h15c75 0 108 18 108 99v529h43v-525c0 -103 -40 -143 -147 -143h-19z" />
    <glyph glyph-name="afii10108" unicode="&#x45b;" horiz-adv-x="553" 
d="M477 0h-43v247c0 94 1 139 -31 169c-22 21 -56 29 -101 29c-165 0 -158 -123 -158 -233v-212h-43v550h-75v39h75v108h43v-108h172v-39h-172v-142c34 62 96 78 159 78s107 -14 134 -41c43 -44 40 -99 40 -190v-255z" />
    <glyph glyph-name="afii10109" unicode="&#x45c;" horiz-adv-x="463" 
d="M351 667l-126 -126h-52l126 126h52zM444 0h-61l-257 232v-232h-43v478h43v-216l256 216h59l-274 -231z" />
    <glyph glyph-name="afii10102" unicode="&#x455;" horiz-adv-x="501" 
d="M441 135c0 -104 -64 -143 -196 -142s-185 34 -185 138h40c0 -75 33 -98 144 -98c109 0 154 26 154 100c0 62 -18 79 -98 86c-132 12 -233 -12 -233 129c0 105 62 139 195 138c71 0 119 -12 147 -41c20 -21 31 -53 31 -96h-41c0 67 -31 97 -136 97
c-111 0 -152 -24 -153 -90c-1 -73 23 -82 94 -89c130 -13 237 12 237 -132z" />
    <glyph glyph-name="afii10110" unicode="&#x45e;" horiz-adv-x="455" 
d="M367 668c0 -98 -43 -126 -137 -126s-137 28 -137 126h41c3 -47 7 -88 96 -88c88 0 93 41 96 88h41zM428 478l-246 -669h-44l72 192l-177 477h45l155 -423l150 423h45z" />
    <glyph glyph-name="afii10193" unicode="&#x45f;" horiz-adv-x="544" 
d="M460 0h-168v-117h-39v117h-169v478h43v-439h290v439h43v-478z" />
    <glyph glyph-name="afii10097" unicode="&#x44f;" horiz-adv-x="534" 
d="M450 0h-43v219h-106c-75 0 -75 -1 -127 -82l-88 -137h-42l142 221c-74 5 -112 41 -112 120c0 116 56 137 154 137h17h205v-478zM407 258v181h-162c-72 0 -129 -1 -129 -94c0 -83 44 -87 103 -87h188z" />
    <glyph glyph-name="afii10065" unicode="&#x430;" horiz-adv-x="531" 
d="M455 0h-40v75c-27 -55 -90 -82 -178 -82c-123 0 -179 41 -179 142c0 126 71 148 184 148h170c-1 105 11 162 -149 162c-71 0 -152 -9 -152 -98h-40c0 118 99 139 200 139c198 0 184 -98 184 -208v-278zM412 244h-174c-84 0 -137 -13 -137 -108c0 -74 35 -104 133 -104
c164 0 181 80 178 212z" />
    <glyph glyph-name="afii10066" unicode="&#x431;" horiz-adv-x="550" 
d="M484 238c0 -153 -19 -245 -197 -245c-55 0 -118 5 -159 46c-43 44 -46 103 -46 194v210c0 65 11 112 49 151c85 86 210 33 257 80c5 5 10 13 10 25h43c-1 -23 -5 -37 -20 -52c-65 -65 -184 -9 -258 -83c-25 -25 -38 -57 -38 -122v-33c31 52 84 77 167 77
c175 0 192 -100 192 -248zM441 239c0 117 -7 205 -144 205c-129 0 -173 -48 -173 -209c0 -138 12 -201 166 -201c146 0 151 82 151 205z" />
    <glyph glyph-name="afii10067" unicode="&#x432;" horiz-adv-x="534" 
d="M465 134c0 -38 -7 -78 -30 -101c-17 -17 -36 -25 -61 -29s-55 -4 -88 -4h-202v478h197c100 0 179 7 179 -120c0 -54 -16 -97 -53 -111c45 -19 58 -61 58 -113zM418 352c0 86 -42 88 -117 88h-174v-175h154c84 0 137 -6 137 87zM422 132c0 105 -64 95 -142 95h-153v-189
h153c29 0 79 -2 105 10c24 11 37 34 37 84z" />
    <glyph glyph-name="afii10068" unicode="&#x433;" horiz-adv-x="423" 
d="M411 439h-284v-439h-43v478h327v-39z" />
    <glyph glyph-name="afii10069" unicode="&#x434;" horiz-adv-x="520" 
d="M472 -117h-39v117h-378v-117h-43v155c52 0 71 33 82 80l81 360h261v-439h36v-156zM392 39v401h-182l-71 -319c-6 -25 -15 -63 -39 -82h292z" />
    <glyph glyph-name="afii10070" unicode="&#x435;" horiz-adv-x="530" 
d="M464 235h-355c0 -132 11 -201 160 -201c69 0 147 13 147 97h40c0 -112 -92 -138 -188 -138c-178 0 -202 84 -202 245c0 157 22 248 199 248c180 0 199 -92 199 -251zM422 274c0 119 -32 172 -157 172c-123 0 -156 -55 -156 -172h313z" />
    <glyph glyph-name="uni0450" unicode="&#x450;" horiz-adv-x="530" 
d="M464 235h-355c0 -132 11 -201 160 -201c69 0 147 13 147 97h40c0 -112 -92 -138 -188 -138c-178 0 -202 84 -202 245c0 157 22 248 199 248c180 0 199 -92 199 -251zM422 274c0 119 -32 172 -157 172c-123 0 -156 -55 -156 -172h313zM352 538h-51l-133 129h54z" />
    <glyph glyph-name="afii10071" unicode="&#x451;" horiz-adv-x="530" 
d="M405 636c0 -22 -10 -33 -33 -33s-32 11 -32 33c0 23 10 31 32 31s33 -8 33 -31zM191 636c0 -22 -10 -33 -33 -33s-32 11 -32 33c0 23 10 31 32 31s33 -8 33 -31zM464 235h-355c0 -132 11 -201 160 -201c69 0 147 13 147 97h40c0 -112 -92 -138 -188 -138
c-178 0 -202 84 -202 245c0 157 22 248 199 248c180 0 199 -92 199 -251zM422 274c0 119 -32 172 -157 172c-123 0 -156 -55 -156 -172h313z" />
    <glyph glyph-name="afii10072" unicode="&#x436;" horiz-adv-x="653" 
d="M634 0h-57l-229 232v-232h-43v232l-229 -232h-57l247 247l-244 231h55l228 -216v216h43v-216l228 216h55l-244 -231z" />
    <glyph glyph-name="afii10073" unicode="&#x437;" horiz-adv-x="521" 
d="M455 134c0 -103 -69 -141 -205 -141c-97 0 -192 22 -192 138h40c0 -86 80 -97 151 -97c108 0 165 18 165 98c0 87 -34 95 -158 95h-38v38h38c98 0 151 9 151 92c0 69 -40 88 -158 88c-69 0 -151 -12 -151 -98h-40c0 114 95 139 192 139c143 0 199 -35 199 -127
c0 -43 -10 -88 -63 -110c62 -19 69 -65 69 -115z" />
    <glyph glyph-name="afii10074" unicode="&#x438;" horiz-adv-x="544" 
d="M460 0h-43v415l-278 -415h-55v478h43v-421l279 421h54v-478z" />
    <glyph glyph-name="uni045D" unicode="&#x45d;" horiz-adv-x="544" 
d="M460 0h-43v415l-278 -415h-55v478h43v-421l279 421h54v-478zM364 538h-51l-133 129h54z" />
    <glyph glyph-name="afii10075" unicode="&#x439;" horiz-adv-x="544" 
d="M409 668c0 -98 -43 -126 -137 -126s-137 28 -137 126h41c3 -47 7 -88 96 -88c88 0 93 41 96 88h41zM460 0h-43v415l-278 -415h-55v478h43v-421l279 421h54v-478z" />
    <glyph glyph-name="afii10076" unicode="&#x43a;" horiz-adv-x="463" 
d="M444 0h-61l-257 232v-232h-43v478h43v-216l256 216h59l-274 -231z" />
    <glyph glyph-name="afii10077" unicode="&#x43b;" horiz-adv-x="521" 
d="M437 0h-43v439h-183l-73 -321c-14 -61 -27 -125 -126 -125v39c55 0 70 36 83 94l81 352h261v-478z" />
    <glyph glyph-name="afii10078" unicode="&#x43c;" horiz-adv-x="665" 
d="M581 0h-42v407l-185 -407h-44l-184 406v-406h-42v478h54l195 -428l196 428h52v-478z" />
    <glyph glyph-name="afii10079" unicode="&#x43d;" horiz-adv-x="544" 
d="M460 0h-43v227h-290v-227h-43v478h43v-212h290v212h43v-478z" />
    <glyph glyph-name="afii10080" unicode="&#x43e;" horiz-adv-x="542" 
d="M476 239c0 -143 -14 -246 -205 -246c-192 0 -205 103 -205 246s13 247 205 247c191 0 205 -104 205 -247zM433 239c0 134 -9 206 -162 206s-162 -72 -162 -206s9 -205 162 -205s162 71 162 205z" />
    <glyph glyph-name="afii10081" unicode="&#x43f;" horiz-adv-x="544" 
d="M460 0h-43v439h-290v-439h-43v478h376v-478z" />
    <glyph glyph-name="afii10082" unicode="&#x440;" horiz-adv-x="552" 
d="M486 239c0 -148 -16 -246 -192 -246c-84 0 -136 25 -167 77v-261h-43v669h41v-72c30 52 85 80 169 80c175 0 192 -99 192 -247zM443 240c0 115 -5 204 -144 204c-129 0 -173 -47 -173 -204c0 -158 44 -206 173 -206c139 0 144 91 144 206z" />
    <glyph glyph-name="afii10083" unicode="&#x441;" horiz-adv-x="515" 
d="M457 131c0 -113 -91 -138 -188 -138c-180 0 -203 84 -203 246c0 161 24 247 203 247c97 0 188 -27 188 -139h-40c0 84 -78 98 -147 98c-153 0 -161 -71 -161 -205c0 -133 8 -206 161 -206c70 0 147 12 147 97h40z" />
    <glyph glyph-name="afii10084" unicode="&#x442;" horiz-adv-x="445" 
d="M419 439h-175v-439h-43v439h-175v39h393v-39z" />
    <glyph glyph-name="afii10085" unicode="&#x443;" horiz-adv-x="455" 
d="M428 478l-246 -669h-44l72 192l-177 477h45l155 -423l150 423h45z" />
    <glyph glyph-name="afii10086" unicode="&#x444;" horiz-adv-x="815" 
d="M749 239c0 -150 -17 -247 -171 -247c-119 0 -141 61 -149 72v-255h-43v255c-8 -11 -30 -72 -149 -72c-154 0 -171 97 -171 247s17 249 171 249c119 0 141 -61 149 -72v281h43v-281c8 11 30 72 149 72c154 0 171 -99 171 -249zM706 240c0 128 -13 207 -126 207
c-112 0 -152 -48 -152 -207s40 -207 152 -207c113 0 126 79 126 207zM387 240c0 159 -40 207 -152 207c-113 0 -126 -79 -126 -207s13 -207 126 -207c112 0 152 48 152 207z" />
    <glyph glyph-name="afii10087" unicode="&#x445;" horiz-adv-x="457" 
d="M428 0h-52l-148 208l-148 -208h-51l174 242l-170 236h52l144 -203l146 203h50l-171 -235z" />
    <glyph glyph-name="afii10088" unicode="&#x446;" horiz-adv-x="544" 
d="M496 -117h-39v117h-373v478h43v-439h290v439h43v-439h36v-156z" />
    <glyph glyph-name="afii10089" unicode="&#x447;" horiz-adv-x="538" 
d="M442 0h-43v210c-29 -14 -71 -29 -150 -29c-65 0 -111 13 -141 44c-21 21 -32 47 -37 78s-5 67 -5 104v71h43v-77c0 -66 2 -114 34 -146c21 -22 54 -33 106 -33c48 0 102 6 150 32v224h43v-478z" />
    <glyph glyph-name="afii10090" unicode="&#x448;" horiz-adv-x="755" 
d="M671 0h-587v478h43v-439h229v439h43v-439h229v439h43v-478z" />
    <glyph glyph-name="afii10091" unicode="&#x449;" horiz-adv-x="755" 
d="M707 -117h-39v117h-584v478h43v-439h229v439h43v-439h229v439h43v-439h36v-156z" />
    <glyph glyph-name="afii10092" unicode="&#x44a;" horiz-adv-x="539" 
d="M489 133c0 -129 -62 -133 -175 -133h-201v439h-101v39h144v-212h180c57 0 97 -3 123 -29c20 -19 30 -52 30 -104zM446 133c0 91 -40 94 -117 94h-173v-190h156c79 0 134 -4 134 96z" />
    <glyph glyph-name="afii10093" unicode="&#x44b;" horiz-adv-x="662" 
d="M578 0h-43v478h43v-478zM460 133c0 -129 -62 -133 -175 -133h-201v478h43v-212h180c57 0 97 -3 123 -29c20 -19 30 -52 30 -104zM417 133c0 91 -40 94 -117 94h-173v-190h156c79 0 134 -4 134 96z" />
    <glyph glyph-name="afii10094" unicode="&#x44c;" horiz-adv-x="510" 
d="M460 133c0 -129 -62 -133 -175 -133h-201v478h43v-212h180c57 0 97 -3 123 -29c20 -19 30 -52 30 -104zM417 133c0 91 -40 94 -117 94h-173v-190h156c79 0 134 -4 134 96z" />
    <glyph glyph-name="afii10095" unicode="&#x44d;" horiz-adv-x="515" 
d="M449 239c0 -162 -23 -246 -203 -246c-97 0 -188 25 -188 138h40c0 -85 77 -97 147 -97c148 0 160 68 161 193h-194v39h194c-2 117 -18 179 -161 179c-69 0 -147 -14 -147 -98h-40c0 112 91 139 188 139c179 0 203 -86 203 -247z" />
    <glyph glyph-name="afii10096" unicode="&#x44e;" horiz-adv-x="738" 
d="M672 239c0 -143 -15 -246 -206 -246c-187 0 -203 97 -204 234h-135v-227h-43v478h43v-212h135c2 129 25 220 205 220c191 0 205 -104 205 -247zM629 239c0 134 -9 206 -162 206s-162 -72 -162 -206s9 -205 162 -205s162 71 162 205z" />
    <glyph glyph-name="afii10194" unicode="&#x463;" horiz-adv-x="539" 
d="M12 439v39h101v189h43v-189h221v-39h-221v-173h180c57 0 97 -3 123 -29c20 -19 30 -52 30 -104c0 -129 -62 -133 -175 -133h-201v439h-101zM446 133c0 91 -40 94 -117 94h-173v-190h156c79 0 134 -4 134 96z" />
    <glyph glyph-name="afii10195" unicode="&#x473;" horiz-adv-x="542" 
d="M476 239c0 -143 -14 -246 -205 -246c-192 0 -205 103 -205 246s13 247 205 247c191 0 205 -104 205 -247zM271 34c148 0 161 67 162 193h-324c0 -126 13 -193 162 -193zM271 445c-143 0 -160 -63 -162 -179h324c-2 116 -20 179 -162 179z" />
    <glyph glyph-name="afii10196" unicode="&#x475;" horiz-adv-x="482" 
d="M253 0h-48l-184 478h45l164 -429l116 309c39 104 54 127 115 127v-39c-37 -3 -42 -13 -75 -99z" />
    <glyph glyph-name="uni00A0" unicode="&#xa0;" horiz-adv-x="480" 
d="M386 220h-292v40h292v-40z" />
    </font>
</defs>
</svg>
